<?xml version="1.0" standalone="no"?>
<!DOCTYPE svg PUBLIC "-//W3C//DTD SVG 20010904//EN"
 "http://www.w3.org/TR/2001/REC-SVG-20010904/DTD/svg10.dtd">
<svg version="1.0" xmlns="http://www.w3.org/2000/svg"
 width="900.000000pt" height="435.000000pt" viewBox="0 0 900.000000 435.000000"
 preserveAspectRatio="xMidYMid meet">
<metadata>
Created by potrace 1.12, written by Peter Selinger 2001-2015
</metadata>
<g transform="translate(0.000000,435.000000) scale(0.100000,-0.100000)"
fill="#000000" stroke="none">
<path d="M40 3405 l0 -905 980 0 980 0 0 905 0 905 -980 0 -980 0 0 -905z"/>
<path d="M2040 3665 l0 -645 165 0 165 0 0 -260 0 -260 315 0 315 0 0 905 0
905 -480 0 -480 0 0 -645z"/>
<path d="M3030 3775 l0 -535 670 0 670 0 0 -120 0 -120 315 0 315 0 0 -150 0
-150 520 0 520 0 0 -105 0 -105 645 0 645 0 0 910 0 910 -2150 0 -2150 0 0
-535z"/>
<path d="M7360 3400 l0 -910 130 0 130 0 0 910 0 910 -130 0 -130 0 0 -910z"/>
<path d="M7650 3730 l0 -240 330 0 330 0 0 -500 0 -500 325 0 325 0 0 740 0
740 -655 0 -655 0 0 -240z"/>
<path d="M7650 2975 l0 -485 160 0 160 0 0 485 0 485 -160 0 -160 0 0 -485z"/>
<path d="M8000 2975 l0 -485 140 0 140 0 0 485 0 485 -140 0 -140 0 0 -485z"/>
<path d="M3030 2855 l0 -355 150 0 150 0 0 355 0 355 -150 0 -150 0 0 -355z"/>
<path d="M3360 2855 l0 -355 145 0 145 0 0 355 0 355 -145 0 -145 0 0 -355z"/>
<path d="M3670 2950 l0 -260 335 0 335 0 0 260 0 260 -335 0 -335 0 0 -260z"/>
<path d="M2040 2745 l0 -245 150 0 150 0 0 245 0 245 -150 0 -150 0 0 -245z"/>
<path d="M4370 2830 l0 -130 300 0 300 0 0 130 0 130 -300 0 -300 0 0 -130z"/>
<path d="M5000 2575 l0 -85 155 0 155 0 0 85 0 85 -155 0 -155 0 0 -85z"/>
<path d="M5330 2575 l0 -85 170 0 170 0 0 85 0 85 -170 0 -170 0 0 -85z"/>
<path d="M5700 2575 l0 -85 155 0 155 0 0 85 0 85 -155 0 -155 0 0 -85z"/>
<path d="M40 2310 l0 -160 160 0 160 0 0 160 0 160 -160 0 -160 0 0 -160z"/>
<path d="M5670 2170 l0 -100 165 0 165 0 0 100 0 100 -165 0 -165 0 0 -100z"/>
<path d="M6030 2165 l0 -105 260 0 260 0 0 105 0 105 -260 0 -260 0 0 -105z"/>
<path d="M540 2165 l0 -95 90 0 90 0 0 95 0 95 -90 0 -90 0 0 -95z"/>
<path d="M870 2160 l0 -100 100 0 100 0 0 100 0 100 -100 0 -100 0 0 -100z"/>
<path d="M1210 2165 l0 -95 225 0 225 0 0 95 0 95 -225 0 -225 0 0 -95z"/>
<path d="M1690 2165 l0 -95 215 0 215 0 0 95 0 95 -215 0 -215 0 0 -95z"/>
<path d="M2140 2165 l0 -95 130 0 130 0 0 95 0 95 -130 0 -130 0 0 -95z"/>
<path d="M2430 2165 l0 -95 195 0 195 0 0 95 0 95 -195 0 -195 0 0 -95z"/>
<path d="M2850 2165 l0 -95 205 0 205 0 0 95 0 95 -205 0 -205 0 0 -95z"/>
<path d="M3290 2165 l0 -95 235 0 235 0 0 95 0 95 -235 0 -235 0 0 -95z"/>
<path d="M3790 2165 l0 -95 160 0 160 0 0 95 0 95 -160 0 -160 0 0 -95z"/>
<path d="M6700 2165 l0 -95 205 0 205 0 0 95 0 95 -205 0 -205 0 0 -95z"/>
<path d="M7270 2165 l0 -95 185 0 185 0 0 95 0 95 -185 0 -185 0 0 -95z"/>
<path d="M7670 2165 l0 -95 160 0 160 0 0 95 0 95 -160 0 -160 0 0 -95z"/>
<path d="M30 1805 l0 -315 165 0 165 0 0 315 0 315 -165 0 -165 0 0 -315z"/>
<path d="M390 1645 l0 -185 -177 0 -176 0 6 -352 c4 -194 7 -514 7 -710 l0
-358 475 0 475 0 0 895 0 895 -305 0 -305 0 0 -185z"/>
<path d="M1030 935 l0 -895 320 0 320 0 0 895 0 895 -320 0 -320 0 0 -895z"/>
<path d="M1700 1155 l0 -675 160 0 160 0 0 675 0 675 -160 0 -160 0 0 -675z"/>
<path d="M2040 1155 l0 -675 295 0 295 0 0 675 0 675 -295 0 -295 0 0 -675z"/>
<path d="M2660 1715 l0 -115 150 0 150 0 0 115 0 115 -150 0 -150 0 0 -115z"/>
<path d="M2990 1715 l0 -115 160 0 160 0 0 115 0 115 -160 0 -160 0 0 -115z"/>
<path d="M5020 1425 l0 -405 315 0 315 0 0 405 0 405 -315 0 -315 0 0 -405z"/>
<path d="M5680 1410 l0 -420 -170 0 -170 0 0 -475 0 -475 410 0 410 0 0 895 0
895 -240 0 -240 0 0 -420z"/>
<path d="M6190 935 l0 -895 315 0 315 0 0 190 0 190 400 0 400 0 0 285 0 285
-485 0 -485 0 0 420 0 420 -230 0 -230 0 0 -895z"/>
<path d="M6680 1425 l0 -405 150 0 150 0 0 405 0 405 -150 0 -150 0 0 -405z"/>
<path d="M7010 1425 l0 -405 160 0 160 0 0 405 0 405 -160 0 -160 0 0 -405z"/>
<path d="M7360 1425 l0 -405 130 0 130 0 0 405 0 405 -130 0 -130 0 0 -405z"/>
<path d="M7650 1125 l0 -705 170 0 170 0 0 705 0 705 -170 0 -170 0 0 -705z"/>
<path d="M8020 1125 l0 -705 160 0 160 0 0 -190 0 -190 310 0 310 0 0 895 0
895 -470 0 -470 0 0 -705z"/>
<path d="M3710 1325 l0 -305 300 0 300 0 0 305 0 305 -300 0 -300 0 0 -305z"/>
<path d="M4340 1325 l0 -305 170 0 170 0 0 -490 0 -490 320 0 320 0 0 475 0
475 -165 0 -165 0 0 320 0 320 -325 0 -325 0 0 -305z"/>
<path d="M2660 1130 l0 -440 325 0 325 0 0 315 0 315 -175 0 -175 0 0 125 0
125 -150 0 -150 0 0 -440z"/>
<path d="M2990 1460 l0 -110 160 0 160 0 0 110 0 110 -160 0 -160 0 0 -110z"/>
<path d="M3700 820 l0 -160 225 0 225 0 0 -310 0 -310 255 0 255 0 0 273 c0
151 -3 362 -7 470 l-6 197 -474 0 -473 0 0 -160z"/>
<path d="M2660 550 l0 -110 -475 0 -475 0 0 -200 0 -200 650 0 650 0 0 39 c0
39 2 41 150 156 l150 116 0 155 0 154 -325 0 -325 0 0 -110z"/>
<path d="M3700 490 l0 -150 210 0 210 0 0 150 0 150 -210 0 -210 0 0 -150z"/>
<path d="M3700 175 l0 -135 210 0 210 0 0 135 0 135 -210 0 -210 0 0 -135z"/>
</g>
</svg>
