<?xml version="1.0" standalone="no"?>
<!DOCTYPE svg PUBLIC "-//W3C//DTD SVG 20010904//EN"
 "http://www.w3.org/TR/2001/REC-SVG-20010904/DTD/svg10.dtd">
<svg version="1.0" xmlns="http://www.w3.org/2000/svg"
 width="900.000000pt" height="574.000000pt" viewBox="0 0 900.000000 574.000000"
 preserveAspectRatio="xMidYMid meet">
<metadata>
Created by potrace 1.12, written by Peter Selinger 2001-2015
</metadata>
<g transform="translate(0.000000,574.000000) scale(0.100000,-0.100000)"
fill="#000000" stroke="none">
<path d="M450 4945 l0 -755 805 0 805 0 0 -895 0 -895 610 0 610 0 0 1650 0
1650 -1415 0 -1415 0 0 -755z"/>
<path d="M3310 4050 l0 -1650 505 0 505 0 0 1650 0 1650 -505 0 -505 0 0
-1650z"/>
<path d="M4350 4050 l0 -1650 495 0 495 0 0 1650 0 1650 -495 0 -495 0 0
-1650z"/>
<path d="M5380 4050 l0 -1650 410 0 410 0 0 515 0 515 1375 0 1375 0 0 1135 0
1135 -1785 0 -1785 0 0 -1650z"/>
<path d="M450 3280 l0 -880 785 0 785 0 0 880 0 880 -785 0 -785 0 0 -880z"/>
<path d="M6230 2900 l0 -500 200 0 200 0 0 500 0 500 -200 0 -200 0 0 -500z"/>
<path d="M6650 2900 l0 -500 365 0 365 0 0 500 0 500 -365 0 -365 0 0 -500z"/>
<path d="M7410 2900 l0 -500 385 0 385 0 0 500 0 500 -385 0 -385 0 0 -500z"/>
<path d="M8210 2775 l0 -625 375 0 375 0 0 625 0 625 -375 0 -375 0 0 -625z"/>
<path d="M40 1545 l0 -725 190 0 190 0 0 725 0 725 -190 0 -190 0 0 -725z"/>
<path d="M640 2020 l0 -110 280 0 280 0 0 110 0 110 -280 0 -280 0 0 -110z"/>
<path d="M8210 1475 l0 -655 375 0 375 0 0 655 0 655 -375 0 -375 0 0 -655z"/>
<path d="M3580 1995 l0 -125 340 0 340 0 0 125 0 125 -340 0 -340 0 0 -125z"/>
<path d="M4480 1995 l0 -125 200 0 200 0 0 125 0 125 -200 0 -200 0 0 -125z"/>
<path d="M5310 1995 l0 -125 290 0 290 0 0 125 0 125 -290 0 -290 0 0 -125z"/>
<path d="M2050 1650 l0 -90 750 0 750 0 0 90 0 90 -750 0 -750 0 0 -90z"/>
<path d="M4120 1280 l0 -460 475 0 475 0 0 460 0 460 -475 0 -475 0 0 -460z"/>
<path d="M5100 1280 l0 -460 375 0 375 0 0 460 0 460 -375 0 -375 0 0 -460z"/>
<path d="M5880 1280 l0 -460 375 0 375 0 0 460 0 460 -375 0 -375 0 0 -460z"/>
<path d="M6660 1280 l0 -460 360 0 360 0 0 460 0 460 -360 0 -360 0 0 -460z"/>
<path d="M7410 1280 l0 -460 385 0 385 0 0 429 c0 236 3 443 6 460 l7 31 -392
0 -391 0 0 -460z"/>
<path d="M452 1098 c4 -471 1 -439 64 -598 47 -119 168 -262 283 -334 37 -22
75 -47 86 -54 53 -33 196 -71 287 -77 l58 -3 0 749 0 749 -391 0 -390 0 3
-432z"/>
<path d="M1260 1175 l0 -355 380 0 380 0 0 260 0 260 -200 0 -200 0 0 95 0 95
-180 0 -180 0 0 -355z"/>
<path d="M1650 1450 l0 -80 190 0 190 0 0 80 0 80 -190 0 -190 0 0 -80z"/>
<path d="M3580 935 l0 -115 255 0 255 0 0 115 0 115 -255 0 -255 0 0 -115z"/>
<path d="M1860 793 c-19 -2 -161 -4 -315 -5 l-280 -3 -3 -372 -3 -373 43 0
c80 0 182 29 283 80 205 103 342 266 414 491 16 49 21 76 26 132 4 39 2 47
-13 48 -9 0 -39 1 -67 2 -27 1 -66 1 -85 0z"/>
</g>
</svg>
