<?xml version="1.0" standalone="no"?>
<!DOCTYPE svg PUBLIC "-//W3C//DTD SVG 20010904//EN"
 "http://www.w3.org/TR/2001/REC-SVG-20010904/DTD/svg10.dtd">
<svg version="1.0" xmlns="http://www.w3.org/2000/svg"
 width="960.000000pt" height="634.000000pt" viewBox="0 0 960.000000 634.000000"
 preserveAspectRatio="xMidYMid meet">
<metadata>
Created by potrace 1.12, written by Peter Selinger 2001-2015
</metadata>
<g transform="translate(0.000000,634.000000) scale(0.100000,-0.100000)"
fill="#000000" stroke="none">
<path d="M480 5675 l0 -625 410 0 410 0 0 625 0 625 -410 0 -410 0 0 -625z"/>
<path d="M1330 5900 l0 -400 1230 0 1230 0 0 400 0 400 -1230 0 -1230 0 0
-400z"/>
<path d="M3820 5900 l0 -400 795 0 795 0 0 400 0 400 -795 0 -795 0 0 -400z"/>
<path d="M5440 3700 l0 -2600 2060 0 2060 0 0 880 0 880 -400 0 -400 0 0 525
0 525 400 0 400 0 0 795 0 795 -935 0 -935 0 0 400 0 400 -1125 0 -1125 0 0
-2600z"/>
<path d="M7720 5915 l0 -385 920 0 920 0 0 385 0 385 -920 0 -920 0 0 -385z"/>
<path d="M1330 5245 l0 -225 -425 0 -425 0 0 -1540 0 -1540 225 0 224 0 128
89 c70 49 150 105 176 123 26 18 64 45 84 61 l36 27 1218 0 1219 0 0 1615 0
1615 -1230 0 -1230 0 0 -225z"/>
<path d="M3820 3545 l0 -1925 795 0 795 0 0 1925 0 1925 -795 0 -795 0 0
-1925z"/>
<path d="M8790 3385 l0 -495 385 0 385 0 0 495 0 495 -385 0 -385 0 0 -495z"/>
<path d="M40 1875 l0 -775 205 0 205 0 0 775 0 775 -205 0 -205 0 0 -775z"/>
<path d="M1260 2135 c-58 -41 -154 -108 -215 -150 l-110 -75 -228 0 -228 0 4
-472 c2 -260 6 -480 9 -488 3 -8 8 -28 12 -45 30 -121 119 -283 208 -376 83
-88 214 -173 329 -215 47 -16 54 -18 136 -34 65 -12 288 -6 326 9 15 6 41 13
58 16 45 8 156 62 232 112 166 110 284 281 345 501 20 70 21 100 22 683 l1
609 -398 -1 -398 0 -105 -74z"/>
<path d="M2190 1915 l0 -295 485 0 485 0 0 295 0 295 -485 0 -485 0 0 -295z"/>
<path d="M3190 1900 l0 -310 -500 0 -500 0 0 -245 0 -245 800 0 800 0 0 120 0
120 165 0 165 0 0 -120 0 -120 55 0 55 0 0 120 0 120 590 0 590 0 0 125 0 125
-950 0 -950 0 0 150 0 150 140 0 140 0 0 160 0 160 -300 0 -300 0 0 -310z"/>
<path d="M3540 1740 l0 -120 125 0 125 0 0 120 0 120 -125 0 -125 0 0 -120z"/>
<path d="M3820 1205 l0 -105 135 0 135 0 0 105 0 105 -135 0 -135 0 0 -105z"/>
<path d="M4260 1205 l0 -105 575 0 575 0 0 105 0 105 -575 0 -575 0 0 -105z"/>
</g>
</svg>
