<?xml version="1.0" standalone="no"?>
<!DOCTYPE svg PUBLIC "-//W3C//DTD SVG 20010904//EN"
 "http://www.w3.org/TR/2001/REC-SVG-20010904/DTD/svg10.dtd">
<svg version="1.0" xmlns="http://www.w3.org/2000/svg"
 width="901.000000pt" height="606.000000pt" viewBox="0 0 901.000000 606.000000"
 preserveAspectRatio="xMidYMid meet">
<metadata>
Created by potrace 1.12, written by Peter Selinger 2001-2015
</metadata>
<g transform="translate(0.000000,606.000000) scale(0.100000,-0.100000)"
fill="#000000" stroke="none">
<path d="M40 5060 l0 -960 145 0 145 0 0 -25 0 -25 665 0 665 0 0 915 0 915
725 0 725 0 0 70 0 70 -1535 0 -1535 0 0 -960z"/>
<path d="M1680 4555 l0 -1305 525 0 525 0 0 415 0 415 195 0 195 0 0 320 0
320 -135 0 -135 0 0 315 0 315 130 0 130 0 0 255 0 255 -715 0 -715 0 0 -1305z"/>
<path d="M2870 5035 l0 -295 125 0 125 0 0 295 0 295 -125 0 -125 0 0 -295z"/>
<path d="M40 3655 l0 -425 100 0 100 0 0 110 0 110 100 0 100 0 0 100 0 100
185 0 185 0 0 120 0 120 -255 0 -255 0 0 95 0 95 -130 0 -130 0 0 -425z"/>
<path d="M2750 3735 l0 -325 185 0 185 0 0 325 0 325 -185 0 -185 0 0 -325z"/>
<path d="M830 3770 l0 -120 115 0 115 0 0 120 0 120 -115 0 -115 0 0 -120z"/>
<path d="M6580 3805 l0 -65 -45 0 -45 0 0 -1060 0 -1060 605 0 605 0 0 340 0
340 95 0 95 0 0 545 0 545 -85 0 -85 0 0 195 0 195 -515 0 -515 0 0 45 0 45
-55 0 -55 0 0 -65z"/>
<path d="M460 3535 l0 -95 -100 0 -100 0 0 -105 0 -105 400 0 400 0 0 200 0
200 -300 0 -300 0 0 -95z"/>
<path d="M2750 3310 l0 -80 -535 0 -535 0 0 -205 0 -205 455 0 455 0 0 -210 0
-210 265 0 265 0 0 495 0 495 -185 0 -185 0 0 -80z"/>
<path d="M4620 3295 l0 -95 -125 0 -125 0 0 -105 0 -105 420 0 420 0 0 -720 0
-720 190 0 190 0 0 35 0 35 215 0 215 0 0 355 0 355 225 0 225 0 0 530 0 530
-925 0 -925 0 0 -95z"/>
<path d="M40 3015 l0 -195 510 0 510 0 0 195 0 195 -510 0 -510 0 0 -195z"/>
<path d="M8190 2945 l0 -35 -140 0 -140 0 0 -305 0 -305 120 0 120 0 0 -390 0
-390 410 0 410 0 0 730 0 730 -390 0 -390 0 0 -35z"/>
<path d="M4370 2255 l0 -715 195 0 195 0 0 715 0 715 -195 0 -195 0 0 -715z"/>
<path d="M4790 2255 l0 -715 200 0 200 0 0 715 0 715 -200 0 -200 0 0 -715z"/>
<path d="M40 2600 l0 -200 510 0 510 0 0 200 0 200 -510 0 -510 0 0 -200z"/>
<path d="M1680 2390 l0 -410 715 0 715 0 0 200 0 200 -270 0 -270 0 0 210 0
210 -445 0 -445 0 0 -410z"/>
<path d="M40 1765 l0 -615 510 0 510 0 0 615 0 615 -510 0 -510 0 0 -615z"/>
<path d="M3140 2175 l0 -205 160 0 160 0 0 -215 0 -215 325 0 325 0 0 215 0
215 120 0 120 0 0 205 0 205 -605 0 -605 0 0 -205z"/>
<path d="M6040 1965 l0 -345 105 0 105 0 0 345 0 345 -105 0 -105 0 0 -345z"/>
<path d="M6270 1965 l0 -345 100 0 100 0 0 345 0 345 -100 0 -100 0 0 -345z"/>
<path d="M7720 1900 l0 -380 205 0 205 0 0 380 0 380 -205 0 -205 0 0 -380z"/>
<path d="M1680 1745 l0 -205 195 0 195 0 0 205 0 205 -195 0 -195 0 0 -205z"/>
<path d="M2100 1745 l0 -205 250 0 250 0 0 205 0 205 -250 0 -250 0 0 -205z"/>
<path d="M2620 1745 l0 -205 250 0 250 0 0 205 0 205 -250 0 -250 0 0 -205z"/>
<path d="M3140 1745 l0 -205 150 0 150 0 0 205 0 205 -150 0 -150 0 0 -205z"/>
<path d="M4130 1745 l0 -205 110 0 110 0 0 205 0 205 -110 0 -110 0 0 -205z"/>
<path d="M8570 905 l0 -585 200 0 200 0 0 585 0 585 -200 0 -200 0 0 -585z"/>
<path d="M6900 1050 l0 -120 190 0 190 0 0 120 0 120 -190 0 -190 0 0 -120z"/>
<path d="M7310 1050 l0 -120 205 0 205 0 0 120 0 120 -205 0 -205 0 0 -120z"/>
<path d="M7740 740 l0 -430 195 0 195 0 0 430 0 430 -195 0 -195 0 0 -430z"/>
<path d="M8150 740 l0 -430 200 0 200 0 0 430 0 430 -200 0 -200 0 0 -430z"/>
<path d="M1690 935 l0 -215 195 0 195 0 0 215 0 215 -195 0 -195 0 0 -215z"/>
<path d="M2100 735 l0 -415 235 0 235 0 0 415 0 415 -235 0 -235 0 0 -415z"/>
<path d="M2590 735 l0 -415 125 0 125 0 0 190 0 190 130 0 130 0 0 225 0 225
-255 0 -255 0 0 -415z"/>
<path d="M3120 735 l0 -415 65 0 65 0 0 -140 0 -140 485 0 485 0 0 140 0 140
65 0 65 0 0 415 0 415 -615 0 -615 0 0 -415z"/>
<path d="M4370 735 l0 -415 200 0 200 0 0 415 0 415 -200 0 -200 0 0 -415z"/>
<path d="M4790 735 l0 -415 200 0 200 0 0 415 0 415 -200 0 -200 0 0 -415z"/>
<path d="M5210 735 l0 -415 410 0 410 0 0 360 0 360 -205 0 -205 0 0 55 0 55
-205 0 -205 0 0 -415z"/>
<path d="M40 925 l0 -205 130 0 130 0 0 205 0 205 -130 0 -130 0 0 -205z"/>
<path d="M320 925 l0 -205 370 0 370 0 0 205 0 205 -370 0 -370 0 0 -205z"/>
<path d="M6050 865 l0 -175 210 0 210 0 0 175 0 175 -210 0 -210 0 0 -175z"/>
<path d="M6900 735 l0 -175 205 0 205 0 0 -125 0 -125 205 0 205 0 0 300 0
300 -410 0 -410 0 0 -175z"/>
<path d="M40 500 l0 -200 510 0 510 0 0 200 0 200 -510 0 -510 0 0 -200z"/>
<path d="M1690 505 l0 -195 195 0 195 0 0 195 0 195 -195 0 -195 0 0 -195z"/>
<path d="M2860 500 l0 -180 120 0 120 0 0 180 0 180 -120 0 -120 0 0 -180z"/>
</g>
</svg>
