<?xml version="1.0" standalone="no"?>
<!DOCTYPE svg PUBLIC "-//W3C//DTD SVG 20010904//EN"
 "http://www.w3.org/TR/2001/REC-SVG-20010904/DTD/svg10.dtd">
<svg version="1.0" xmlns="http://www.w3.org/2000/svg"
 width="900.000000pt" height="579.000000pt" viewBox="0 0 900.000000 579.000000"
 preserveAspectRatio="xMidYMid meet">
<metadata>
Created by potrace 1.12, written by Peter Selinger 2001-2015
</metadata>
<g transform="translate(0.000000,579.000000) scale(0.100000,-0.100000)"
fill="#000000" stroke="none">
<path d="M40 4795 l0 -955 140 0 140 0 0 -25 0 -25 665 0 665 0 0 915 0 915
725 0 725 0 0 65 0 65 -1530 0 -1530 0 0 -955z"/>
<path d="M1680 4290 l0 -1300 515 0 515 0 0 80 0 80 195 0 195 0 0 1220 0
1220 -710 0 -710 0 0 -1300z"/>
<path d="M320 3510 l0 -120 240 0 240 0 0 120 0 120 -240 0 -240 0 0 -120z"/>
<path d="M820 3510 l0 -120 115 0 115 0 0 120 0 120 -115 0 -115 0 0 -120z"/>
<path d="M6570 3535 l0 -65 -45 0 -45 0 0 -1055 0 -1055 605 0 605 0 0 340 0
340 90 0 90 0 0 540 0 540 -85 0 -85 0 0 195 0 195 -515 0 -515 0 0 45 0 45
-50 0 -50 0 0 -65z"/>
<path d="M40 3165 l0 -195 505 0 505 0 0 195 0 195 -505 0 -505 0 0 -195z"/>
<path d="M2750 3040 l0 -80 -535 0 -535 0 0 -200 0 -200 455 0 455 0 0 -210 0
-210 255 0 255 0 0 490 0 490 -175 0 -175 0 0 -80z"/>
<path d="M4610 3030 l0 -90 -125 0 -125 0 0 -105 0 -105 520 0 c340 0 520 -3
520 -10 0 -6 -40 -10 -100 -10 l-100 0 0 -715 0 -715 190 0 190 0 0 40 0 40
215 0 215 0 0 355 0 355 225 0 225 0 0 525 0 525 -925 0 -925 0 0 -90z"/>
<path d="M40 2540 l0 -400 140 0 140 0 0 210 0 210 365 0 365 0 0 190 0 190
-505 0 -505 0 0 -400z"/>
<path d="M8180 2680 l0 -40 -140 0 -140 0 0 -300 0 -300 120 0 120 0 0 -395 0
-395 410 0 410 0 0 735 0 735 -390 0 -390 0 0 -40z"/>
<path d="M4360 1990 l0 -710 195 0 195 0 0 710 0 710 -195 0 -195 0 0 -710z"/>
<path d="M4780 1990 l0 -710 200 0 200 0 0 710 0 710 -200 0 -200 0 0 -710z"/>
<path d="M350 2335 l0 -195 350 0 350 0 0 195 0 195 -350 0 -350 0 0 -195z"/>
<path d="M1680 2125 l0 -405 710 0 710 0 0 195 0 195 -270 0 -270 0 0 210 0
210 -440 0 -440 0 0 -405z"/>
<path d="M40 1500 l0 -610 505 0 505 0 0 610 0 610 -505 0 -505 0 0 -610z"/>
<path d="M3130 1695 l0 -415 150 0 150 0 0 415 0 415 -150 0 -150 0 0 -415z"/>
<path d="M3460 1695 l0 -415 320 0 320 0 0 415 0 415 -320 0 -320 0 0 -415z"/>
<path d="M4120 1695 l0 -415 110 0 110 0 0 415 0 415 -110 0 -110 0 0 -415z"/>
<path d="M6030 1700 l0 -340 100 0 100 0 0 340 0 340 -100 0 -100 0 0 -340z"/>
<path d="M6260 1700 l0 -340 100 0 100 0 0 340 0 340 -100 0 -100 0 0 -340z"/>
<path d="M7710 1635 l0 -385 205 0 205 0 0 385 0 385 -205 0 -205 0 0 -385z"/>
<path d="M1680 1485 l0 -205 190 0 190 0 0 205 0 205 -190 0 -190 0 0 -205z"/>
<path d="M2090 1485 l0 -205 250 0 250 0 0 205 0 205 -250 0 -250 0 0 -205z"/>
<path d="M2620 1485 l0 -205 240 0 240 0 0 205 0 205 -240 0 -240 0 0 -205z"/>
<path d="M8560 1080 l0 -150 200 0 200 0 0 150 0 150 -200 0 -200 0 0 -150z"/>
<path d="M6900 790 l0 -110 185 0 185 0 0 110 0 110 -185 0 -185 0 0 -110z"/>
<path d="M7300 790 l0 -110 200 0 200 0 0 110 0 110 -200 0 -200 0 0 -110z"/>
<path d="M7730 480 l0 -420 615 0 615 0 0 420 0 420 -615 0 -615 0 0 -420z"/>
<path d="M1690 670 l0 -210 185 0 185 0 0 210 0 210 -185 0 -185 0 0 -210z"/>
<path d="M2090 470 l0 -410 235 0 235 0 0 410 0 410 -235 0 -235 0 0 -410z"/>
<path d="M2590 470 l0 -410 250 0 250 0 0 410 0 410 -250 0 -250 0 0 -410z"/>
<path d="M3110 470 l0 -410 215 0 215 0 0 410 0 410 -215 0 -215 0 0 -410z"/>
<path d="M3570 470 l0 -410 385 0 385 0 0 410 0 410 -385 0 -385 0 0 -410z"/>
<path d="M4370 470 l0 -410 190 0 190 0 0 410 0 410 -190 0 -190 0 0 -410z"/>
<path d="M4780 470 l0 -410 195 0 195 0 0 410 0 410 -195 0 -195 0 0 -410z"/>
<path d="M5200 470 l0 -410 410 0 410 0 0 360 0 360 -205 0 -205 0 0 50 0 50
-205 0 -205 0 0 -410z"/>
<path d="M40 660 l0 -200 505 0 505 0 0 200 0 200 -505 0 -505 0 0 -200z"/>
<path d="M6050 605 l0 -175 205 0 205 0 0 175 0 175 -205 0 -205 0 0 -175z"/>
<path d="M6900 475 l0 -175 200 0 200 0 0 -120 0 -120 200 0 200 0 0 295 0
295 -400 0 -400 0 0 -175z"/>
<path d="M40 235 l0 -195 505 0 505 0 0 195 0 195 -505 0 -505 0 0 -195z"/>
<path d="M1690 245 l0 -185 185 0 185 0 0 185 0 185 -185 0 -185 0 0 -185z"/>
</g>
</svg>
