<?xml version="1.0" standalone="no"?>
<!DOCTYPE svg PUBLIC "-//W3C//DTD SVG 20010904//EN"
 "http://www.w3.org/TR/2001/REC-SVG-20010904/DTD/svg10.dtd">
<svg version="1.0" xmlns="http://www.w3.org/2000/svg"
 width="987.000000pt" height="465.000000pt" viewBox="0 0 987.000000 465.000000"
 preserveAspectRatio="xMidYMid meet">
<metadata>
Created by potrace 1.12, written by Peter Selinger 2001-2015
</metadata>
<g transform="translate(0.000000,465.000000) scale(0.100000,-0.100000)"
fill="#000000" stroke="none">
<path d="M40 3640 l0 -970 1050 0 1050 0 0 970 0 970 -1050 0 -1050 0 0 -970z"/>
<path d="M2170 3920 l0 -690 180 0 180 0 0 -280 0 -280 335 0 335 0 0 970 0
970 -515 0 -515 0 0 -690z"/>
<path d="M3230 4035 l0 -575 715 0 715 0 0 -130 0 -130 335 0 335 0 0 -160 0
-160 555 0 555 0 0 -110 0 -110 690 0 690 0 0 975 0 975 -2295 0 -2295 0 0
-575z"/>
<path d="M7850 3635 l0 -975 140 0 140 0 0 975 0 975 -140 0 -140 0 0 -975z"/>
<path d="M8160 3990 l0 -260 350 0 350 0 0 -535 0 -535 350 0 350 0 0 795 0
795 -700 0 -700 0 0 -260z"/>
<path d="M8160 3180 l0 -520 170 0 170 0 0 520 0 520 -170 0 -170 0 0 -520z"/>
<path d="M8530 3180 l0 -520 150 0 150 0 0 520 0 520 -150 0 -150 0 0 -520z"/>
<path d="M3230 3050 l0 -380 160 0 160 0 0 380 0 380 -160 0 -160 0 0 -380z"/>
<path d="M3580 3050 l0 -380 155 0 155 0 0 380 0 380 -155 0 -155 0 0 -380z"/>
<path d="M3920 3155 l0 -275 355 0 355 0 0 275 0 275 -355 0 -355 0 0 -275z"/>
<path d="M2170 2935 l0 -265 165 0 165 0 0 265 0 265 -165 0 -165 0 0 -265z"/>
<path d="M4660 3025 l0 -145 320 0 320 0 0 145 0 145 -320 0 -320 0 0 -145z"/>
<path d="M5330 2755 l0 -95 165 0 165 0 0 95 0 95 -165 0 -165 0 0 -95z"/>
<path d="M5690 2755 l0 -95 180 0 180 0 0 95 0 95 -180 0 -180 0 0 -95z"/>
<path d="M6080 2755 l0 -95 165 0 165 0 0 95 0 95 -165 0 -165 0 0 -95z"/>
<path d="M40 2470 l0 -170 170 0 170 0 0 170 0 170 -170 0 -170 0 0 -170z"/>
<path d="M1310 2315 l0 -105 230 0 230 0 0 105 0 105 -230 0 -230 0 0 -105z"/>
<path d="M1800 2315 l0 -105 175 0 175 0 0 105 0 105 -175 0 -175 0 0 -105z"/>
<path d="M2180 2315 l0 -105 175 0 175 0 0 105 0 105 -175 0 -175 0 0 -105z"/>
<path d="M2560 2315 l0 -105 220 0 220 0 0 105 0 105 -220 0 -220 0 0 -105z"/>
<path d="M3030 2315 l0 -105 220 0 220 0 0 105 0 105 -220 0 -220 0 0 -105z"/>
<path d="M3500 2315 l0 -105 255 0 255 0 0 105 0 105 -255 0 -255 0 0 -105z"/>
<path d="M4040 2315 l0 -105 175 0 175 0 0 105 0 105 -175 0 -175 0 0 -105z"/>
<path d="M4420 2315 l0 -105 190 0 190 0 0 105 0 105 -190 0 -190 0 0 -105z"/>
<path d="M5240 2315 l0 -105 215 0 215 0 0 105 0 105 -215 0 -215 0 0 -105z"/>
<path d="M6040 2315 l0 -105 175 0 175 0 0 105 0 105 -175 0 -175 0 0 -105z"/>
<path d="M6420 2315 l0 -105 280 0 280 0 0 105 0 105 -280 0 -280 0 0 -105z"/>
<path d="M7230 2315 l0 -105 130 0 130 0 0 105 0 105 -130 0 -130 0 0 -105z"/>
<path d="M7740 2315 l0 -105 200 0 200 0 0 105 0 105 -200 0 -200 0 0 -105z"/>
<path d="M8170 2315 l0 -105 170 0 170 0 0 105 0 105 -170 0 -170 0 0 -105z"/>
<path d="M40 1930 l0 -340 170 0 170 0 0 340 0 340 -170 0 -170 0 0 -340z"/>
<path d="M410 1760 l0 -200 -185 0 -185 0 0 -760 0 -760 520 0 520 0 0 960 0
960 -335 0 -335 0 0 -200z"/>
<path d="M1110 1000 l0 -960 160 0 160 0 0 960 0 960 -160 0 -160 0 0 -960z"/>
<path d="M1460 1235 l0 -725 160 0 160 0 0 725 0 725 -160 0 -160 0 0 -725z"/>
<path d="M1810 1235 l0 -725 170 0 170 0 0 725 0 725 -170 0 -170 0 0 -725z"/>
<path d="M2180 1235 l0 -725 315 0 315 0 0 725 0 725 -315 0 -315 0 0 -725z"/>
<path d="M2840 1835 l0 -125 160 0 160 0 0 125 0 125 -160 0 -160 0 0 -125z"/>
<path d="M3190 1835 l0 -125 170 0 170 0 0 125 0 125 -170 0 -170 0 0 -125z"/>
<path d="M5350 1525 l0 -435 340 0 340 0 0 435 0 435 -340 0 -340 0 0 -435z"/>
<path d="M6060 1510 l0 -450 -180 0 -180 0 0 -510 0 -510 435 0 435 0 0 960 0
960 -255 0 -255 0 0 -450z"/>
<path d="M6600 1000 l0 -960 340 0 340 0 0 205 0 205 425 0 425 0 0 305 0 305
-515 0 -515 0 0 450 0 450 -250 0 -250 0 0 -960z"/>
<path d="M7130 1525 l0 -435 160 0 160 0 0 435 0 435 -160 0 -160 0 0 -435z"/>
<path d="M7480 1525 l0 -435 170 0 170 0 0 435 0 435 -170 0 -170 0 0 -435z"/>
<path d="M7850 1525 l0 -435 140 0 140 0 0 435 0 435 -140 0 -140 0 0 -435z"/>
<path d="M8160 1205 l0 -755 180 0 180 0 0 755 0 755 -180 0 -180 0 0 -755z"/>
<path d="M8550 1205 l0 -755 170 0 170 0 0 -205 0 -205 335 0 335 0 0 960 0
960 -505 0 -505 0 0 -755z"/>
<path d="M3950 1420 l0 -330 325 0 325 0 0 330 0 330 -325 0 -325 0 0 -330z"/>
<path d="M4630 1420 l0 -330 180 0 180 0 0 -525 0 -525 340 0 340 0 0 510 0
510 -175 0 -175 0 0 345 0 345 -345 0 -345 0 0 -330z"/>
<path d="M2840 1210 l0 -470 345 0 345 0 0 340 0 340 -185 0 -185 0 0 130 0
130 -160 0 -160 0 0 -470z"/>
<path d="M3190 1565 l0 -115 170 0 170 0 0 115 0 115 -170 0 -170 0 0 -115z"/>
<path d="M3950 885 l0 -175 240 0 240 0 0 -335 0 -335 265 0 265 0 0 510 0
510 -505 0 -505 0 0 -175z"/>
<path d="M2840 595 l0 -115 -690 0 -690 0 0 -220 0 -220 875 0 875 0 0 50 c0
28 3 50 8 50 4 0 19 10 34 23 14 12 36 29 49 37 12 8 33 25 45 37 11 13 26 23
32 23 6 0 16 9 22 20 6 11 15 20 20 20 10 0 38 20 72 53 10 9 23 17 28 17 6 0
10 63 10 170 l0 170 -345 0 -345 0 0 -115z"/>
<path d="M3950 520 l0 -160 225 0 225 0 0 160 0 160 -225 0 -225 0 0 -160z"/>
<path d="M3490 313 c-32 -22 -47 -34 -71 -55 -10 -10 -24 -18 -29 -18 -6 0
-13 -7 -16 -15 -4 -8 -10 -15 -15 -15 -6 0 -17 -6 -25 -12 -8 -7 -20 -18 -27
-23 -7 -6 -24 -18 -39 -28 -24 -15 -28 -24 -28 -62 l0 -45 145 0 145 0 0 145
c0 80 -3 145 -8 145 -4 0 -19 -8 -32 -17z"/>
<path d="M3950 185 l0 -145 225 0 225 0 0 145 0 145 -225 0 -225 0 0 -145z"/>
</g>
</svg>
