<?xml version="1.0" standalone="no"?>
<!DOCTYPE svg PUBLIC "-//W3C//DTD SVG 20010904//EN"
 "http://www.w3.org/TR/2001/REC-SVG-20010904/DTD/svg10.dtd">
<svg version="1.0" xmlns="http://www.w3.org/2000/svg"
 width="960.000000pt" height="645.000000pt" viewBox="0 0 960.000000 645.000000"
 preserveAspectRatio="xMidYMid meet">
<metadata>
Created by potrace 1.12, written by Peter Selinger 2001-2015
</metadata>
<g transform="translate(0.000000,645.000000) scale(0.100000,-0.100000)"
fill="#000000" stroke="none">
<path d="M40 5390 l0 -1020 150 0 150 0 0 -30 0 -30 710 0 710 0 0 980 0 980
775 0 775 0 0 70 0 70 -1635 0 -1635 0 0 -1020z"/>
<path d="M1790 4850 l0 -1390 555 0 555 0 0 445 0 445 205 0 205 0 0 335 0
335 -140 0 -140 0 0 340 0 340 140 0 140 0 0 270 0 270 -760 0 -760 0 0 -1390z"/>
<path d="M3060 5360 l0 -310 125 0 125 0 0 310 0 310 -125 0 -125 0 0 -310z"/>
<path d="M40 3890 l0 -450 100 0 100 0 0 120 0 120 105 0 105 0 0 105 0 105
200 0 200 0 0 125 0 125 -270 0 -270 0 0 100 0 100 -135 0 -135 0 0 -450z"/>
<path d="M2930 3975 l0 -345 190 0 190 0 0 345 0 345 -190 0 -190 0 0 -345z"/>
<path d="M880 4015 l0 -125 120 0 120 0 0 125 0 125 -120 0 -120 0 0 -125z"/>
<path d="M7010 4045 l0 -65 -45 0 -45 0 0 -1130 0 -1130 640 0 640 0 0 365 0
365 100 0 100 0 0 575 0 575 -90 0 -90 0 0 210 0 210 -550 0 -550 0 0 45 0 45
-55 0 -55 0 0 -65z"/>
<path d="M480 3755 l0 -105 -105 0 -105 0 0 -105 0 -105 425 0 425 0 0 210 0
210 -320 0 -320 0 0 -105z"/>
<path d="M2930 3515 l0 -85 -570 0 -570 0 0 -215 0 -215 485 0 485 0 0 -225 0
-225 275 0 275 0 0 525 0 525 -190 0 -190 0 0 -85z"/>
<path d="M4920 3500 l0 -100 -130 0 -130 0 0 -110 0 -110 445 0 445 0 0 -770
0 -770 205 0 205 0 0 40 0 40 225 0 225 0 0 380 0 380 240 0 240 0 0 560 0
560 -985 0 -985 0 0 -100z"/>
<path d="M40 3205 l0 -205 540 0 540 0 0 205 0 205 -540 0 -540 0 0 -205z"/>
<path d="M8730 3125 l0 -35 -150 0 -150 0 0 -320 0 -320 130 0 130 0 0 -420 0
-420 435 0 435 0 0 775 0 775 -415 0 -415 0 0 -35z"/>
<path d="M4660 2395 l0 -755 205 0 205 0 0 755 0 755 -205 0 -205 0 0 -755z"/>
<path d="M5100 2395 l0 -755 210 0 210 0 0 755 0 755 -210 0 -210 0 0 -755z"/>
<path d="M40 2760 l0 -210 540 0 540 0 0 210 0 210 -540 0 -540 0 0 -210z"/>
<path d="M1790 2535 l0 -435 760 0 760 0 0 210 0 210 -290 0 -290 0 0 225 0
225 -470 0 -470 0 0 -435z"/>
<path d="M40 1870 l0 -650 540 0 540 0 0 650 0 650 -540 0 -540 0 0 -650z"/>
<path d="M3340 2310 l0 -210 175 0 175 0 0 -230 0 -230 340 0 340 0 0 230 0
230 130 0 130 0 0 210 0 210 -645 0 -645 0 0 -210z"/>
<path d="M6440 2085 l0 -365 105 0 105 0 0 365 0 365 -105 0 -105 0 0 -365z"/>
<path d="M6680 2085 l0 -365 105 0 105 0 0 365 0 365 -105 0 -105 0 0 -365z"/>
<path d="M8230 2015 l0 -405 215 0 215 0 0 405 0 405 -215 0 -215 0 0 -405z"/>
<path d="M1790 1855 l0 -215 205 0 205 0 0 215 0 215 -205 0 -205 0 0 -215z"/>
<path d="M2230 1855 l0 -215 265 0 265 0 0 215 0 215 -265 0 -265 0 0 -215z"/>
<path d="M2790 1855 l0 -215 260 0 260 0 0 215 0 215 -260 0 -260 0 0 -215z"/>
<path d="M3340 1855 l0 -215 160 0 160 0 0 215 0 215 -160 0 -160 0 0 -215z"/>
<path d="M4400 1855 l0 -215 115 0 115 0 0 215 0 215 -115 0 -115 0 0 -215z"/>
<path d="M9140 955 l0 -625 210 0 210 0 0 625 0 625 -210 0 -210 0 0 -625z"/>
<path d="M7360 1110 l0 -120 200 0 200 0 0 120 0 120 -200 0 -200 0 0 -120z"/>
<path d="M7790 1110 l0 -120 215 0 215 0 0 120 0 120 -215 0 -215 0 0 -120z"/>
<path d="M8250 780 l0 -450 205 0 205 0 0 450 0 450 -205 0 -205 0 0 -450z"/>
<path d="M8690 780 l0 -450 210 0 210 0 0 450 0 450 -210 0 -210 0 0 -450z"/>
<path d="M1800 985 l0 -225 200 0 200 0 0 225 0 225 -200 0 -200 0 0 -225z"/>
<path d="M2230 770 l0 -440 250 0 250 0 0 440 0 440 -250 0 -250 0 0 -440z"/>
<path d="M2760 770 l0 -440 130 0 130 0 0 205 0 205 135 0 135 0 0 235 0 235
-265 0 -265 0 0 -440z"/>
<path d="M3320 770 l0 -440 70 0 70 0 0 -145 0 -145 515 0 515 0 0 145 0 145
70 0 70 0 0 440 0 440 -655 0 -655 0 0 -440z"/>
<path d="M4660 770 l0 -440 205 0 205 0 0 440 0 440 -205 0 -205 0 0 -440z"/>
<path d="M5100 770 l0 -440 210 0 210 0 0 440 0 440 -210 0 -210 0 0 -440z"/>
<path d="M5550 770 l0 -440 435 0 435 0 0 385 0 385 -215 0 -215 0 0 55 0 55
-220 0 -220 0 0 -440z"/>
<path d="M40 975 l0 -215 135 0 135 0 0 215 0 215 -135 0 -135 0 0 -215z"/>
<path d="M340 975 l0 -215 390 0 390 0 0 215 0 215 -390 0 -390 0 0 -215z"/>
<path d="M6450 915 l0 -185 220 0 220 0 0 185 0 185 -220 0 -220 0 0 -185z"/>
<path d="M7360 775 l0 -185 215 0 215 0 0 -130 0 -130 215 0 215 0 0 315 0
315 -430 0 -430 0 0 -185z"/>
<path d="M40 520 l0 -210 540 0 540 0 0 210 0 210 -540 0 -540 0 0 -210z"/>
<path d="M1800 530 l0 -200 200 0 200 0 0 200 0 200 -200 0 -200 0 0 -200z"/>
<path d="M3050 520 l0 -190 120 0 120 0 0 190 0 190 -120 0 -120 0 0 -190z"/>
</g>
</svg>
