<?xml version="1.0" standalone="no"?>
<!DOCTYPE svg PUBLIC "-//W3C//DTD SVG 20010904//EN"
 "http://www.w3.org/TR/2001/REC-SVG-20010904/DTD/svg10.dtd">
<svg version="1.0" xmlns="http://www.w3.org/2000/svg"
 width="961.000000pt" height="738.000000pt" viewBox="0 0 961.000000 738.000000"
 preserveAspectRatio="xMidYMid meet">
<metadata>
Created by potrace 1.12, written by Peter Selinger 2001-2015
</metadata>
<g transform="translate(0.000000,738.000000) scale(0.100000,-0.100000)"
fill="#000000" stroke="none">
<path d="M4140 6670 l0 -670 425 0 425 0 0 -185 0 -185 1310 0 1310 0 0 -485
0 -485 850 0 850 0 0 1340 0 1340 -2585 0 -2585 0 0 -670z"/>
<path d="M4140 4910 l0 -1060 1720 0 1720 0 0 875 0 875 -1310 0 -1310 0 0
185 0 185 -410 0 -410 0 0 -1060z"/>
<path d="M1610 4475 l0 -625 660 0 660 0 0 625 0 625 -660 0 -660 0 0 -625z"/>
<path d="M2960 4475 l0 -625 575 0 575 0 0 625 0 625 -575 0 -575 0 0 -625z"/>
<path d="M680 4040 l0 -630 230 0 230 0 0 220 0 220 220 0 220 0 0 410 0 410
-450 0 -450 0 0 -630z"/>
<path d="M7610 4225 l0 -405 -1425 0 -1425 0 0 -1185 0 -1185 1425 0 1425 0 0
-600 0 -600 850 0 850 0 0 2190 0 2190 -850 0 -850 0 0 -405z"/>
<path d="M1610 2670 l0 -650 440 0 440 0 0 650 0 650 -440 0 -440 0 0 -650z"/>
<path d="M2520 2670 l0 -650 205 0 205 0 0 235 0 235 295 0 295 0 0 -115 0
-115 115 0 115 0 0 530 0 530 -615 0 -615 0 0 -650z"/>
<path d="M3780 2670 l0 -650 225 0 225 0 0 650 0 650 -225 0 -225 0 0 -650z"/>
<path d="M680 2755 l0 -125 230 0 230 0 0 125 0 125 -230 0 -230 0 0 -125z"/>
<path d="M289 2043 c-1 -89 3 -524 6 -610 5 -117 40 -287 58 -277 42 22 196
131 197 138 0 8 -59 192 -201 631 -21 67 -39 126 -39 133 0 26 -20 10 -21 -15z"/>
<path d="M1610 1485 l0 -505 660 0 660 0 0 505 0 505 -660 0 -660 0 0 -505z"/>
<path d="M3640 1485 l0 -505 295 0 295 0 0 505 0 505 -295 0 -295 0 0 -505z"/>
<path d="M4760 835 l0 -585 1410 0 1410 0 0 585 0 585 -1410 0 -1410 0 0 -585z"/>
<path d="M452 1194 c-84 -54 -100 -69 -92 -82 5 -9 23 -47 38 -83 89 -201 241
-394 406 -514 23 -16 43 -32 46 -36 8 -11 209 -129 219 -129 9 0 73 105 123
200 7 14 27 48 44 75 61 98 70 79 -87 196 -259 191 -397 294 -474 349 -42 30
-86 63 -97 73 -12 9 -22 17 -23 17 -1 0 -48 -30 -103 -66z"/>
<path d="M1235 578 c-38 -67 -85 -147 -102 -179 l-33 -56 73 -27 c92 -33 233
-62 320 -65 l67 -2 1 85 c0 47 1 111 2 141 l0 55 -121 85 c-67 47 -125 85
-129 85 -5 0 -39 -55 -78 -122z"/>
<path d="M1590 380 l0 -130 670 0 670 0 0 130 0 130 -670 0 -670 0 0 -130z"/>
<path d="M2960 380 l0 -130 395 0 395 0 0 130 0 130 -395 0 -395 0 0 -130z"/>
<path d="M3780 380 l0 -130 475 0 475 0 0 130 0 130 -475 0 -475 0 0 -130z"/>
</g>
</svg>
