<?xml version="1.0" encoding="UTF-8" ?>
<!DOCTYPE svg PUBLIC "-//W3C//DTD SVG 1.1//EN" "http://www.w3.org/Graphics/SVG/1.1/DTD/svg11.dtd">
<svg width="900pt" height="475pt" viewBox="0 0 900 475" version="1.1" xmlns="http://www.w3.org/2000/svg">
<path fill="#f7f7f7" d=" M 0.00 0.00 L 900.00 0.00 L 900.00 475.00 L 0.00 475.00 L 0.00 0.00 Z" />
<path fill="#050505" d=" M 5.00 5.00 C 46.00 5.00 87.00 5.00 128.00 5.00 C 128.00 40.00 128.00 75.00 128.00 110.00 C 109.33 110.00 90.67 110.00 72.00 110.00 C 72.00 127.00 72.00 144.00 72.00 161.00 C 66.00 161.00 60.00 161.00 54.00 161.00 C 54.00 177.00 54.00 193.00 54.00 209.00 C 37.67 209.00 21.33 209.00 5.00 209.00 C 5.00 141.00 5.00 73.00 5.00 5.00 Z" />
<path fill="#050505" d=" M 132.00 5.00 C 188.00 5.00 244.00 5.00 300.00 5.00 C 300.00 23.33 300.00 41.67 300.00 60.00 C 292.00 60.00 284.00 60.00 276.00 60.00 C 276.00 67.67 276.00 75.33 276.00 83.00 C 268.66 83.00 261.33 83.00 254.00 83.00 C 254.00 90.67 254.00 98.33 254.00 106.00 C 236.33 106.00 218.67 106.00 201.00 106.00 C 201.00 107.33 201.00 108.66 201.00 110.00 C 178.00 110.00 155.00 110.00 132.00 110.00 C 132.00 75.00 132.00 40.00 132.00 5.00 Z" />
<path fill="#050505" d=" M 304.00 5.00 C 332.67 5.00 361.33 5.00 390.00 5.00 C 390.00 38.67 390.00 72.33 390.00 106.00 C 380.00 106.00 370.00 106.00 360.00 106.00 C 360.00 98.00 360.00 90.00 360.00 82.00 C 353.33 82.00 346.67 82.00 340.00 82.00 C 340.00 74.67 340.00 67.33 340.00 60.00 C 328.00 60.00 316.00 60.00 304.00 60.00 C 304.00 41.67 304.00 23.33 304.00 5.00 Z" />
<path fill="#050505" d=" M 431.00 5.00 C 438.00 5.00 445.00 5.00 452.00 5.00 C 452.00 15.00 452.00 25.00 452.00 35.00 C 445.00 35.00 438.00 35.00 431.00 35.00 C 431.00 25.00 431.00 15.00 431.00 5.00 Z" />
<path fill="#050505" d=" M 455.00 5.00 C 484.00 5.00 513.00 5.00 542.00 5.00 C 542.00 38.67 542.00 72.33 542.00 106.00 C 513.00 106.00 484.00 106.00 455.00 106.00 C 455.00 72.33 455.00 38.67 455.00 5.00 Z" />
<path fill="#050505" d=" M 545.00 5.00 C 575.33 5.00 605.67 5.00 636.00 5.00 C 636.00 22.00 636.00 39.00 636.00 56.00 C 629.66 56.00 623.33 56.00 617.00 56.00 C 617.00 64.67 617.00 73.33 617.00 82.00 C 610.66 82.00 604.33 82.00 598.00 82.00 C 598.00 90.00 598.00 98.00 598.00 106.00 C 580.33 106.00 562.67 106.00 545.00 106.00 C 545.00 72.33 545.00 38.67 545.00 5.00 Z" />
<path fill="#050505" d=" M 640.00 5.00 C 651.67 5.00 663.33 5.00 675.00 5.00 C 675.00 38.67 675.00 72.33 675.00 106.00 C 663.33 106.00 651.67 106.00 640.00 106.00 C 640.00 72.33 640.00 38.67 640.00 5.00 Z" />
<path fill="#050505" d=" M 679.00 5.00 C 707.67 5.00 736.33 5.00 765.00 5.00 C 765.00 23.33 765.00 41.67 765.00 60.00 C 759.00 60.00 753.00 60.00 747.00 60.00 C 747.00 67.67 747.00 75.33 747.00 83.00 C 742.00 83.00 737.00 83.00 732.00 83.00 C 732.00 90.67 732.00 98.33 732.00 106.00 C 714.33 106.00 696.67 106.00 679.00 106.00 C 679.00 72.33 679.00 38.67 679.00 5.00 Z" />
<path fill="#050505" d=" M 769.00 5.00 C 811.33 5.00 853.67 5.00 896.00 5.00 C 896.00 82.00 896.00 159.00 896.00 236.00 C 848.33 236.00 800.67 236.00 753.00 236.00 C 753.00 194.00 753.00 152.00 753.00 110.00 C 758.33 110.00 763.66 110.00 769.00 110.00 C 769.00 75.00 769.00 40.00 769.00 5.00 Z" />
<path fill="#050505" d=" M 431.00 38.00 C 438.00 38.00 445.00 38.00 452.00 38.00 C 452.00 48.00 452.00 58.00 452.00 68.00 C 445.00 68.00 438.00 68.00 431.00 68.00 C 431.00 58.00 431.00 48.00 431.00 38.00 Z" />
<path fill="#050505" d=" M 620.00 60.00 C 625.66 60.00 631.33 60.00 637.00 60.00 C 637.00 75.33 637.00 90.67 637.00 106.00 C 631.33 106.00 625.66 106.00 620.00 106.00 C 620.00 90.67 620.00 75.33 620.00 60.00 Z" />
<path fill="#050505" d=" M 303.00 63.00 C 314.33 63.00 325.67 63.00 337.00 63.00 C 337.00 77.33 337.00 91.67 337.00 106.00 C 325.67 106.00 314.33 106.00 303.00 106.00 C 303.00 91.67 303.00 77.33 303.00 63.00 Z" />
<path fill="#050505" d=" M 750.00 64.00 C 755.00 64.00 760.00 64.00 765.00 64.00 C 765.00 78.00 765.00 92.00 765.00 106.00 C 755.33 106.00 745.67 106.00 736.00 106.00 C 736.00 99.33 736.00 92.67 736.00 86.00 C 740.66 86.00 745.33 86.00 750.00 86.00 C 750.00 78.67 750.00 71.33 750.00 64.00 Z" />
<path fill="#050505" d=" M 431.00 71.00 C 438.00 71.00 445.00 71.00 452.00 71.00 C 452.00 82.67 452.00 94.33 452.00 106.00 C 445.00 106.00 438.00 106.00 431.00 106.00 C 431.00 94.33 431.00 82.67 431.00 71.00 Z" />
<path fill="#050505" d=" M 601.00 85.00 C 606.33 85.00 611.66 85.00 617.00 85.00 C 617.00 92.00 617.00 99.00 617.00 106.00 C 611.66 106.00 606.33 106.00 601.00 106.00 C 601.00 99.00 601.00 92.00 601.00 85.00 Z" />
<path fill="#050505" d=" M 257.00 86.00 C 263.67 86.00 270.33 86.00 277.00 86.00 C 277.00 92.67 277.00 99.33 277.00 106.00 C 270.33 106.00 263.67 106.00 257.00 106.00 C 257.00 99.33 257.00 92.67 257.00 86.00 Z" />
<path fill="#050505" d=" M 340.00 86.00 C 345.33 86.00 350.67 86.00 356.00 86.00 C 356.00 92.67 356.00 99.33 356.00 106.00 C 350.67 106.00 345.33 106.00 340.00 106.00 C 340.00 99.33 340.00 92.67 340.00 86.00 Z" />
<path fill="#050505" d=" M 76.00 113.00 C 87.67 113.00 99.33 113.00 111.00 113.00 C 111.00 137.33 110.99 161.66 111.01 185.99 C 110.87 187.27 111.35 189.02 109.95 189.76 C 99.38 197.81 87.73 204.69 74.82 208.20 C 75.05 198.80 76.15 189.43 76.00 180.02 C 76.00 157.68 76.00 135.34 76.00 113.00 Z" />
<path fill="#050505" d=" M 115.00 113.00 C 125.67 113.00 136.33 113.00 147.00 113.00 C 147.05 126.74 146.88 140.49 147.10 154.23 C 146.72 155.36 145.56 155.99 144.80 156.85 C 134.77 166.23 125.03 175.92 114.90 185.19 C 114.89 161.13 115.09 137.06 115.00 113.00 Z" />
<path fill="#050505" d=" M 151.00 113.00 C 164.88 112.96 178.77 113.29 192.64 113.70 C 189.78 117.98 184.74 119.80 181.03 123.16 C 175.57 127.96 169.73 132.37 164.87 137.81 C 160.50 142.14 156.35 146.84 151.23 150.28 C 151.35 137.85 150.83 125.43 151.00 113.00 Z" />
<path fill="#050505" d=" M 238.00 126.00 C 248.33 126.00 258.67 126.00 269.00 126.00 C 269.00 130.33 269.00 134.67 269.00 139.00 C 258.67 139.00 248.33 139.00 238.00 139.00 C 238.00 134.67 238.00 130.33 238.00 126.00 Z" />
<path fill="#050505" d=" M 303.00 126.00 C 313.67 126.00 324.33 126.00 335.00 126.00 C 335.00 130.33 335.00 134.67 335.00 139.00 C 324.33 139.00 313.67 139.00 303.00 139.00 C 303.00 134.67 303.00 130.33 303.00 126.00 Z" />
<path fill="#050505" d=" M 369.00 126.00 C 379.33 126.00 389.67 126.00 400.00 126.00 C 400.00 130.33 400.00 134.67 400.00 139.00 C 389.67 139.00 379.33 139.00 369.00 139.00 C 369.00 134.67 369.00 130.33 369.00 126.00 Z" />
<path fill="#050505" d=" M 443.00 126.00 C 454.00 126.00 465.00 126.00 476.00 126.00 C 476.00 130.33 476.00 134.67 476.00 139.00 C 465.00 139.00 454.00 139.00 443.00 139.00 C 443.00 134.67 443.00 130.33 443.00 126.00 Z" />
<path fill="#050505" d=" M 509.00 126.00 C 519.67 126.00 530.33 126.00 541.00 126.00 C 541.00 130.67 541.00 135.33 541.00 140.00 C 530.33 140.00 519.67 140.00 509.00 140.00 C 509.00 135.33 509.00 130.67 509.00 126.00 Z" />
<path fill="#050505" d=" M 574.00 126.00 C 585.00 126.00 596.00 126.00 607.00 126.00 C 607.00 130.67 607.00 135.33 607.00 140.00 C 596.00 140.00 585.00 140.00 574.00 140.00 C 574.00 135.33 574.00 130.67 574.00 126.00 Z" />
<path fill="#050505" d=" M 640.00 126.00 C 651.00 126.00 662.00 126.00 673.00 126.00 C 673.00 130.67 673.00 135.33 673.00 140.00 C 662.00 140.00 651.00 140.00 640.00 140.00 C 640.00 135.33 640.00 130.67 640.00 126.00 Z" />
<path fill="#050505" d=" M 231.48 161.69 C 235.87 160.74 240.16 159.04 244.73 159.18 C 245.20 174.11 244.92 189.04 245.00 203.97 C 244.88 241.23 245.26 278.50 244.76 315.75 C 236.04 314.76 227.34 313.33 219.11 310.16 C 215.49 309.25 212.58 306.71 209.00 305.76 C 209.00 290.84 209.00 275.92 209.00 261.00 C 202.00 261.00 195.00 261.00 188.00 261.00 C 188.00 245.67 188.00 230.33 188.00 215.00 C 195.00 215.00 202.00 215.00 209.00 215.00 C 209.01 200.06 208.99 185.11 209.01 170.17 C 216.18 166.58 223.72 163.74 231.48 161.69 Z" />
<path fill="#050505" d=" M 248.00 159.00 C 253.00 159.00 258.00 159.00 263.00 159.00 C 263.00 168.33 263.00 177.67 263.00 187.00 C 258.00 187.00 253.00 187.00 248.00 187.00 C 248.00 177.67 248.00 168.33 248.00 159.00 Z" />
<path fill="#050505" d=" M 266.00 159.00 C 271.00 159.00 276.00 159.00 281.00 159.00 C 281.00 211.33 281.00 263.67 281.00 316.00 C 276.00 316.00 271.00 316.00 266.00 316.00 C 266.00 305.67 266.00 295.33 266.00 285.00 C 260.00 285.00 254.00 285.00 248.00 285.00 C 248.00 253.33 248.00 221.67 248.00 190.00 C 254.00 190.00 260.00 190.00 266.00 190.00 C 266.00 179.67 266.00 169.33 266.00 159.00 Z" />
<path fill="#050505" d=" M 285.00 159.00 C 289.67 159.00 294.33 159.00 299.00 159.00 C 299.00 176.67 299.00 194.33 299.00 212.00 C 294.33 212.00 289.67 212.00 285.00 212.00 C 285.00 194.33 285.00 176.67 285.00 159.00 Z" />
<path fill="#050505" d=" M 303.00 159.00 C 314.33 159.00 325.67 159.00 337.00 159.00 C 337.00 211.33 337.00 263.67 337.00 316.00 C 325.67 316.00 314.33 316.00 303.00 316.00 C 303.00 297.33 303.00 278.67 303.00 260.00 C 296.67 260.00 290.33 260.00 284.00 260.00 C 284.00 245.00 284.00 230.00 284.00 215.00 C 290.33 215.00 296.67 215.00 303.00 215.00 C 303.00 196.33 303.00 177.67 303.00 159.00 Z" />
<path fill="#050505" d=" M 341.00 159.00 C 353.33 159.00 365.67 159.00 378.00 159.00 C 378.00 211.33 378.00 263.67 378.00 316.00 C 365.67 316.00 353.33 316.00 341.00 316.00 C 341.00 263.67 341.00 211.33 341.00 159.00 Z" />
<path fill="#050505" d=" M 381.00 159.00 C 387.00 159.00 393.00 159.00 399.00 159.00 C 399.00 175.67 399.00 192.33 399.00 209.00 C 393.00 209.00 387.00 209.00 381.00 209.00 C 381.00 192.33 381.00 175.67 381.00 159.00 Z" />
<path fill="#050505" d=" M 509.00 159.00 C 520.33 159.00 531.67 159.00 543.00 159.00 C 543.00 185.00 543.00 211.00 543.00 237.00 C 531.67 237.00 520.33 237.00 509.00 237.00 C 509.00 211.00 509.00 185.00 509.00 159.00 Z" />
<path fill="#050505" d=" M 546.00 159.00 C 557.33 159.00 568.67 159.00 580.00 159.00 C 580.00 185.00 580.00 211.00 580.00 237.00 C 568.67 237.00 557.33 237.00 546.00 237.00 C 546.00 211.00 546.00 185.00 546.00 159.00 Z" />
<path fill="#050505" d=" M 583.00 159.00 C 588.33 159.00 593.66 159.00 599.00 159.00 C 599.00 169.67 599.00 180.33 599.00 191.00 C 593.66 191.00 588.33 191.00 583.00 191.00 C 583.00 180.33 583.00 169.67 583.00 159.00 Z" />
<path fill="#050505" d=" M 602.00 159.00 C 607.33 159.00 612.66 159.00 618.00 159.00 C 618.00 184.67 618.00 210.33 618.00 236.00 C 606.33 236.00 594.67 236.00 583.00 236.00 C 583.00 222.00 583.00 208.00 583.00 194.00 C 589.33 194.00 595.66 194.00 602.00 194.00 C 602.00 182.33 602.00 170.67 602.00 159.00 Z" />
<path fill="#050505" d=" M 621.00 159.00 C 632.67 159.00 644.33 159.00 656.00 159.00 C 656.00 200.33 656.00 241.67 656.00 283.00 C 649.66 283.00 643.33 283.00 637.00 283.00 C 637.00 294.00 637.00 305.00 637.00 316.00 C 631.66 316.00 626.33 316.00 621.00 316.00 C 621.00 263.67 621.00 211.33 621.00 159.00 Z" />
<path fill="#050505" d=" M 659.00 159.00 C 670.67 159.00 682.33 159.00 694.00 159.00 C 694.00 185.00 694.00 211.00 694.00 237.00 C 682.33 237.00 670.67 237.00 659.00 237.00 C 659.00 211.00 659.00 185.00 659.00 159.00 Z" />
<path fill="#050505" d=" M 697.00 159.00 C 701.33 159.00 705.66 159.00 710.00 159.00 C 710.00 174.33 710.00 189.67 710.00 205.00 C 705.66 205.00 701.33 205.00 697.00 205.00 C 697.00 189.67 697.00 174.33 697.00 159.00 Z" />
<path fill="#050505" d=" M 58.00 165.00 C 62.67 165.00 67.33 165.00 72.00 165.00 C 72.00 179.67 72.00 194.33 72.00 209.00 C 67.33 209.00 62.67 209.00 58.00 209.00 C 58.00 194.33 58.00 179.67 58.00 165.00 Z" />
<path fill="#050505" d=" M 188.00 180.92 C 193.84 177.80 199.27 173.92 205.24 171.05 C 204.79 184.70 205.08 198.35 205.00 212.00 C 199.33 212.00 193.67 212.00 188.00 212.00 C 188.00 201.64 188.00 191.28 188.00 180.92 Z" />
<path fill="#050505" d=" M 171.99 192.91 C 176.00 189.16 180.14 185.52 184.38 182.03 C 184.87 183.31 185.06 184.64 184.96 186.02 C 185.06 202.67 184.97 219.34 185.00 236.00 C 180.67 236.00 176.33 236.00 172.00 236.00 C 171.99 221.64 172.02 207.27 171.99 192.91 Z" />
<path fill="#050505" d=" M 153.04 212.95 C 157.95 207.45 163.00 201.92 168.46 196.96 C 168.76 210.31 169.19 223.64 169.00 237.00 C 163.67 237.00 158.33 237.00 153.00 237.00 C 153.04 228.98 152.93 220.97 153.04 212.95 Z" />
<path fill="#050505" d=" M 113.00 204.00 C 120.33 204.00 127.67 204.00 135.00 204.00 C 135.00 208.00 135.00 212.00 135.00 216.00 C 127.67 216.00 120.33 216.00 113.00 216.00 C 113.00 212.00 113.00 208.00 113.00 204.00 Z" />
<path fill="#050505" d=" M 697.00 209.00 C 701.00 209.00 705.00 209.00 709.00 209.00 C 709.00 218.00 709.00 227.00 709.00 236.00 C 705.00 236.00 701.00 236.00 697.00 236.00 C 697.00 227.00 697.00 218.00 697.00 209.00 Z" />
<path fill="#050505" d=" M 381.00 212.00 C 387.00 212.00 393.00 212.00 399.00 212.00 C 399.00 229.00 399.00 246.00 399.00 263.00 C 393.00 263.00 387.00 263.00 381.00 263.00 C 381.00 246.00 381.00 229.00 381.00 212.00 Z" />
<path fill="#050505" d=" M 141.75 228.78 C 144.23 225.14 146.24 221.15 149.02 217.73 C 149.39 217.87 150.14 218.14 150.52 218.27 C 151.01 224.50 151.04 230.75 151.00 237.00 C 146.72 237.04 142.43 237.03 138.18 236.53 C 137.94 233.45 140.35 231.26 141.75 228.78 Z" />
<path fill="#050505" d=" M 137.89 239.19 C 142.26 239.42 146.62 238.84 151.00 239.00 C 151.09 245.04 150.66 251.08 151.02 257.12 C 150.52 257.11 149.52 257.07 149.02 257.05 C 145.11 251.23 141.57 245.16 137.89 239.19 Z" />
<path fill="#050505" d=" M 153.00 239.00 C 158.33 239.00 163.67 239.00 169.00 239.00 C 169.13 252.15 169.03 265.30 167.90 278.41 C 162.65 273.08 158.35 266.89 153.03 261.64 C 152.97 254.09 153.02 246.55 153.00 239.00 Z" />
<path fill="#050505" d=" M 509.00 239.00 C 520.33 239.00 531.67 239.00 543.00 239.00 C 543.00 245.33 543.00 251.67 543.00 258.00 C 531.67 258.00 520.33 258.00 509.00 258.00 C 509.00 251.67 509.00 245.33 509.00 239.00 Z" />
<path fill="#050505" d=" M 602.00 239.00 C 607.33 239.00 612.66 239.00 618.00 239.00 C 618.00 264.67 618.00 290.33 618.00 316.00 C 612.66 316.00 607.33 316.00 602.00 316.00 C 602.00 290.33 602.00 264.67 602.00 239.00 Z" />
<path fill="#050505" d=" M 658.00 239.00 C 670.00 239.00 682.00 239.00 694.00 239.00 C 694.00 246.00 694.00 253.00 694.00 260.00 C 687.66 260.00 681.33 260.00 675.00 260.00 C 675.00 278.67 675.00 297.33 675.00 316.00 C 669.33 316.00 663.66 316.00 658.00 316.00 C 658.00 290.33 658.00 264.67 658.00 239.00 Z" />
<path fill="#050505" d=" M 697.00 239.00 C 701.00 239.00 705.00 239.00 709.00 239.00 C 709.00 246.00 709.00 253.00 709.00 260.00 C 705.00 260.00 701.00 260.00 697.00 260.00 C 697.00 253.00 697.00 246.00 697.00 239.00 Z" />
<path fill="#050505" d=" M 172.00 240.00 C 176.33 240.00 180.67 240.00 185.00 240.00 C 184.98 253.33 185.04 266.66 184.97 279.99 C 184.34 283.53 184.03 287.10 184.01 290.70 C 179.21 289.11 177.08 282.83 172.00 281.82 C 172.00 267.88 172.00 253.94 172.00 240.00 Z" />
<path fill="#050505" d=" M 546.00 240.00 C 551.00 240.00 556.00 240.00 561.00 240.00 C 561.00 265.33 561.00 290.67 561.00 316.00 C 556.00 316.00 551.00 316.00 546.00 316.00 C 546.00 290.67 546.00 265.33 546.00 240.00 Z" />
<path fill="#050505" d=" M 564.00 240.00 C 575.67 240.00 587.33 240.00 599.00 240.00 C 599.00 265.33 599.00 290.67 599.00 316.00 C 587.33 316.00 575.67 316.00 564.00 316.00 C 564.00 290.67 564.00 265.33 564.00 240.00 Z" />
<path fill="#050505" d=" M 753.00 240.00 C 800.67 240.00 848.33 240.00 896.00 240.00 C 896.00 287.33 896.00 334.67 896.00 382.00 C 869.34 382.00 842.67 381.99 816.01 382.01 C 794.73 349.84 774.07 317.24 752.93 284.99 C 753.09 270.00 752.96 255.00 753.00 240.00 Z" />
<path fill="#050505" d=" M 509.00 261.00 C 520.33 261.00 531.67 261.00 543.00 261.00 C 543.00 269.00 543.00 277.00 543.00 285.00 C 531.67 285.00 520.33 285.00 509.00 285.00 C 509.00 277.00 509.00 269.00 509.00 261.00 Z" />
<path fill="#050505" d=" M 285.00 263.00 C 289.67 263.00 294.33 263.00 299.00 263.00 C 299.00 280.67 299.00 298.33 299.00 316.00 C 294.33 316.00 289.67 316.00 285.00 316.00 C 285.00 298.33 285.00 280.67 285.00 263.00 Z" />
<path fill="#050505" d=" M 678.00 263.00 C 683.33 263.00 688.66 263.00 694.00 263.00 C 694.00 280.67 694.00 298.33 694.00 316.00 C 688.66 316.00 683.33 316.00 678.00 316.00 C 678.00 298.33 678.00 280.67 678.00 263.00 Z" />
<path fill="#050505" d=" M 697.00 263.00 C 701.33 263.00 705.66 263.00 710.00 263.00 C 710.00 269.67 710.00 276.33 710.00 283.00 C 705.66 283.00 701.33 283.00 697.00 283.00 C 697.00 276.33 697.00 269.67 697.00 263.00 Z" />
<path fill="#050505" d=" M 188.00 264.00 C 193.67 264.00 199.33 264.00 205.00 264.00 C 205.19 277.43 204.65 290.87 205.14 304.29 C 199.30 300.99 193.87 297.02 188.01 293.76 C 187.98 283.84 188.01 273.92 188.00 264.00 Z" />
<path fill="#050505" d=" M 4.00 266.00 C 12.33 266.00 20.67 266.00 29.00 266.00 C 29.00 271.33 29.00 276.67 29.00 282.00 C 20.67 282.00 12.33 282.00 4.00 282.00 C 4.00 276.67 4.00 271.33 4.00 266.00 Z" />
<path fill="#050505" d=" M 32.00 266.00 C 39.33 266.00 46.67 266.00 54.00 266.00 C 54.00 271.33 54.00 276.67 54.00 282.00 C 46.67 282.00 39.33 282.00 32.00 282.00 C 32.00 276.67 32.00 271.33 32.00 266.00 Z" />
<path fill="#050505" d=" M 58.00 266.00 C 65.05 265.87 72.18 266.26 79.06 267.88 C 86.99 270.75 94.89 274.09 101.55 279.36 C 102.35 279.90 102.83 280.65 102.99 281.61 C 91.98 281.43 80.97 281.58 69.95 281.52 C 65.98 281.92 62.00 282.12 58.00 282.00 C 58.00 276.66 58.00 271.33 58.00 266.00 Z" />
<path fill="#050505" d=" M 381.00 266.00 C 387.00 266.00 393.00 266.00 399.00 266.00 C 399.00 282.67 399.00 299.33 399.00 316.00 C 393.00 316.00 387.00 316.00 381.00 316.00 C 381.00 299.33 381.00 282.67 381.00 266.00 Z" />
<path fill="#050505" d=" M 4.00 285.00 C 38.35 284.99 72.70 285.03 107.05 284.98 C 108.84 284.77 110.10 286.31 111.49 287.17 C 114.02 288.50 112.82 291.72 113.02 293.99 C 112.97 352.99 113.01 412.00 113.00 471.00 C 76.67 471.00 40.33 471.00 4.00 471.00 C 4.00 409.00 4.00 347.00 4.00 285.00 Z" />
<path fill="#050505" d=" M 697.00 285.00 C 701.33 285.00 705.66 285.00 710.00 285.00 C 710.00 295.33 710.00 305.67 710.00 316.00 C 705.66 316.00 701.33 316.00 697.00 316.00 C 697.00 305.67 697.00 295.33 697.00 285.00 Z" />
<path fill="#050505" d=" M 640.00 287.00 C 645.33 287.00 650.66 287.00 656.00 287.00 C 656.00 296.67 656.00 306.33 656.00 316.00 C 650.66 316.00 645.33 316.00 640.00 316.00 C 640.00 306.33 640.00 296.67 640.00 287.00 Z" />
<path fill="#050505" d=" M 248.00 288.00 C 253.00 288.00 258.00 288.00 263.00 288.00 C 263.00 297.33 263.00 306.67 263.00 316.00 C 258.00 316.00 253.00 316.00 248.00 316.00 C 248.00 306.67 248.00 297.33 248.00 288.00 Z" />
<path fill="#050505" d=" M 509.00 288.00 C 514.67 288.00 520.33 288.00 526.00 288.00 C 526.00 297.33 526.00 306.67 526.00 316.00 C 520.33 316.00 514.66 316.00 509.00 316.00 C 509.00 306.67 509.00 297.33 509.00 288.00 Z" />
<path fill="#050505" d=" M 529.00 288.00 C 533.66 288.00 538.33 288.00 543.00 288.00 C 543.00 297.33 543.00 306.67 543.00 316.00 C 538.33 316.00 533.66 316.00 529.00 316.00 C 529.00 306.67 529.00 297.33 529.00 288.00 Z" />
<path fill="#050505" d=" M 116.90 291.74 C 122.01 295.68 126.37 300.50 131.14 304.83 C 143.81 317.12 156.66 329.25 168.96 341.92 C 169.05 357.61 168.98 373.31 169.00 389.00 C 151.67 389.00 134.33 389.00 117.00 389.00 C 117.20 356.58 116.47 324.16 116.90 291.74 Z" />
<path fill="#050505" d=" M 753.00 292.67 C 754.61 292.17 755.15 294.05 755.97 294.98 C 775.31 325.33 794.70 355.66 814.06 386.00 C 841.37 386.00 868.68 386.00 896.00 386.00 C 896.00 414.33 896.00 442.67 896.00 471.00 C 848.00 471.00 800.00 471.00 752.00 471.00 C 752.00 443.66 752.00 416.33 752.00 388.99 C 751.98 386.98 752.56 385.04 752.55 383.04 C 752.66 352.91 752.92 322.79 753.00 292.67 Z" />
<path fill="#050505" d=" M 181.00 320.00 C 188.67 320.00 196.33 320.00 204.00 320.00 C 204.00 324.00 204.00 328.00 204.00 332.00 C 196.33 332.00 188.67 332.00 181.00 332.00 C 181.00 328.00 181.00 324.00 181.00 320.00 Z" />
<path fill="#050505" d=" M 509.00 336.00 C 519.67 336.00 530.33 336.00 541.00 336.00 C 541.00 340.33 541.00 344.66 541.00 349.00 C 530.33 349.00 519.67 349.00 509.00 349.00 C 509.00 344.66 509.00 340.33 509.00 336.00 Z" />
<path fill="#050505" d=" M 575.00 336.00 C 585.67 336.00 596.33 336.00 607.00 336.00 C 607.00 340.33 607.00 344.66 607.00 349.00 C 596.33 349.00 585.67 349.00 575.00 349.00 C 575.00 344.66 575.00 340.33 575.00 336.00 Z" />
<path fill="#050505" d=" M 640.00 336.00 C 650.67 336.00 661.33 336.00 672.00 336.00 C 672.00 340.33 672.00 344.66 672.00 349.00 C 661.33 349.00 650.67 349.00 640.00 349.00 C 640.00 344.66 640.00 340.33 640.00 336.00 Z" />
<path fill="#050505" d=" M 706.00 336.00 C 716.67 336.00 727.33 336.00 738.00 336.00 C 737.99 340.33 738.00 344.66 738.00 349.00 C 727.33 349.00 716.67 349.00 706.00 349.00 C 706.00 344.66 706.00 340.33 706.00 336.00 Z" />
<path fill="#050505" d=" M 172.28 343.93 C 173.54 344.55 174.92 345.06 175.86 346.17 C 179.25 349.88 182.95 353.32 186.98 356.32 C 187.02 366.88 186.99 377.44 187.00 388.00 C 182.00 388.00 177.00 388.00 172.00 388.00 C 172.22 373.31 171.56 358.61 172.28 343.93 Z" />
<path fill="#050505" d=" M 190.52 359.15 C 196.37 362.66 202.34 366.12 208.97 367.97 C 215.52 369.63 222.32 368.81 229.00 369.00 C 229.00 402.67 229.00 436.33 229.00 470.00 C 191.67 470.00 154.33 470.00 117.00 470.00 C 117.00 444.00 117.00 418.00 117.00 392.00 C 141.33 392.00 165.67 392.00 190.00 392.00 C 189.93 381.04 189.97 370.10 190.52 359.15 Z" />
<path fill="#050505" d=" M 581.00 368.00 C 584.66 368.00 588.33 368.00 592.00 368.00 C 592.00 372.00 592.00 376.00 592.00 380.00 C 588.33 380.00 584.66 380.00 581.00 380.00 C 581.00 376.00 581.00 372.00 581.00 368.00 Z" />
<path fill="#050505" d=" M 698.00 368.00 C 702.66 368.00 707.33 368.00 712.00 368.00 C 712.00 375.67 712.00 383.33 712.00 391.00 C 707.33 391.00 702.66 391.00 698.00 391.00 C 698.00 383.33 698.00 375.67 698.00 368.00 Z" />
<path fill="#050505" d=" M 714.00 368.00 C 726.00 368.00 738.00 368.00 750.00 368.00 C 750.00 402.33 750.00 436.67 750.00 471.00 C 738.00 471.00 726.00 471.00 714.00 471.00 C 714.00 436.67 714.00 402.33 714.00 368.00 Z" />
<path fill="#050505" d=" M 232.00 369.00 C 241.33 369.00 250.67 369.00 260.00 369.00 C 260.00 402.67 260.00 436.33 260.00 470.00 C 250.67 470.00 241.33 470.00 232.00 470.00 C 232.00 436.33 232.00 402.67 232.00 369.00 Z" />
<path fill="#050505" d=" M 263.00 369.00 C 268.00 369.00 273.00 369.00 278.00 369.00 C 278.00 402.67 278.00 436.33 278.00 470.00 C 273.00 470.00 268.00 470.00 263.00 470.00 C 263.00 436.33 263.00 402.67 263.00 369.00 Z" />
<path fill="#050505" d=" M 281.00 369.00 C 286.67 369.00 292.33 369.00 298.00 369.00 C 298.00 402.67 298.00 436.33 298.00 470.00 C 292.33 470.00 286.67 470.00 281.00 470.00 C 281.00 436.33 281.00 402.67 281.00 369.00 Z" />
<path fill="#050505" d=" M 301.00 369.00 C 306.00 369.00 311.00 369.00 316.00 369.00 C 316.00 402.67 316.00 436.33 316.00 470.00 C 311.00 470.00 306.00 470.00 301.00 470.00 C 301.00 436.33 301.00 402.67 301.00 369.00 Z" />
<path fill="#050505" d=" M 319.00 369.00 C 324.33 369.00 329.67 369.00 335.00 369.00 C 335.00 378.33 335.00 387.67 335.00 397.00 C 329.67 397.00 324.33 397.00 319.00 397.00 C 319.00 387.67 319.00 378.33 319.00 369.00 Z" />
<path fill="#050505" d=" M 339.00 369.00 C 356.67 369.00 374.33 369.00 392.00 369.00 C 392.00 379.00 392.00 389.00 392.00 399.00 C 398.00 399.00 404.00 399.00 410.00 399.00 C 410.00 422.67 410.00 446.33 410.00 470.00 C 379.67 470.00 349.33 470.00 319.00 470.00 C 319.00 447.00 319.00 424.00 319.00 401.00 C 325.67 401.00 332.33 401.00 339.00 401.00 C 339.00 390.33 339.00 379.67 339.00 369.00 Z" />
<path fill="#050505" d=" M 395.00 369.00 C 400.33 369.00 405.66 369.00 411.00 369.00 C 411.00 378.00 411.00 387.00 411.00 396.00 C 405.66 396.00 400.33 396.00 395.00 396.00 C 395.00 387.00 395.00 378.00 395.00 369.00 Z" />
<path fill="#050505" d=" M 414.00 369.00 C 419.33 369.00 424.66 369.00 430.00 369.00 C 430.00 384.67 430.00 400.33 430.00 416.00 C 424.66 416.00 419.33 416.00 414.00 416.00 C 414.00 400.33 414.00 384.67 414.00 369.00 Z" />
<path fill="#050505" d=" M 433.00 369.00 C 439.33 369.00 445.66 369.00 452.00 369.00 C 452.00 377.67 452.00 386.33 452.00 395.00 C 445.66 395.00 439.33 395.00 433.00 395.00 C 433.00 386.33 433.00 377.67 433.00 369.00 Z" />
<path fill="#050505" d=" M 493.00 369.00 C 497.66 369.00 502.33 369.00 507.00 369.00 C 507.00 379.67 507.00 390.33 507.00 401.00 C 502.33 401.00 497.66 401.00 493.00 401.00 C 493.00 390.33 493.00 379.67 493.00 369.00 Z" />
<path fill="#050505" d=" M 510.00 369.00 C 521.67 369.00 533.33 369.00 545.00 369.00 C 545.00 403.00 545.00 437.00 545.00 471.00 C 533.33 471.00 521.67 471.00 510.00 471.00 C 510.00 437.00 510.00 403.00 510.00 369.00 Z" />
<path fill="#050505" d=" M 548.00 369.00 C 558.33 369.00 568.67 369.00 579.00 369.00 C 579.00 403.00 579.00 437.00 579.00 471.00 C 568.67 471.00 558.33 471.00 548.00 471.00 C 548.00 437.00 548.00 403.00 548.00 369.00 Z" />
<path fill="#050505" d=" M 602.00 369.00 C 605.33 369.00 608.66 369.00 612.00 369.00 C 612.00 375.00 612.00 381.00 612.00 387.00 C 608.66 387.00 605.33 387.00 602.00 387.00 C 602.00 381.00 602.00 375.00 602.00 369.00 Z" />
<path fill="#050505" d=" M 581.00 382.00 C 584.66 382.00 588.33 382.00 592.00 382.00 C 592.00 386.33 592.00 390.66 592.00 395.00 C 588.33 395.00 584.66 395.00 581.00 395.00 C 581.00 390.66 581.00 386.33 581.00 382.00 Z" />
<path fill="#050505" d=" M 698.00 393.00 C 702.66 393.00 707.33 393.00 712.00 393.00 C 712.00 419.00 712.00 445.00 712.00 471.00 C 707.33 471.00 702.66 471.00 698.00 471.00 C 698.00 445.00 698.00 419.00 698.00 393.00 Z" />
<path fill="#050505" d=" M 581.00 397.00 C 584.66 397.00 588.33 397.00 592.00 397.00 C 592.00 400.66 592.00 404.33 592.00 408.00 C 588.33 408.00 584.66 408.00 581.00 408.00 C 581.00 404.33 581.00 400.66 581.00 397.00 Z" />
<path fill="#050505" d=" M 433.00 399.00 C 439.33 399.00 445.66 399.00 452.00 399.00 C 452.00 404.67 452.00 410.33 452.00 416.00 C 445.66 416.00 439.33 416.00 433.00 416.00 C 433.00 410.33 433.00 404.67 433.00 399.00 Z" />
<path fill="#050505" d=" M 493.00 405.00 C 497.66 405.00 502.33 405.00 507.00 405.00 C 507.00 408.66 507.00 412.33 507.00 416.00 C 502.33 416.00 497.66 416.00 493.00 416.00 C 493.00 412.33 493.00 408.66 493.00 405.00 Z" />
<path fill="#050505" d=" M 414.00 419.00 C 426.67 419.00 439.33 419.00 452.00 419.00 C 452.00 427.67 452.00 436.33 452.00 445.00 C 439.33 445.00 426.67 445.00 414.00 445.00 C 414.00 436.33 414.00 427.67 414.00 419.00 Z" />
<path fill="#050505" d=" M 493.00 420.00 C 497.66 420.00 502.33 420.00 507.00 420.00 C 507.00 426.33 507.00 432.66 507.00 439.00 C 502.33 439.00 497.66 439.00 493.00 439.00 C 493.00 432.66 493.00 426.33 493.00 420.00 Z" />
<path fill="#050505" d=" M 607.00 422.00 C 611.66 422.00 616.33 422.00 621.00 422.00 C 621.00 438.33 621.00 454.67 621.00 471.00 C 616.33 471.00 611.66 471.00 607.00 471.00 C 607.00 454.67 607.00 438.33 607.00 422.00 Z" />
<path fill="#050505" d=" M 624.00 422.00 C 628.66 422.00 633.33 422.00 638.00 422.00 C 638.00 438.33 638.00 454.67 638.00 471.00 C 633.33 471.00 628.66 471.00 624.00 471.00 C 624.00 454.67 624.00 438.33 624.00 422.00 Z" />
<path fill="#050505" d=" M 641.00 422.00 C 645.66 422.00 650.33 422.00 655.00 422.00 C 655.00 438.33 655.00 454.67 655.00 471.00 C 650.33 471.00 645.66 471.00 641.00 471.00 C 641.00 454.67 641.00 438.33 641.00 422.00 Z" />
<path fill="#050505" d=" M 658.00 422.00 C 663.33 422.00 668.66 422.00 674.00 422.00 C 674.00 438.33 674.00 454.67 674.00 471.00 C 668.66 471.00 663.33 471.00 658.00 471.00 C 658.00 454.67 658.00 438.33 658.00 422.00 Z" />
<path fill="#050505" d=" M 677.00 422.00 C 683.33 422.00 689.66 422.00 696.00 422.00 C 696.00 438.33 696.00 454.67 696.00 471.00 C 689.66 471.00 683.33 471.00 677.00 471.00 C 677.00 454.67 677.00 438.33 677.00 422.00 Z" />
<path fill="#050505" d=" M 493.00 443.00 C 497.66 443.00 502.33 443.00 507.00 443.00 C 507.00 452.33 507.00 461.67 507.00 471.00 C 502.33 471.00 497.66 471.00 493.00 471.00 C 493.00 461.67 493.00 452.33 493.00 443.00 Z" />
<path fill="#050505" d=" M 414.00 448.00 C 426.67 448.00 439.33 448.00 452.00 448.00 C 452.00 455.33 452.00 462.67 452.00 470.00 C 439.33 470.00 426.67 470.00 414.00 470.00 C 414.00 462.67 414.00 455.33 414.00 448.00 Z" />
</svg>
