<?xml version="1.0" standalone="no"?>
<!DOCTYPE svg PUBLIC "-//W3C//DTD SVG 20010904//EN"
 "http://www.w3.org/TR/2001/REC-SVG-20010904/DTD/svg10.dtd">
<svg version="1.0" xmlns="http://www.w3.org/2000/svg"
 width="900.000000pt" height="579.000000pt" viewBox="0 0 900.000000 579.000000"
 preserveAspectRatio="xMidYMid meet">
<metadata>
Created by potrace 1.12, written by Peter Selinger 2001-2015
</metadata>
<g transform="translate(0.000000,579.000000) scale(0.100000,-0.100000)"
fill="#000000" stroke="none">
<path d="M30 4975 l0 -785 810 0 810 0 0 220 0 220 585 0 585 0 0 210 0 210
145 0 145 0 0 355 0 355 -1540 0 -1540 0 0 -785z"/>
<path d="M2840 4830 l0 -200 135 0 135 0 0 200 0 200 -135 0 -135 0 0 -200z"/>
<path d="M1670 4210 l0 -400 640 0 640 0 0 125 0 125 -120 0 -120 0 0 275 0
275 -520 0 -520 0 0 -400z"/>
<path d="M2730 4345 l0 -265 120 0 120 0 0 -365 0 -365 685 0 685 0 0 65 0 65
-615 0 -615 0 0 565 0 565 -190 0 -190 0 0 -265z"/>
<path d="M30 3975 l0 -195 510 0 510 0 0 195 0 195 -510 0 -510 0 0 -195z"/>
<path d="M1670 3570 l0 -220 640 0 640 0 0 220 0 220 -640 0 -640 0 0 -220z"/>
<path d="M30 3350 l0 -410 125 0 125 0 0 365 0 365 385 0 385 0 0 45 0 45
-510 0 -510 0 0 -410z"/>
<path d="M300 3505 l0 -145 375 0 375 0 0 145 0 145 -375 0 -375 0 0 -145z"/>
<path d="M6570 3500 c0 -17 -7 -20 -40 -20 l-40 0 0 -960 0 -960 190 0 190 0
0 980 0 980 -150 0 c-143 0 -150 -1 -150 -20z"/>
<path d="M6900 2530 l0 -990 -105 0 -105 0 0 -620 0 -620 305 0 305 0 0 -130
0 -130 835 0 835 0 0 1340 0 1340 -405 0 -405 0 0 380 0 380 -55 0 c-48 0 -55
2 -55 20 0 20 -7 20 -575 20 l-575 0 0 -990z"/>
<path d="M4370 3220 l0 -260 110 0 110 0 0 95 0 95 380 0 380 0 0 35 c0 34 -1
35 -40 35 l-40 0 0 130 0 130 -450 0 -450 0 0 -260z"/>
<path d="M5290 3360 l0 -120 40 0 40 0 0 -50 0 -50 230 0 230 0 0 -550 0 -550
105 0 105 0 0 -240 0 -240 210 0 210 0 0 960 0 960 -585 0 -585 0 0 -120z"/>
<path d="M300 3140 l0 -200 375 0 375 0 0 200 0 200 -375 0 -375 0 0 -200z"/>
<path d="M1680 2824 l0 -506 115 -114 114 -114 601 0 600 0 0 620 0 620 -715
0 -715 0 0 -506z"/>
<path d="M3130 2445 l0 -885 290 0 290 0 0 885 0 885 -290 0 -290 0 0 -885z"/>
<path d="M3730 2445 l0 -885 305 0 305 0 0 885 0 885 -305 0 -305 0 0 -885z"/>
<path d="M4610 3030 l0 -90 -125 0 -125 0 0 -450 0 -450 215 0 215 0 0 -240 0
-240 190 0 190 0 0 780 0 780 -280 0 -280 0 0 -90z"/>
<path d="M5190 2340 l0 -780 200 0 200 0 0 240 0 240 110 0 110 0 0 540 0 540
-310 0 -310 0 0 -780z"/>
<path d="M30 2720 l0 -200 510 0 510 0 0 200 0 200 -510 0 -510 0 0 -200z"/>
<path d="M30 2295 l0 -195 400 0 401 0 109 109 110 109 0 86 0 86 -510 0 -510
0 0 -195z"/>
<path d="M1920 1875 l0 -205 54 -55 53 -55 117 0 116 0 0 260 0 260 -170 0
-170 0 0 -205z"/>
<path d="M2280 1820 l0 -260 190 0 190 0 0 260 0 260 -190 0 -190 0 0 -260z"/>
<path d="M2680 1820 l0 -260 215 0 215 0 0 260 0 260 -215 0 -215 0 0 -260z"/>
<path d="M30 1870 l0 -200 395 0 395 0 0 200 0 200 -395 0 -395 0 0 -200z"/>
<path d="M4360 1790 l0 -230 200 0 200 0 0 230 0 230 -200 0 -200 0 0 -230z"/>
<path d="M5610 1790 l0 -230 200 0 200 0 0 230 0 230 -200 0 -200 0 0 -230z"/>
<path d="M30 1375 l0 -275 250 0 250 0 0 75 0 75 145 0 145 0 0 200 0 200
-395 0 -395 0 0 -275z"/>
<path d="M1965 1337 c-11 -12 -35 -33 -53 -46 -32 -24 -32 -25 -32 -107 l0
-83 53 -56 54 -55 483 0 484 0 53 56 53 55 0 76 0 75 -54 54 -53 54 -484 0
-484 0 -20 -23z"/>
<path d="M550 1030 l0 -200 135 0 135 0 0 200 0 200 -135 0 -135 0 0 -200z"/>
<path d="M30 955 l0 -125 250 0 250 0 0 125 0 125 -250 0 -250 0 0 -125z"/>
<path d="M30 340 l0 -310 40 0 40 0 0 150 0 150 115 0 115 0 0 160 0 160 -155
0 -155 0 0 -310z"/>
<path d="M360 480 l0 -170 -115 0 -115 0 0 -140 0 -140 225 0 225 0 0 310 0
310 -110 0 -110 0 0 -170z"/>
<path d="M600 530 l0 -120 730 0 730 0 0 120 0 120 -730 0 -730 0 0 -120z"/>
<path d="M2080 340 l0 -310 380 0 380 0 0 180 0 180 -85 0 -85 0 0 130 0 130
-295 0 -295 0 0 -310z"/>
<path d="M2690 530 l0 -120 125 0 125 0 0 120 0 120 -125 0 -125 0 0 -120z"/>
<path d="M3130 380 l0 -270 150 0 150 0 0 270 0 270 -150 0 -150 0 0 -270z"/>
<path d="M3450 380 l0 -270 225 0 225 0 0 270 0 270 -225 0 -225 0 0 -270z"/>
<path d="M3930 380 l0 -270 205 0 205 0 0 270 0 270 -205 0 -205 0 0 -270z"/>
<path d="M4360 340 l0 -310 190 0 190 0 0 310 0 310 -190 0 -190 0 0 -310z"/>
<path d="M4760 340 l0 -310 210 0 210 0 0 310 0 310 -210 0 -210 0 0 -310z"/>
<path d="M5200 280 l0 -250 195 0 195 0 0 250 0 250 -195 0 -195 0 0 -250z"/>
<path d="M5610 280 l0 -250 205 0 205 0 0 200 0 200 80 0 80 0 0 50 0 50 -285
0 -285 0 0 -250z"/>
<path d="M6350 495 l0 -35 65 0 c58 0 65 -2 65 -20 0 -19 7 -20 95 -20 l95 0
0 55 0 55 -160 0 -160 0 0 -35z"/>
<path d="M600 210 l0 -180 180 0 180 0 0 180 0 180 -180 0 -180 0 0 -180z"/>
<path d="M980 210 l0 -180 155 0 155 0 0 180 0 180 -155 0 -155 0 0 -180z"/>
<path d="M1310 210 l0 -180 205 0 205 0 0 180 0 180 -205 0 -205 0 0 -180z"/>
<path d="M1740 210 l0 -180 160 0 160 0 0 180 0 180 -160 0 -160 0 0 -180z"/>
</g>
</svg>
