<?xml version="1.0" standalone="no"?>
<!DOCTYPE svg PUBLIC "-//W3C//DTD SVG 20010904//EN"
 "http://www.w3.org/TR/2001/REC-SVG-20010904/DTD/svg10.dtd">
<svg version="1.0" xmlns="http://www.w3.org/2000/svg"
 width="986.000000pt" height="550.000000pt" viewBox="0 0 986.000000 550.000000"
 preserveAspectRatio="xMidYMid meet">
<metadata>
Created by potrace 1.12, written by Peter Selinger 2001-2015
</metadata>
<g transform="translate(0.000000,550.000000) scale(0.100000,-0.100000)"
fill="#000000" stroke="none">
<path d="M300 4145 l0 -1095 270 0 270 0 0 255 0 255 95 0 95 0 0 275 0 275
300 0 300 0 0 565 0 565 -665 0 -665 0 0 -1095z"/>
<path d="M1660 4675 l0 -565 373 0 c325 0 378 2 417 17 36 14 90 18 283 21
l237 4 0 114 0 114 120 0 120 0 0 130 0 130 125 0 125 0 0 300 0 300 -900 0
-900 0 0 -565z"/>
<path d="M3490 4940 l0 -300 195 0 195 0 0 -135 0 -135 105 0 105 0 0 -110 0
-110 165 0 165 0 0 545 0 545 -465 0 -465 0 0 -300z"/>
<path d="M4850 5075 l0 -165 115 0 115 0 0 165 0 165 -115 0 -115 0 0 -165z"/>
<path d="M5110 4695 l0 -545 465 0 465 0 0 545 0 545 -465 0 -465 0 0 -545z"/>
<path d="M6070 4695 l0 -545 285 0 285 0 0 130 0 130 100 0 100 0 0 135 0 135
105 0 105 0 0 280 0 280 -490 0 -490 0 0 -545z"/>
<path d="M7080 4695 l0 -545 195 0 195 0 0 545 0 545 -195 0 -195 0 0 -545z"/>
<path d="M7500 4695 l0 -545 285 0 285 0 0 125 0 125 80 0 80 0 0 120 0 120
100 0 100 0 0 300 0 300 -465 0 -465 0 0 -545z"/>
<path d="M8460 4680 l0 -560 -85 0 -85 0 0 -680 0 -680 765 0 765 0 0 1240 0
1240 -680 0 -680 0 0 -560z"/>
<path d="M4850 4720 l0 -160 115 0 115 0 0 160 0 160 -115 0 -115 0 0 -160z"/>
<path d="M6870 4400 l0 -250 90 0 90 0 0 250 0 250 -90 0 -90 0 0 -250z"/>
<path d="M3490 4380 l0 -230 80 0 80 0 0 230 0 230 -80 0 -80 0 0 -230z"/>
<path d="M3680 4380 l0 -230 85 0 85 0 0 230 0 230 -85 0 -85 0 0 -230z"/>
<path d="M8260 4490 l0 -120 -80 0 -80 0 0 -110 0 -110 165 0 165 0 0 230 0
230 -85 0 -85 0 0 -120z"/>
<path d="M4850 4340 l0 -190 115 0 115 0 0 190 0 190 -115 0 -115 0 0 -190z"/>
<path d="M6670 4265 l0 -115 85 0 85 0 0 115 0 115 -85 0 -85 0 0 -115z"/>
<path d="M3000 4250 l0 -100 105 0 105 0 0 100 0 100 -105 0 -105 0 0 -100z"/>
<path d="M3880 4245 l0 -95 90 0 90 0 0 95 0 95 -90 0 -90 0 0 -95z"/>
<path d="M1060 3575 c0 -416 2 -505 13 -505 39 0 251 95 267 119 3 5 20 16 38
25 17 9 32 20 32 25 0 5 9 11 20 14 20 5 20 14 20 416 l0 411 -195 0 -195 0 0
-505z"/>
<path d="M1480 3705 c0 -319 2 -375 14 -375 8 0 40 25 71 55 32 30 60 55 63
55 3 0 29 24 58 53 30 28 74 70 99 92 l44 40 1 228 0 227 -175 0 -175 0 0
-375z"/>
<path d="M1860 3880 c0 -127 4 -200 10 -200 6 0 28 17 50 38 21 20 74 69 116
107 42 39 95 88 118 111 24 22 50 43 59 47 9 3 17 11 17 17 0 5 7 10 15 10 9
0 18 7 21 15 4 8 12 15 19 15 11 0 25 20 25 36 0 2 -101 4 -225 4 l-225 0 0
-200z"/>
<path d="M2760 3575 c-31 -8 -101 -30 -155 -50 -55 -20 -106 -38 -112 -40 -10
-3 -13 -62 -13 -250 l0 -245 -110 0 -110 0 0 -245 0 -245 110 0 110 0 0 -239
0 -239 35 -16 c72 -34 289 -96 338 -96 16 0 17 47 17 840 l0 840 -27 -1 c-16
0 -53 -7 -83 -14z"/>
<path d="M2900 3440 l0 -150 80 0 80 0 0 150 0 150 -80 0 -80 0 0 -150z"/>
<path d="M3090 3425 l0 -165 -95 0 -95 0 0 -510 0 -510 95 0 95 0 0 -165 0
-165 85 0 85 0 0 840 0 840 -85 0 -85 0 0 -165z"/>
<path d="M3290 3305 l0 -285 80 0 80 0 0 285 0 285 -80 0 -80 0 0 -285z"/>
<path d="M3480 3290 l0 -300 -95 0 -95 0 0 -240 0 -240 95 0 95 0 0 -300 0
-300 190 0 190 0 0 840 0 840 -190 0 -190 0 0 -300z"/>
<path d="M3890 2750 l0 -840 200 0 200 0 0 840 0 840 -200 0 -200 0 0 -840z"/>
<path d="M4320 3175 l0 -415 100 0 100 0 0 415 0 415 -100 0 -100 0 0 -415z"/>
<path d="M5690 3175 l0 -415 180 0 180 0 0 415 0 415 -180 0 -180 0 0 -415z"/>
<path d="M6080 3175 l0 -415 185 0 185 0 0 415 0 415 -185 0 -185 0 0 -415z"/>
<path d="M6480 3420 l0 -170 85 0 85 0 0 170 0 170 -85 0 -85 0 0 -170z"/>
<path d="M6680 3405 l0 -185 -100 0 -100 0 0 -230 0 -230 185 0 185 0 0 415 0
415 -85 0 -85 0 0 -185z"/>
<path d="M6880 2750 l0 -840 90 0 90 0 0 180 0 180 100 0 100 0 0 660 0 660
-190 0 -190 0 0 -840z"/>
<path d="M7290 3175 l0 -415 185 0 185 0 0 275 0 275 -100 0 -100 0 0 140 0
140 -85 0 -85 0 0 -415z"/>
<path d="M7490 3465 l0 -125 85 0 85 0 0 125 0 125 -85 0 -85 0 0 -125z"/>
<path d="M7690 3465 l0 -125 70 0 70 0 0 125 0 125 -70 0 -70 0 0 -125z"/>
<path d="M870 3290 l0 -240 80 0 80 0 0 240 0 240 -80 0 -80 0 0 -240z"/>
<path d="M2380 3430 c-30 -17 -70 -38 -87 -47 l-33 -17 0 -173 0 -173 95 0 95
0 0 220 c0 121 -3 220 -7 220 -5 0 -33 -14 -63 -30z"/>
<path d="M2171 3299 c-18 -16 -44 -37 -57 -46 l-24 -15 0 -239 0 -239 70 0 70
0 0 285 c0 225 -3 285 -13 285 -7 0 -28 -14 -46 -31z"/>
<path d="M7690 3035 l0 -275 70 0 70 0 0 275 0 275 -70 0 -70 0 0 -275z"/>
<path d="M2003 3141 c-71 -74 -93 -100 -93 -110 0 -6 -4 -11 -10 -11 -6 0 -10
-50 -10 -130 l0 -130 85 0 85 0 0 210 c0 127 -4 210 -10 210 -5 0 -26 -18 -47
-39z"/>
<path d="M1821 2908 c-8 -13 -19 -32 -26 -43 -6 -11 -23 -39 -38 -62 -30 -48
-30 -48 28 -148 20 -33 38 -68 42 -77 3 -10 12 -18 19 -18 11 0 14 34 14 185
0 142 -3 185 -13 185 -7 0 -19 -10 -26 -22z"/>
<path d="M1892 2601 l4 -129 41 -43 c23 -24 55 -59 72 -76 17 -18 35 -33 41
-33 6 0 10 71 10 205 l0 205 -86 0 -86 0 4 -129z"/>
<path d="M2092 2494 c3 -209 5 -236 20 -245 9 -5 24 -16 32 -24 8 -8 18 -15
23 -15 5 0 15 -9 23 -20 37 -51 40 -31 40 260 l0 280 -71 0 -71 0 4 -236z"/>
<path d="M4320 2320 l0 -410 100 0 100 0 0 410 0 410 -100 0 -100 0 0 -410z"/>
<path d="M5690 2630 l0 -100 180 0 180 0 0 100 0 100 -180 0 -180 0 0 -100z"/>
<path d="M6080 2320 l0 -410 80 0 80 0 0 410 0 410 -80 0 -80 0 0 -410z"/>
<path d="M6270 2320 l0 -410 190 0 190 0 0 410 0 410 -190 0 -190 0 0 -410z"/>
<path d="M6680 2320 l0 -410 85 0 85 0 0 410 0 410 -85 0 -85 0 0 -410z"/>
<path d="M7290 2320 l0 -410 85 0 85 0 0 300 0 300 100 0 100 0 0 110 0 110
-185 0 -185 0 0 -410z"/>
<path d="M7690 2620 l0 -110 70 0 70 0 0 110 0 110 -70 0 -70 0 0 -110z"/>
<path d="M8290 2489 c0 -161 4 -248 11 -262 7 -12 34 -55 60 -95 27 -40 49
-77 49 -82 0 -6 5 -10 10 -10 6 0 10 -5 10 -11 0 -9 87 -148 110 -176 5 -7 10
-16 10 -21 0 -4 8 -17 18 -28 9 -11 26 -36 36 -57 11 -20 23 -37 28 -37 4 0 8
-7 8 -15 0 -8 4 -15 9 -15 5 0 13 -13 19 -28 5 -16 16 -35 23 -43 8 -8 19 -24
26 -34 70 -116 118 -191 125 -193 4 -2 8 -8 8 -13 0 -11 91 -152 104 -161 6
-4 203 -8 439 -8 l427 0 0 765 0 765 -765 0 -765 0 0 -241z"/>
<path d="M5690 2375 l0 -125 180 0 180 0 0 125 0 125 -180 0 -180 0 0 -125z"/>
<path d="M3290 2195 l0 -285 80 0 80 0 0 285 0 285 -80 0 -80 0 0 -285z"/>
<path d="M7490 2195 l0 -285 85 0 85 0 0 285 0 285 -85 0 -85 0 0 -285z"/>
<path d="M7690 2375 l0 -105 70 0 70 0 0 105 0 105 -70 0 -70 0 0 -105z"/>
<path d="M2260 2300 c0 -109 4 -170 10 -170 10 0 90 -49 100 -61 9 -11 49 -29
64 -29 14 0 16 27 16 215 l0 215 -95 0 -95 0 0 -170z"/>
<path d="M300 2365 l0 -85 135 0 135 0 0 85 0 85 -135 0 -135 0 0 -85z"/>
<path d="M600 2365 l0 -85 120 0 120 0 0 85 0 85 -120 0 -120 0 0 -85z"/>
<path d="M870 2365 l0 -85 245 0 c194 0 245 3 245 13 0 7 -15 20 -32 29 -18 8
-64 32 -103 51 -89 46 -207 77 -290 77 l-65 0 0 -85z"/>
<path d="M300 1255 l0 -995 585 0 585 0 0 979 c0 971 0 980 -20 986 -11 3 -20
11 -20 16 0 5 -222 9 -565 9 l-565 0 0 -995z"/>
<path d="M7690 2075 l0 -165 70 0 70 0 0 165 0 165 -70 0 -70 0 0 -165z"/>
<path d="M5690 2065 l0 -155 180 0 180 0 0 155 0 155 -180 0 -180 0 0 -155z"/>
<path d="M7090 2065 l0 -155 85 0 85 0 0 155 0 155 -85 0 -85 0 0 -155z"/>
<path d="M2900 2060 l0 -150 80 0 80 0 0 150 0 150 -80 0 -80 0 0 -150z"/>
<path d="M1507 2153 c-4 -3 -7 -233 -7 -510 l0 -503 280 0 280 0 0 260 c0 144
-4 260 -9 260 -5 0 -51 41 -102 90 -52 50 -155 149 -229 221 -223 215 -200
195 -213 182z"/>
<path d="M8297 2153 c-4 -3 -7 -431 -7 -950 l0 -943 765 0 765 0 0 455 0 455
-438 0 c-431 0 -438 0 -455 21 -10 11 -23 31 -29 45 -6 13 -15 24 -19 24 -4 0
-10 11 -13 25 -4 14 -11 25 -16 25 -6 0 -10 5 -10 12 0 6 -11 26 -25 44 -14
18 -25 37 -25 41 0 5 -8 18 -17 29 -10 10 -27 36 -38 57 -11 20 -23 37 -27 37
-5 0 -8 7 -8 15 0 8 -4 15 -9 15 -5 0 -12 11 -15 25 -4 14 -11 25 -16 25 -6 0
-10 6 -10 13 0 7 -8 22 -19 33 -10 11 -22 30 -25 42 -4 12 -12 22 -17 22 -5 0
-9 7 -9 15 0 8 -4 15 -10 15 -5 0 -10 7 -10 15 0 8 -4 15 -9 15 -5 0 -12 11
-15 25 -4 14 -11 25 -16 25 -6 0 -10 5 -10 12 0 6 -11 26 -25 44 -14 18 -25
37 -25 41 0 5 -8 18 -17 29 -10 11 -27 36 -37 57 -11 20 -23 37 -28 37 -4 0
-8 4 -8 9 0 13 -53 100 -61 101 -3 0 -9 -3 -12 -7z"/>
<path d="M2090 1370 l0 -230 80 0 80 0 0 173 0 173 -42 37 c-24 21 -53 46 -65
57 -12 11 -29 20 -38 20 -13 0 -15 -30 -15 -230z"/>
<path d="M2280 1280 l0 -170 -390 0 -390 0 0 -425 0 -425 605 0 605 0 0 545 0
545 -100 0 c-76 0 -115 5 -162 22 -68 23 -108 45 -121 65 -4 7 -17 13 -27 13
-19 0 -20 -8 -20 -170z"/>
<path d="M2740 805 l0 -545 165 0 165 0 0 545 0 545 -165 0 -165 0 0 -545z"/>
<path d="M3100 805 l0 -545 265 0 265 0 0 545 0 545 -265 0 -265 0 0 -545z"/>
<path d="M3660 1195 l0 -155 90 0 90 0 0 155 0 155 -90 0 -90 0 0 -155z"/>
<path d="M3870 1180 l0 -170 -105 0 -105 0 0 -375 0 -375 495 0 495 0 0 290 0
290 95 0 95 0 0 95 0 95 -200 0 -200 0 0 160 0 160 -285 0 -285 0 0 -170z"/>
<path d="M4470 1205 l0 -145 85 0 85 0 0 145 0 145 -85 0 -85 0 0 -145z"/>
<path d="M4670 1205 l0 -145 85 0 85 0 0 145 0 145 -85 0 -85 0 0 -145z"/>
<path d="M4870 1205 l0 -145 105 0 105 0 0 145 0 145 -105 0 -105 0 0 -145z"/>
<path d="M5510 1095 l0 -255 80 0 80 0 0 255 0 255 -80 0 -80 0 0 -255z"/>
<path d="M5700 805 l0 -545 185 0 185 0 0 545 0 545 -185 0 -185 0 0 -545z"/>
<path d="M6100 805 l0 -545 165 0 165 0 0 545 0 545 -165 0 -165 0 0 -545z"/>
<path d="M7710 1235 l0 -115 70 0 70 0 0 115 0 115 -70 0 -70 0 0 -115z"/>
<path d="M7880 805 l0 -545 190 0 190 0 0 545 0 545 -190 0 -190 0 0 -545z"/>
<path d="M7710 675 l0 -415 70 0 70 0 0 415 0 415 -70 0 -70 0 0 -415z"/>
<path d="M4870 935 l0 -95 105 0 105 0 0 95 0 95 -105 0 -105 0 0 -95z"/>
<path d="M4680 535 l0 -275 200 0 200 0 0 275 0 275 -200 0 -200 0 0 -275z"/>
<path d="M5510 700 l0 -110 80 0 80 0 0 110 0 110 -80 0 -80 0 0 -110z"/>
<path d="M6730 520 l0 -260 75 0 75 0 0 260 0 260 -75 0 -75 0 0 -260z"/>
<path d="M6910 520 l0 -260 75 0 75 0 0 260 0 260 -75 0 -75 0 0 -260z"/>
<path d="M7090 520 l0 -260 80 0 80 0 0 260 0 260 -80 0 -80 0 0 -260z"/>
<path d="M7280 520 l0 -260 85 0 85 0 0 260 0 260 -85 0 -85 0 0 -260z"/>
<path d="M7480 520 l0 -260 100 0 100 0 0 260 0 260 -100 0 -100 0 0 -260z"/>
<path d="M5510 410 l0 -150 80 0 80 0 0 150 0 150 -80 0 -80 0 0 -150z"/>
</g>
</svg>
