<?xml version="1.0" encoding="UTF-8" ?>
<!DOCTYPE svg PUBLIC "-//W3C//DTD SVG 1.1//EN" "http://www.w3.org/Graphics/SVG/1.1/DTD/svg11.dtd">
<svg width="986pt" height="550pt" viewBox="0 0 986 550" version="1.1" xmlns="http://www.w3.org/2000/svg">
<path fill="#ffffff" d=" M 0.00 0.00 L 986.00 0.00 L 986.00 550.00 L 0.00 550.00 L 0.00 0.00 Z" />
<path fill="#000000" d=" M 30.00 26.00 C 74.33 26.00 118.66 25.99 163.00 26.00 C 163.00 63.67 163.01 101.33 162.99 139.00 C 143.00 139.00 123.00 139.00 103.01 139.00 C 102.99 157.33 103.01 175.65 102.99 193.98 C 96.66 193.98 90.34 194.00 84.01 194.01 C 83.98 211.01 84.02 228.00 83.99 245.00 C 66.00 245.00 48.00 245.01 30.00 245.00 C 30.00 172.00 30.00 99.00 30.00 26.00 Z" />
<path fill="#000000" d=" M 166.01 26.00 C 226.00 26.00 286.00 25.99 346.00 26.01 C 346.00 46.00 346.00 65.99 346.00 85.98 C 337.66 85.99 329.34 86.00 321.02 86.02 C 321.00 94.01 321.01 102.00 320.99 109.99 C 312.99 110.00 305.00 109.99 297.01 110.01 C 297.00 118.35 296.99 126.68 296.98 135.02 C 283.32 135.04 269.64 134.58 255.99 135.19 C 249.57 135.86 243.48 138.48 236.97 138.59 C 213.33 139.70 189.66 138.68 166.00 139.00 C 166.00 101.33 165.99 63.67 166.01 26.00 Z" />
<path fill="#000000" d=" M 349.01 26.00 C 380.00 26.00 411.00 25.99 442.00 26.00 C 442.00 62.34 442.01 98.67 441.99 135.00 C 430.99 134.99 420.00 135.00 409.01 135.00 C 409.00 126.67 408.99 118.35 408.98 110.02 C 401.99 110.01 395.00 109.99 388.01 109.98 C 387.99 101.99 388.00 94.00 387.99 86.00 C 374.99 86.00 362.00 86.00 349.00 86.00 C 348.99 66.00 348.99 46.00 349.01 26.00 Z" />
<path fill="#000000" d=" M 485.00 26.00 C 492.66 25.99 500.33 25.99 508.00 26.00 C 507.99 37.00 508.00 48.00 508.00 59.00 C 500.32 59.01 492.66 59.01 485.00 59.00 C 485.00 48.00 485.00 37.00 485.00 26.00 Z" />
<path fill="#000000" d=" M 511.01 26.00 C 542.00 26.00 573.00 25.99 604.00 26.00 C 604.00 62.34 604.01 98.67 603.99 135.00 C 573.00 135.00 542.00 135.01 511.00 135.00 C 510.99 98.66 510.99 62.33 511.01 26.00 Z" />
<path fill="#000000" d=" M 607.01 26.00 C 639.67 26.00 672.33 25.99 705.00 26.00 C 705.00 44.66 705.00 63.32 705.00 81.98 C 697.99 81.99 691.00 82.00 684.01 82.02 C 683.99 91.00 684.00 99.99 683.99 108.99 C 677.32 109.00 670.67 109.01 664.02 109.02 C 663.99 117.68 663.99 126.34 663.99 135.00 C 644.99 135.00 626.00 135.01 607.01 135.00 C 606.99 98.66 606.99 62.33 607.01 26.00 Z" />
<path fill="#000000" d=" M 708.01 26.00 C 721.00 26.00 733.99 26.00 746.99 26.00 C 747.00 62.33 747.00 98.67 746.99 135.00 C 733.99 135.00 721.00 134.99 708.01 135.00 C 707.99 98.67 707.99 62.33 708.01 26.00 Z" />
<path fill="#000000" d=" M 750.01 26.00 C 781.00 26.00 812.00 25.99 843.00 26.00 C 843.00 45.99 843.00 65.98 842.99 85.98 C 836.32 85.99 829.67 86.01 823.02 86.02 C 822.99 94.01 823.00 101.99 822.99 109.98 C 817.65 109.99 812.33 110.01 807.01 110.02 C 806.99 118.34 806.98 126.67 806.98 135.00 C 787.99 135.00 768.99 135.01 750.01 135.00 C 749.99 98.66 749.99 62.33 750.01 26.00 Z" />
<path fill="#000000" d=" M 846.00 26.00 C 891.33 25.99 936.66 26.00 982.00 26.00 C 982.00 108.67 982.00 191.33 982.00 274.00 C 931.00 274.00 880.00 274.00 829.00 274.00 C 829.00 228.67 828.99 183.35 829.00 138.02 C 834.65 138.00 840.32 138.00 846.00 137.98 C 846.01 100.66 845.99 63.33 846.00 26.00 Z" />
<path fill="#000000" d=" M 485.00 62.00 C 492.66 62.00 500.33 61.99 508.00 62.00 C 507.99 72.67 508.00 83.33 508.00 94.00 C 500.32 94.00 492.66 94.00 485.00 94.00 C 484.99 83.33 484.99 72.67 485.00 62.00 Z" />
<path fill="#000000" d=" M 687.00 85.00 C 692.98 84.99 698.99 84.99 705.00 85.00 C 705.00 101.67 705.00 118.33 705.00 135.00 C 698.98 135.00 692.99 135.01 687.00 135.00 C 686.99 118.33 686.99 101.67 687.00 85.00 Z" />
<path fill="#000000" d=" M 349.00 89.00 C 361.00 89.01 373.00 89.00 385.00 89.00 C 385.00 104.33 385.00 119.67 385.00 135.00 C 373.00 134.99 361.00 134.99 349.00 135.00 C 349.00 119.67 349.00 104.33 349.00 89.00 Z" />
<path fill="#000000" d=" M 826.01 89.00 C 831.65 88.99 837.32 89.00 843.00 89.00 C 843.00 104.33 843.00 119.67 843.00 135.00 C 831.99 134.99 820.99 135.00 810.00 135.00 C 809.98 127.67 809.99 120.34 810.00 113.02 C 815.32 113.00 820.65 112.99 825.99 112.98 C 825.98 104.98 825.99 96.99 826.01 89.00 Z" />
<path fill="#000000" d=" M 485.00 97.00 C 492.66 96.99 500.33 96.99 508.00 97.00 C 507.99 109.67 507.99 122.33 508.00 135.00 C 500.32 135.01 492.66 135.00 485.00 135.00 C 485.00 122.33 485.00 109.67 485.00 97.00 Z" />
<path fill="#000000" d=" M 667.00 112.00 C 672.65 111.99 678.32 111.99 684.00 112.00 C 683.99 119.67 684.00 127.33 684.00 135.00 C 678.32 135.00 672.66 135.00 667.00 135.00 C 666.98 127.33 666.99 119.67 667.00 112.00 Z" />
<path fill="#000000" d=" M 300.00 113.00 C 307.00 113.00 314.00 113.00 321.00 113.00 C 321.00 120.33 321.00 127.66 321.00 135.00 C 313.99 134.99 306.99 134.99 300.00 135.00 C 299.99 127.66 299.99 120.33 300.00 113.00 Z" />
<path fill="#000000" d=" M 388.00 113.00 C 393.99 112.99 400.00 113.00 406.00 113.00 C 406.00 120.33 406.00 127.66 406.00 135.00 C 399.99 135.00 393.99 135.00 388.00 135.00 C 387.99 127.66 387.99 120.33 388.00 113.00 Z" />
<path fill="#000000" d=" M 106.00 142.00 C 119.00 142.00 132.00 142.00 145.00 142.00 C 144.98 169.29 145.06 196.58 144.94 223.87 C 133.10 232.28 120.49 240.36 106.10 243.45 C 105.88 209.63 106.04 175.82 106.00 142.00 Z" />
<path fill="#000000" d=" M 148.01 142.00 C 159.66 142.00 171.31 142.00 182.97 142.00 C 182.90 156.93 183.58 171.89 182.66 186.82 C 178.74 192.73 172.85 196.92 167.82 201.82 C 161.47 207.33 155.67 213.62 148.39 217.94 C 147.61 192.63 148.13 167.31 148.01 142.00 Z" />
<path fill="#000000" d=" M 185.97 142.00 C 201.32 141.94 216.68 141.78 232.02 142.62 C 228.27 146.73 223.67 149.91 219.48 153.53 C 208.12 162.91 198.23 173.95 186.41 182.79 C 185.92 169.20 185.97 155.60 185.97 142.00 Z" />
<path fill="#000000" d=" M 279.00 156.00 C 290.33 156.00 301.67 156.00 313.00 156.00 C 312.99 160.66 313.00 165.34 313.00 170.00 C 301.66 169.99 290.33 170.00 279.00 170.00 C 278.99 165.33 279.00 160.67 279.00 156.00 Z" />
<path fill="#000000" d=" M 349.00 156.00 C 360.33 156.00 371.66 156.00 383.00 156.00 C 382.99 160.66 383.00 165.34 383.00 170.00 C 371.66 169.99 360.33 170.00 349.00 170.00 C 348.98 165.33 349.00 160.67 349.00 156.00 Z" />
<path fill="#000000" d=" M 419.00 156.00 C 430.33 156.00 441.66 156.00 453.00 156.00 C 452.98 160.66 453.00 165.34 453.00 170.00 C 441.66 169.99 430.33 170.00 419.00 170.00 C 418.98 165.33 419.00 160.67 419.00 156.00 Z" />
<path fill="#000000" d=" M 499.00 156.00 C 510.33 156.00 521.66 156.00 533.00 156.00 C 532.98 160.66 533.00 165.34 533.00 170.00 C 521.66 169.99 510.33 170.00 499.00 170.00 C 498.98 165.33 499.00 160.67 499.00 156.00 Z" />
<path fill="#000000" d=" M 569.00 156.00 C 580.33 156.00 591.66 156.00 603.00 156.00 C 602.98 160.66 603.00 165.34 603.00 170.00 C 591.66 169.99 580.33 170.00 569.00 170.00 C 568.97 165.33 569.00 160.67 569.00 156.00 Z" />
<path fill="#000000" d=" M 639.00 156.00 C 650.33 156.00 661.66 156.00 673.00 156.00 C 672.97 160.66 673.00 165.34 673.00 170.00 C 661.66 169.99 650.33 170.00 639.00 170.00 C 638.97 165.33 639.00 160.67 639.00 156.00 Z" />
<path fill="#000000" d=" M 709.00 156.00 C 720.33 156.00 731.66 156.00 743.00 156.00 C 742.97 160.66 743.00 165.34 743.00 170.00 C 731.66 169.99 720.33 170.00 709.00 170.00 C 708.97 165.33 709.00 160.67 709.00 156.00 Z" />
<path fill="#000000" d=" M 248.03 202.04 C 260.78 197.56 273.34 192.00 286.93 190.64 C 287.06 246.85 287.01 303.07 286.96 359.29 C 273.56 357.23 260.41 353.61 247.99 348.14 C 247.97 332.09 248.03 316.05 247.99 300.01 C 240.66 299.99 233.33 300.00 226.00 299.99 C 226.00 283.66 225.99 267.34 226.00 251.01 C 233.33 251.00 240.66 251.00 247.99 250.99 C 248.03 234.67 247.96 218.36 248.03 202.04 Z" />
<path fill="#000000" d=" M 290.00 191.00 C 295.33 191.00 300.66 191.00 306.00 191.00 C 306.00 201.00 306.00 211.00 306.00 221.00 C 300.66 221.00 295.33 221.00 290.00 221.00 C 289.99 211.00 289.99 201.00 290.00 191.00 Z" />
<path fill="#000000" d=" M 309.01 191.00 C 314.66 190.99 320.33 190.99 326.00 191.00 C 326.00 247.00 326.00 303.00 326.00 359.00 C 320.33 359.00 314.67 359.00 309.01 359.00 C 308.99 348.00 309.01 337.01 308.99 326.01 C 302.65 326.00 296.33 326.00 290.00 325.99 C 290.00 292.00 289.99 258.01 290.00 224.01 C 296.33 224.00 302.66 224.00 308.99 223.99 C 309.00 212.99 308.99 202.00 309.01 191.00 Z" />
<path fill="#000000" d=" M 329.00 191.00 C 334.33 191.00 339.66 191.00 345.00 191.00 C 345.00 210.00 345.01 229.00 345.00 248.00 C 339.66 248.00 334.33 248.00 329.00 248.00 C 329.00 229.00 328.99 210.00 329.00 191.00 Z" />
<path fill="#000000" d=" M 348.00 191.00 C 360.66 191.00 373.33 191.01 386.00 191.00 C 386.00 247.00 386.00 303.00 386.00 359.00 C 373.33 358.99 360.66 358.99 348.00 359.00 C 348.00 339.01 348.00 319.01 348.00 299.02 C 341.66 299.00 335.33 299.00 329.00 298.99 C 329.00 282.99 328.99 267.00 329.00 251.01 C 335.33 251.00 341.66 251.00 348.00 250.99 C 348.00 230.99 348.00 210.99 348.00 191.00 Z" />
<path fill="#000000" d=" M 389.00 191.00 C 402.33 191.00 415.66 191.00 428.99 191.00 C 429.00 247.00 429.00 303.00 429.00 359.00 C 415.66 358.99 402.33 358.99 389.01 359.00 C 388.99 303.00 389.00 247.00 389.00 191.00 Z" />
<path fill="#000000" d=" M 432.00 191.00 C 438.66 191.00 445.33 191.00 452.00 191.00 C 452.00 209.00 452.00 227.00 452.00 245.00 C 445.33 245.00 438.66 245.00 432.00 245.00 C 431.99 227.00 431.99 209.00 432.00 191.00 Z" />
<path fill="#000000" d=" M 569.00 191.00 C 581.00 191.00 592.99 191.00 605.00 191.00 C 605.00 218.67 605.01 246.33 605.00 274.00 C 592.99 273.99 581.00 273.99 569.00 274.00 C 568.99 246.33 568.99 218.66 569.00 191.00 Z" />
<path fill="#000000" d=" M 608.00 190.99 C 620.33 191.00 632.66 191.00 645.00 191.00 C 645.00 218.67 645.00 246.33 645.00 274.01 C 632.66 273.99 620.33 273.99 608.00 274.00 C 607.99 246.33 607.99 218.66 608.00 190.99 Z" />
<path fill="#000000" d=" M 648.00 191.00 C 653.65 190.99 659.32 190.99 665.00 191.00 C 664.99 202.33 664.99 213.67 665.00 225.00 C 659.32 225.00 653.66 225.00 648.00 225.00 C 647.99 213.66 648.00 202.33 648.00 191.00 Z" />
<path fill="#000000" d=" M 668.01 191.00 C 673.65 190.99 679.32 190.99 685.00 191.00 C 685.00 218.67 685.00 246.34 685.00 274.01 C 672.66 273.99 660.33 273.99 648.00 274.00 C 647.99 258.67 647.99 243.34 648.00 228.02 C 654.66 228.00 661.32 227.99 667.99 227.98 C 667.99 215.65 668.00 203.33 668.01 191.00 Z" />
<path fill="#000000" d=" M 688.00 191.00 C 700.66 191.00 713.33 191.00 726.00 191.00 C 726.00 234.99 726.00 278.99 726.00 322.99 C 719.32 322.99 712.66 323.01 706.01 323.02 C 706.00 335.01 705.99 347.00 705.99 359.00 C 699.98 359.00 693.99 359.00 688.00 359.00 C 688.00 302.99 687.99 247.00 688.00 191.00 Z" />
<path fill="#000000" d=" M 729.00 190.99 C 741.33 191.00 753.66 191.00 766.00 191.00 C 766.00 218.67 766.00 246.33 766.00 274.01 C 753.66 273.99 741.33 273.99 729.00 274.00 C 728.99 246.33 728.99 218.66 729.00 190.99 Z" />
<path fill="#000000" d=" M 769.00 191.00 C 773.64 190.99 778.33 191.00 783.00 191.00 C 783.00 207.67 783.00 224.33 783.00 241.00 C 778.30 240.99 773.67 241.00 769.00 241.00 C 768.99 224.33 768.99 207.67 769.00 191.00 Z" />
<path fill="#000000" d=" M 87.00 197.00 C 92.33 197.00 97.66 197.00 103.00 197.00 C 103.00 213.00 103.01 229.00 103.00 245.00 C 97.66 245.00 92.33 245.00 87.00 245.00 C 87.00 229.00 86.99 213.00 87.00 197.00 Z" />
<path fill="#000000" d=" M 226.15 213.35 C 232.37 210.03 238.48 206.52 244.83 203.44 C 245.04 218.29 245.03 233.15 245.00 248.00 C 238.65 247.99 232.32 248.00 225.98 248.00 C 225.99 236.45 226.00 224.90 226.15 213.35 Z" />
<path fill="#000000" d=" M 209.00 225.97 C 213.48 222.63 217.89 219.17 222.68 216.27 C 223.20 235.51 222.98 254.76 222.99 274.00 C 218.32 273.99 213.66 274.00 209.00 274.00 C 209.01 257.99 208.98 241.98 209.00 225.97 Z" />
<path fill="#000000" d=" M 189.44 249.23 C 193.13 241.88 199.37 236.32 205.54 231.08 C 206.12 245.38 206.05 259.69 206.01 274.00 C 200.29 274.00 194.58 274.00 188.87 274.00 C 188.91 265.74 188.71 257.46 189.44 249.23 Z" />
<path fill="#000000" d=" M 146.00 239.00 C 154.00 238.98 162.00 238.98 170.00 239.01 C 169.99 243.33 170.00 247.67 170.00 252.00 C 162.00 252.01 154.00 252.01 146.00 251.99 C 145.99 247.65 146.00 243.33 146.00 239.00 Z" />
<path fill="#000000" d=" M 769.01 244.00 C 773.64 243.99 778.33 244.00 783.00 244.00 C 783.00 254.00 783.00 264.00 782.99 274.00 C 778.30 273.99 773.67 274.00 769.00 274.00 C 768.98 264.00 768.98 254.00 769.01 244.00 Z" />
<path fill="#000000" d=" M 432.00 248.00 C 438.66 248.00 445.33 248.00 452.00 248.00 C 452.00 266.00 452.00 284.00 452.00 302.00 C 445.33 302.00 438.66 302.00 432.00 302.00 C 431.99 284.00 431.99 266.00 432.00 248.00 Z" />
<path fill="#000000" d=" M 183.11 257.08 C 183.83 257.05 185.27 256.99 185.99 256.95 C 186.00 262.63 186.00 268.32 186.00 274.01 C 181.64 273.98 177.29 273.99 172.94 273.97 C 176.39 268.37 179.82 262.77 183.11 257.08 Z" />
<path fill="#000000" d=" M 173.94 277.04 C 177.96 277.02 181.98 277.00 186.00 277.00 C 186.00 282.68 185.99 288.37 185.98 294.06 C 185.31 293.99 183.96 293.86 183.29 293.80 C 180.29 288.14 177.13 282.58 173.94 277.04 Z" />
<path fill="#000000" d=" M 188.90 277.00 C 194.60 276.99 200.31 276.99 206.01 277.00 C 206.04 290.94 206.12 304.88 205.56 318.82 C 199.94 314.06 194.36 308.97 190.26 302.82 C 188.11 294.45 189.29 285.56 188.90 277.00 Z" />
<path fill="#000000" d=" M 209.01 277.00 C 213.66 276.99 218.33 277.00 222.99 277.00 C 222.98 295.92 223.21 314.84 222.67 333.76 C 218.47 330.93 214.00 328.21 210.74 324.30 C 207.23 308.84 209.59 292.71 209.01 277.00 Z" />
<path fill="#000000" d=" M 569.00 277.00 C 581.00 277.00 593.00 277.00 605.00 277.00 C 605.00 283.66 605.00 290.33 605.00 297.00 C 592.99 296.99 580.99 296.99 569.00 297.00 C 568.99 290.33 568.99 283.66 569.00 277.00 Z" />
<path fill="#000000" d=" M 608.00 277.00 C 613.32 276.99 618.66 276.99 624.00 277.00 C 624.00 304.33 624.00 331.66 624.00 359.00 C 618.66 359.00 613.33 359.00 608.00 359.00 C 607.99 331.66 607.99 304.33 608.00 277.00 Z" />
<path fill="#000000" d=" M 627.00 277.00 C 639.66 277.00 652.33 277.00 665.00 277.00 C 665.00 304.33 665.00 331.67 665.00 359.00 C 652.33 359.00 639.66 358.99 627.00 359.00 C 626.99 331.66 626.99 304.33 627.00 277.00 Z" />
<path fill="#000000" d=" M 668.00 277.00 C 673.65 276.99 679.32 276.99 684.99 277.00 C 685.01 304.33 685.00 331.66 685.00 359.00 C 679.32 358.99 673.66 359.00 668.01 359.00 C 667.99 331.66 667.99 304.33 668.00 277.00 Z" />
<path fill="#000000" d=" M 729.00 277.00 C 741.33 277.00 753.66 277.00 766.00 277.00 C 765.98 284.32 765.99 291.65 766.00 298.99 C 759.33 298.99 752.66 299.01 746.00 299.02 C 746.00 319.01 745.99 339.00 746.00 359.00 C 740.31 359.00 734.66 359.00 729.01 359.00 C 728.99 331.66 728.99 304.33 729.00 277.00 Z" />
<path fill="#000000" d=" M 769.00 277.00 C 773.64 276.99 778.34 277.00 783.00 277.00 C 782.99 284.33 782.99 291.66 783.00 299.00 C 778.30 298.99 773.67 299.00 769.00 299.00 C 768.99 291.66 768.99 284.33 769.00 277.00 Z" />
<path fill="#000000" d=" M 829.02 277.00 C 880.01 277.00 931.00 276.99 982.00 277.00 C 982.00 328.00 982.00 379.00 982.00 430.00 C 953.03 429.98 924.06 430.06 895.10 429.95 C 877.60 402.43 860.07 374.93 842.59 347.39 C 838.12 340.24 833.05 333.40 829.64 325.65 C 828.18 309.48 829.17 293.21 829.02 277.00 Z" />
<path fill="#000000" d=" M 569.01 300.00 C 581.00 300.00 593.00 300.00 605.00 300.00 C 605.00 308.33 605.00 316.66 604.99 325.00 C 592.99 324.99 580.99 324.99 569.00 325.00 C 568.98 316.66 568.99 308.33 569.01 300.00 Z" />
<path fill="#000000" d=" M 329.00 302.00 C 334.33 301.99 339.66 301.99 345.00 302.00 C 345.00 321.00 345.01 340.00 345.00 359.00 C 339.66 359.00 334.33 359.00 329.00 359.00 C 329.00 340.00 328.99 321.00 329.00 302.00 Z" />
<path fill="#000000" d=" M 749.00 302.00 C 754.65 301.99 760.32 301.99 766.00 302.00 C 766.00 321.00 766.00 340.00 766.00 359.00 C 760.31 358.99 754.66 359.00 749.00 359.00 C 748.99 340.00 748.99 321.00 749.00 302.00 Z" />
<path fill="#000000" d=" M 769.00 302.00 C 773.63 301.99 778.34 302.00 783.00 302.00 C 782.99 309.00 782.99 316.00 783.00 323.00 C 778.30 322.99 773.67 323.00 769.00 323.00 C 768.99 315.99 768.99 308.99 769.00 302.00 Z" />
<path fill="#000000" d=" M 225.99 303.00 C 232.32 302.99 238.66 303.00 245.00 303.00 C 244.99 317.59 245.09 332.18 244.86 346.77 C 238.13 344.37 232.34 340.10 226.18 336.59 C 226.02 325.39 225.99 314.19 225.99 303.00 Z" />
<path fill="#000000" d=" M 30.00 305.01 C 39.00 304.98 48.00 304.98 57.00 305.01 C 57.00 310.66 57.00 316.32 57.00 321.99 C 48.00 322.01 39.00 322.01 30.00 321.99 C 30.00 316.33 30.00 310.67 30.00 305.01 Z" />
<path fill="#000000" d=" M 60.00 305.01 C 68.00 304.99 76.00 304.98 84.00 305.01 C 84.00 310.66 84.00 316.32 84.00 321.99 C 76.00 322.00 68.00 322.01 60.00 321.99 C 59.99 316.32 60.00 310.67 60.00 305.01 Z" />
<path fill="#000000" d=" M 87.01 304.66 C 104.92 304.32 123.02 310.03 137.05 321.22 C 120.39 322.37 103.68 322.03 87.00 321.99 C 87.00 316.20 87.00 310.43 87.01 304.66 Z" />
<path fill="#000000" d=" M 432.00 305.00 C 438.66 304.99 445.33 304.99 452.00 305.00 C 452.00 323.00 452.00 341.00 452.00 359.00 C 445.33 359.00 438.66 359.00 432.00 359.00 C 431.99 341.00 431.99 323.00 432.00 305.00 Z" />
<path fill="#000000" d=" M 30.00 325.00 C 61.67 324.96 93.34 325.11 125.00 324.86 C 132.37 325.14 140.39 323.86 147.02 327.82 C 146.97 393.21 147.02 458.60 147.00 524.00 C 108.00 524.00 69.00 524.00 30.00 524.00 C 30.00 457.66 30.00 391.33 30.00 325.00 Z" />
<path fill="#000000" d=" M 769.00 326.00 C 773.64 325.99 778.34 326.00 783.00 326.00 C 782.99 337.00 782.99 348.00 783.00 359.00 C 778.30 358.99 773.67 359.00 769.00 359.00 C 769.00 347.99 768.99 337.00 769.00 326.00 Z" />
<path fill="#000000" d=" M 569.00 328.00 C 574.99 327.98 580.99 327.99 587.00 328.00 C 587.00 338.33 587.00 348.66 587.00 359.00 C 580.98 359.00 574.99 359.00 569.00 359.00 C 568.99 348.66 568.99 338.33 569.00 328.00 Z" />
<path fill="#000000" d=" M 590.00 328.00 C 593.75 328.00 601.25 328.00 605.00 328.00 C 605.00 338.33 605.00 348.66 605.00 359.00 C 601.25 359.00 593.75 359.00 590.00 359.00 C 589.99 348.66 589.99 338.33 590.00 328.00 Z" />
<path fill="#000000" d=" M 709.00 328.00 C 714.65 327.99 720.32 327.99 726.00 328.00 C 726.00 338.33 726.00 348.66 726.00 359.00 C 720.32 359.00 714.66 359.00 709.00 359.00 C 708.99 348.66 708.99 338.33 709.00 328.00 Z" />
<path fill="#000000" d=" M 290.00 329.00 C 295.33 328.99 300.66 328.99 306.00 329.00 C 306.00 339.00 306.00 349.00 306.00 359.00 C 300.66 358.99 295.33 358.99 290.00 359.00 C 289.99 349.00 289.99 339.00 290.00 329.00 Z" />
<path fill="#000000" d=" M 150.28 333.34 C 163.56 342.65 174.04 355.16 185.96 366.03 C 192.63 372.09 198.96 378.53 205.66 384.56 C 206.17 401.70 206.00 418.85 206.00 436.00 C 187.33 436.00 168.67 436.00 150.00 436.00 C 150.15 401.78 149.66 367.56 150.28 333.34 Z" />
<path fill="#000000" d=" M 829.72 332.99 C 832.47 336.07 834.78 339.49 837.07 342.92 C 855.97 373.00 875.03 402.97 894.11 432.93 C 923.40 433.08 952.70 432.95 982.00 433.01 C 982.00 463.33 982.00 493.66 982.00 524.00 C 931.00 524.00 880.00 524.00 829.00 524.00 C 828.97 470.66 829.06 417.33 828.95 364.00 C 828.91 353.65 829.06 343.31 829.72 332.99 Z" />
<path fill="#000000" d=" M 219.00 363.00 C 227.00 362.98 235.00 362.98 243.00 363.01 C 242.99 367.32 243.00 371.66 243.00 376.00 C 234.99 376.00 227.00 376.01 219.00 375.99 C 218.99 371.65 219.00 367.33 219.00 363.00 Z" />
<path fill="#000000" d=" M 569.00 380.00 C 580.33 380.00 591.66 380.00 603.00 380.00 C 602.98 384.65 603.00 389.34 603.00 394.00 C 591.66 393.99 580.33 394.00 569.00 394.00 C 568.97 389.32 569.00 384.67 569.00 380.00 Z" />
<path fill="#000000" d=" M 639.00 380.00 C 650.33 380.00 661.66 380.00 673.00 380.00 C 672.97 384.65 673.00 389.34 673.00 394.00 C 661.66 393.99 650.33 394.00 639.00 394.00 C 638.97 389.32 639.00 384.67 639.00 380.00 Z" />
<path fill="#000000" d=" M 709.00 380.00 C 720.33 380.00 731.66 380.00 743.00 380.00 C 742.97 384.65 743.00 389.34 743.00 394.00 C 731.66 393.99 720.33 394.00 709.00 394.00 C 708.97 389.32 709.00 384.67 709.00 380.00 Z" />
<path fill="#000000" d=" M 779.00 380.00 C 790.33 380.00 801.66 380.00 813.00 380.00 C 812.97 384.65 813.00 389.34 813.00 394.00 C 801.66 393.99 790.33 394.00 779.00 394.00 C 778.97 389.32 779.00 384.67 779.00 380.00 Z" />
<path fill="#000000" d=" M 209.31 389.22 C 214.74 392.67 220.81 395.98 224.47 401.44 C 225.52 412.93 225.00 424.48 225.03 436.00 C 219.68 435.99 214.34 435.99 209.00 436.00 C 208.98 420.40 208.87 404.81 209.31 389.22 Z" />
<path fill="#000000" d=" M 228.18 404.29 C 233.18 406.73 237.70 410.10 242.88 412.17 C 251.84 415.61 261.57 414.91 271.00 415.13 C 271.00 451.42 271.01 487.71 270.99 524.00 C 230.66 524.00 190.33 524.00 150.00 524.00 C 149.99 495.66 149.99 467.33 150.00 439.00 C 176.00 439.00 201.99 439.00 227.98 439.00 C 228.01 427.42 227.91 415.85 228.18 404.29 Z" />
<path fill="#000000" d=" M 274.01 415.00 C 283.66 414.99 293.33 414.98 302.99 415.00 C 303.00 451.33 303.01 487.66 302.99 524.00 C 293.33 524.00 283.67 524.01 274.01 524.00 C 273.99 487.66 273.99 451.33 274.01 415.00 Z" />
<path fill="#000000" d=" M 306.01 415.00 C 311.66 414.99 317.33 414.99 322.99 415.00 C 323.01 451.33 323.00 487.67 322.99 524.00 C 317.32 523.99 311.66 523.99 306.01 524.00 C 305.99 487.66 305.99 451.33 306.01 415.00 Z" />
<path fill="#000000" d=" M 326.01 415.00 C 331.66 414.99 337.33 414.99 342.99 415.00 C 343.01 451.33 343.00 487.67 342.99 524.00 C 337.32 523.99 331.66 523.99 326.01 524.00 C 325.99 487.66 325.99 451.33 326.01 415.00 Z" />
<path fill="#000000" d=" M 346.01 415.00 C 351.66 414.99 357.32 414.99 362.99 415.00 C 363.01 451.33 363.00 487.67 362.99 524.00 C 357.32 523.99 351.66 523.99 346.01 524.00 C 345.99 487.66 345.99 451.33 346.01 415.00 Z" />
<path fill="#000000" d=" M 366.00 415.00 C 371.99 414.98 378.00 414.99 384.00 415.00 C 384.00 425.33 384.00 435.66 384.00 446.00 C 377.99 446.00 372.00 446.00 366.00 446.00 C 365.99 435.66 365.99 425.33 366.00 415.00 Z" />
<path fill="#000000" d=" M 387.01 415.00 C 406.00 414.99 424.99 414.99 443.99 415.00 C 444.00 425.66 443.99 436.32 444.01 446.99 C 450.66 446.99 457.32 447.00 463.99 447.02 C 464.01 472.68 464.01 498.34 463.99 524.00 C 431.33 524.00 398.67 524.00 366.01 524.00 C 365.99 499.00 365.99 474.01 366.01 449.02 C 373.00 449.00 379.99 448.99 386.99 448.98 C 387.00 437.65 386.99 426.33 387.01 415.00 Z" />
<path fill="#000000" d=" M 447.00 415.00 C 452.66 414.99 458.32 414.99 463.99 415.00 C 464.00 424.66 464.01 434.33 464.00 444.00 C 458.32 443.99 452.66 444.00 447.01 444.00 C 446.99 434.33 446.98 424.66 447.00 415.00 Z" />
<path fill="#000000" d=" M 467.00 415.00 C 472.66 414.99 478.33 414.99 484.00 415.00 C 484.00 432.00 484.00 449.00 484.00 466.00 C 478.32 465.99 472.66 466.00 467.00 466.00 C 466.99 449.00 466.99 432.00 467.00 415.00 Z" />
<path fill="#000000" d=" M 487.00 415.00 C 493.99 414.99 500.99 414.99 508.00 415.00 C 507.99 424.66 508.00 434.33 508.00 444.00 C 500.99 443.99 493.99 443.99 487.00 444.00 C 486.99 434.33 486.99 424.66 487.00 415.00 Z" />
<path fill="#000000" d=" M 551.00 415.00 C 556.32 414.99 561.66 414.99 567.00 415.00 C 566.99 426.66 566.99 438.33 567.00 450.00 C 561.66 449.99 556.32 449.99 551.00 450.00 C 551.00 438.33 551.00 426.66 551.00 415.00 Z" />
<path fill="#000000" d=" M 570.01 415.00 C 582.33 415.00 594.66 415.00 606.99 415.00 C 607.00 451.33 607.00 487.67 606.99 524.00 C 594.66 523.99 582.33 523.99 570.01 524.00 C 569.99 487.66 569.99 451.33 570.01 415.00 Z" />
<path fill="#000000" d=" M 610.01 415.00 C 621.00 415.00 631.99 415.00 643.00 415.00 C 643.00 451.33 643.00 487.67 642.99 524.00 C 631.99 523.99 621.00 524.00 610.00 524.00 C 609.99 487.66 609.99 451.33 610.01 415.00 Z" />
<path fill="#000000" d=" M 646.00 415.00 C 648.75 415.00 654.25 415.00 657.00 415.00 C 656.99 418.99 656.99 422.99 657.00 427.00 C 654.25 427.00 648.75 427.00 646.00 427.00 C 645.98 422.99 645.98 418.99 646.00 415.00 Z" />
<path fill="#000000" d=" M 668.00 415.00 C 670.75 415.00 676.25 415.00 679.00 415.00 C 679.00 421.66 679.00 428.33 679.00 435.00 C 676.25 435.00 670.75 435.00 668.00 435.00 C 667.99 428.33 667.99 421.66 668.00 415.00 Z" />
<path fill="#000000" d=" M 771.00 415.00 C 775.64 414.98 780.33 415.00 785.00 415.00 C 784.99 422.66 785.00 430.33 785.00 438.00 C 780.30 437.98 775.67 438.00 771.00 438.00 C 770.98 430.32 770.99 422.66 771.00 415.00 Z" />
<path fill="#000000" d=" M 788.01 415.00 C 800.66 415.00 813.33 415.00 826.00 415.00 C 826.00 451.33 826.00 487.67 825.99 524.00 C 813.32 523.99 800.66 523.99 788.00 524.00 C 787.99 487.66 787.99 451.33 788.01 415.00 Z" />
<path fill="#000000" d=" M 646.00 430.00 C 648.75 430.00 654.25 430.00 657.00 430.00 C 656.97 434.31 657.00 438.66 657.00 443.00 C 654.25 443.00 648.75 443.00 646.00 443.00 C 645.97 438.65 645.99 434.33 646.00 430.00 Z" />
<path fill="#000000" d=" M 771.00 441.00 C 775.64 440.98 780.33 441.00 785.00 441.00 C 785.00 468.67 785.00 496.33 785.00 524.00 C 780.30 523.98 775.67 524.00 771.00 524.00 C 770.99 496.33 770.99 468.66 771.00 441.00 Z" />
<path fill="#000000" d=" M 646.00 446.00 C 648.75 446.00 654.25 446.00 657.00 446.00 C 657.00 448.75 657.00 454.25 657.00 457.00 C 654.25 457.00 648.75 457.00 646.00 457.00 C 646.00 454.25 646.00 448.75 646.00 446.00 Z" />
<path fill="#000000" d=" M 487.00 447.00 C 493.99 446.99 500.99 446.99 508.00 447.00 C 507.99 453.32 508.00 459.67 508.00 466.00 C 500.99 465.99 493.99 465.99 487.00 466.00 C 486.98 459.65 487.00 453.33 487.00 447.00 Z" />
<path fill="#000000" d=" M 551.00 453.00 C 556.33 452.99 561.66 452.99 567.00 453.00 C 566.97 457.31 567.00 461.66 567.00 466.00 C 561.66 465.99 556.32 465.99 551.00 466.00 C 550.98 461.65 550.99 457.33 551.00 453.00 Z" />
<path fill="#000000" d=" M 468.01 469.00 C 481.33 469.00 494.66 469.00 507.99 469.00 C 508.01 477.99 508.01 486.99 507.99 496.00 C 494.66 495.99 481.33 495.99 468.01 496.00 C 467.98 486.99 467.98 477.99 468.01 469.00 Z" />
<path fill="#000000" d=" M 551.00 469.00 C 556.33 468.99 561.66 468.99 567.00 469.00 C 566.99 476.33 566.99 483.66 567.00 491.00 C 561.66 490.99 556.32 490.99 551.00 491.00 C 550.99 483.66 550.99 476.33 551.00 469.00 Z" />
<path fill="#000000" d=" M 673.00 472.00 C 676.75 472.00 684.25 472.00 688.00 472.00 C 688.00 489.33 688.00 506.66 688.00 524.00 C 684.25 524.00 676.75 524.00 673.00 524.00 C 672.99 506.66 672.99 489.33 673.00 472.00 Z" />
<path fill="#000000" d=" M 691.00 472.00 C 694.75 472.00 702.25 472.00 706.00 472.00 C 706.00 489.33 706.00 506.66 706.00 524.00 C 702.25 524.00 694.75 524.00 691.00 524.00 C 690.99 506.66 690.99 489.33 691.00 472.00 Z" />
<path fill="#000000" d=" M 709.00 472.00 C 714.32 471.99 719.65 471.99 725.00 472.00 C 725.00 489.33 725.00 506.66 725.00 524.00 C 719.65 523.99 714.32 523.99 709.00 524.00 C 708.99 506.66 708.99 489.33 709.00 472.00 Z" />
<path fill="#000000" d=" M 728.00 472.00 C 733.65 471.99 739.32 471.99 745.00 472.00 C 745.00 489.33 745.00 506.66 745.00 524.00 C 739.31 523.99 733.66 523.99 728.00 524.00 C 727.99 506.66 727.99 489.33 728.00 472.00 Z" />
<path fill="#000000" d=" M 748.00 472.00 C 754.66 471.99 761.32 471.99 768.00 472.00 C 768.00 489.33 768.00 506.66 768.00 524.00 C 761.32 523.99 754.66 523.99 748.00 524.00 C 747.99 506.66 747.99 489.33 748.00 472.00 Z" />
<path fill="#000000" d=" M 551.00 494.00 C 556.33 493.99 561.66 493.99 567.00 494.00 C 567.00 503.99 567.00 513.99 567.00 524.00 C 561.66 523.99 556.33 523.99 551.00 524.00 C 550.99 513.99 550.99 503.99 551.00 494.00 Z" />
<path fill="#000000" d=" M 468.01 499.00 C 481.33 499.00 494.66 499.00 507.99 499.00 C 508.00 507.33 508.00 515.66 507.99 524.00 C 494.66 523.99 481.33 523.99 468.01 524.00 C 467.98 515.66 467.98 507.33 468.01 499.00 Z" />
</svg>
