<?xml version="1.0" standalone="no"?>
<!DOCTYPE svg PUBLIC "-//W3C//DTD SVG 20010904//EN"
 "http://www.w3.org/TR/2001/REC-SVG-20010904/DTD/svg10.dtd">
<svg version="1.0" xmlns="http://www.w3.org/2000/svg"
 width="960.000000pt" height="634.000000pt" viewBox="0 0 960.000000 634.000000"
 preserveAspectRatio="xMidYMid meet">
<metadata>
Created by potrace 1.12, written by Peter Selinger 2001-2015
</metadata>
<g transform="translate(0.000000,634.000000) scale(0.100000,-0.100000)"
fill="#000000" stroke="none">
<path d="M480 5355 l0 -945 840 0 840 0 0 945 0 945 -840 0 -840 0 0 -945z"/>
<path d="M2190 5020 l0 -1280 1350 0 1350 0 0 -480 0 -480 675 0 675 0 0 1760
0 1760 -2025 0 -2025 0 0 -1280z"/>
<path d="M6270 5680 l0 -620 415 0 415 0 0 -1980 0 -1980 1230 0 1230 0 0
1925 0 1925 -440 0 -440 0 0 675 0 675 -1205 0 -1205 0 0 -620z"/>
<path d="M8710 5640 l0 -660 425 0 425 0 0 660 0 660 -425 0 -425 0 0 -660z"/>
<path d="M6270 3905 l0 -1125 400 0 400 0 0 1125 0 1125 -400 0 -400 0 0
-1125z"/>
<path d="M480 3580 l0 -800 470 0 470 0 0 800 0 800 -470 0 -470 0 0 -800z"/>
<path d="M1450 3580 l0 -800 185 0 185 0 0 800 0 800 -185 0 -185 0 0 -800z"/>
<path d="M1850 3580 l0 -800 155 0 155 0 0 800 0 800 -155 0 -155 0 0 -800z"/>
<path d="M2190 3245 l0 -465 405 0 405 0 0 465 0 465 -405 0 -405 0 0 -465z"/>
<path d="M3030 3245 l0 -465 380 0 380 0 0 465 0 465 -380 0 -380 0 0 -465z"/>
<path d="M3820 3245 l0 -465 240 0 240 0 0 465 0 465 -240 0 -240 0 0 -465z"/>
<path d="M4330 3245 l0 -465 265 0 265 0 0 465 0 465 -265 0 -265 0 0 -465z"/>
<path d="M680 2575 l0 -95 150 0 150 0 0 95 0 95 -150 0 -150 0 0 -95z"/>
<path d="M40 1875 l0 -775 205 0 205 0 0 775 0 775 -205 0 -205 0 0 -775z"/>
<path d="M981 2260 c-107 -49 -195 -91 -197 -92 -1 -2 29 -52 67 -112 38 -60
69 -113 69 -117 0 -7 35 5 105 36 17 7 93 38 170 70 77 31 141 58 143 59 1 2
-19 37 -46 77 -26 41 -61 95 -77 121 -17 27 -32 48 -35 48 -3 -1 -92 -41 -199
-90z"/>
<path d="M1220 2340 c0 -5 5 -12 11 -15 6 -4 13 -15 17 -24 4 -9 32 -56 62
-104 l55 -87 203 0 202 0 0 120 0 121 -275 -2 c-151 0 -275 -5 -275 -9z"/>
<path d="M1800 2230 l0 -120 230 0 230 0 0 120 0 120 -230 0 -230 0 0 -120z"/>
<path d="M2290 2230 l0 -120 435 0 435 0 0 120 0 120 -435 0 -435 0 0 -120z"/>
<path d="M3190 2230 l0 -120 300 0 300 0 0 120 0 120 -300 0 -300 0 0 -120z"/>
<path d="M1250 2034 c-122 -52 -139 -59 -200 -82 -25 -9 -59 -23 -77 -32 l-32
-15 49 -79 c27 -43 53 -83 57 -87 5 -5 96 27 206 71 192 78 198 80 281 80 l86
0 0 95 0 95 -132 -1 -133 -1 -105 -44z"/>
<path d="M1650 1985 l0 -95 255 0 255 0 0 95 0 95 -255 0 -255 0 0 -95z"/>
<path d="M4390 1590 l0 -490 510 0 510 0 0 490 0 490 -510 0 -510 0 0 -490z"/>
<path d="M5440 1590 l0 -490 400 0 400 0 0 490 0 490 -400 0 -400 0 0 -490z"/>
<path d="M6270 1590 l0 -490 400 0 400 0 0 490 0 490 -400 0 -400 0 0 -490z"/>
<path d="M480 1506 l0 -404 840 -1 840 0 0 380 0 380 -367 -3 c-351 -3 -370
-4 -413 -24 -99 -47 -332 -135 -344 -131 -7 3 -39 50 -72 106 l-59 101 -212 0
-213 0 0 -404z"/>
<path d="M3280 1740 l0 -120 255 0 255 0 0 120 0 120 -255 0 -255 0 0 -120z"/>
<path d="M4120 1345 l0 -245 120 0 120 0 0 245 0 245 -120 0 -120 0 0 -245z"/>
<path d="M485 1005 c4 -33 13 -79 21 -103 8 -23 14 -48 14 -54 0 -19 69 -159
102 -206 89 -128 235 -249 362 -301 87 -36 84 -35 178 -56 86 -19 259 -15 353
9 91 24 221 84 299 140 188 134 344 408 341 601 l0 30 -838 0 -838 0 6 -60z"/>
</g>
</svg>
