<?xml version="1.0" standalone="no"?>
<!DOCTYPE svg PUBLIC "-//W3C//DTD SVG 20010904//EN"
 "http://www.w3.org/TR/2001/REC-SVG-20010904/DTD/svg10.dtd">
<svg version="1.0" xmlns="http://www.w3.org/2000/svg"
 width="961.000000pt" height="738.000000pt" viewBox="0 0 961.000000 738.000000"
 preserveAspectRatio="xMidYMid meet">
<metadata>
Created by potrace 1.12, written by Peter Selinger 2001-2015
</metadata>
<g transform="translate(0.000000,738.000000) scale(0.100000,-0.100000)"
fill="#000000" stroke="none">
<path d="M4140 6235 l0 -1105 455 0 455 0 0 -615 0 -615 650 0 650 0 0 885 0
885 205 0 205 0 0 835 0 835 -1310 0 -1310 0 0 -1105z"/>
<path d="M6790 6490 l0 -850 -205 0 -205 0 0 -555 0 -555 575 0 575 0 0 110 0
110 890 0 890 0 0 1295 0 1295 -1260 0 -1260 0 0 -850z"/>
<path d="M40 4565 l0 -535 125 0 125 0 3 -1327 c2 -731 7 -1348 11 -1373 3
-25 11 -56 16 -70 4 -14 21 -65 35 -114 94 -312 358 -616 659 -761 122 -58
154 -70 296 -106 l115 -28 703 -1 702 0 0 2425 0 2425 -1395 0 -1395 0 0 -535z"/>
<path d="M2860 4340 l0 -760 946 -2 946 -3 19 23 c10 13 54 63 97 110 43 48
95 106 115 128 l37 41 0 612 0 611 -1080 0 -1080 0 0 -760z"/>
<path d="M7560 4310 l0 -410 875 0 875 0 0 410 0 410 -875 0 -875 0 0 -410z"/>
<path d="M4966 3777 c-49 -54 -87 -99 -85 -101 8 -8 50 -8 752 -7 l717 1 0
100 0 100 -647 2 -648 3 -89 -98z"/>
<path d="M7560 3415 l0 -455 445 0 445 0 0 455 0 455 -445 0 -445 0 0 -455z"/>
<path d="M8480 3400 l0 -470 -610 0 -610 0 0 -875 0 -875 1025 0 1025 0 0
1345 0 1345 -415 0 -415 0 0 -470z"/>
<path d="M4520 3135 l0 -185 250 0 250 0 0 185 0 185 -250 0 -250 0 0 -185z"/>
<path d="M5050 2930 l0 -390 620 0 620 0 0 390 0 390 -620 0 -620 0 0 -390z"/>
<path d="M6320 3135 l0 -185 245 0 245 0 0 185 0 185 -245 0 -245 0 0 -185z"/>
<path d="M3910 2525 l0 -425 105 0 105 0 0 425 0 425 -105 0 -105 0 0 -425z"/>
<path d="M6670 2585 l0 -135 220 0 220 0 0 135 0 135 -220 0 -220 0 0 -135z"/>
<path d="M4520 2400 l0 -110 250 0 250 0 0 110 0 110 -250 0 -250 0 0 -110z"/>
<path d="M3910 1820 l0 -250 -525 0 -525 0 0 -760 0 -760 550 0 550 0 0 100 0
100 535 0 535 0 0 910 0 910 -560 0 -560 0 0 -250z"/>
<path d="M5060 1160 l0 -910 305 0 305 0 0 -100 0 -100 150 0 150 0 0 1010 0
1010 -455 0 -455 0 0 -910z"/>
<path d="M6000 1060 l0 -1010 390 0 390 0 0 100 0 100 225 0 225 0 0 910 0
910 -615 0 -615 0 0 -1010z"/>
<path d="M7260 700 l0 -450 600 0 600 0 0 -100 0 -100 550 0 550 0 0 550 0
550 -1150 0 -1150 0 0 -450z"/>
</g>
</svg>
