<?xml version="1.0" standalone="no"?>
<!DOCTYPE svg PUBLIC "-//W3C//DTD SVG 20010904//EN"
 "http://www.w3.org/TR/2001/REC-SVG-20010904/DTD/svg10.dtd">
<svg version="1.0" xmlns="http://www.w3.org/2000/svg"
 width="960.000000pt" height="618.000000pt" viewBox="0 0 960.000000 618.000000"
 preserveAspectRatio="xMidYMid meet">
<metadata>
Created by potrace 1.12, written by Peter Selinger 2001-2015
</metadata>
<g transform="translate(0.000000,618.000000) scale(0.100000,-0.100000)"
fill="#000000" stroke="none">
<path d="M40 5310 l0 -830 860 0 860 0 0 235 0 235 620 0 620 0 0 220 0 220
155 0 155 0 0 375 0 375 -1635 0 -1635 0 0 -830z"/>
<path d="M3030 5155 l0 -205 140 0 140 0 0 205 0 205 -140 0 -140 0 0 -205z"/>
<path d="M1790 4495 l0 -425 675 0 675 0 0 130 0 130 -125 0 -125 0 0 295 0
295 -550 0 -550 0 0 -425z"/>
<path d="M2920 4640 l0 -280 125 0 125 0 0 -390 0 -390 730 0 730 0 0 65 0 65
-660 0 -660 0 0 605 0 605 -195 0 -195 0 0 -280z"/>
<path d="M40 4245 l0 -205 540 0 540 0 0 205 0 205 -540 0 -540 0 0 -205z"/>
<path d="M1790 3810 l0 -230 675 0 675 0 0 230 0 230 -675 0 -675 0 0 -230z"/>
<path d="M40 3575 l0 -435 125 0 125 0 0 390 0 390 415 0 415 0 0 45 0 45
-540 0 -540 0 0 -435z"/>
<path d="M320 3740 l0 -150 400 0 400 0 0 150 0 150 -400 0 -400 0 0 -150z"/>
<path d="M7010 3730 c0 -17 -7 -20 -45 -20 l-45 0 0 -1020 0 -1020 205 0 205
0 0 1040 0 1040 -160 0 c-153 0 -160 -1 -160 -20z"/>
<path d="M7360 2695 l0 -1055 -110 0 -110 0 0 -660 0 -660 325 0 325 0 0 -140
0 -140 885 0 885 0 0 1430 0 1430 -430 0 -430 0 0 405 0 405 -60 0 c-53 0 -60
2 -60 20 0 20 -7 20 -610 20 l-610 0 0 -1055z"/>
<path d="M4660 3435 l0 -275 115 0 115 0 0 100 0 100 405 0 405 0 0 35 c0 34
-1 35 -40 35 l-40 0 0 140 0 140 -480 0 -480 0 0 -275z"/>
<path d="M5650 3585 l0 -125 40 0 40 0 0 -50 0 -50 245 0 245 0 0 -590 0 -590
110 0 110 0 0 -255 0 -255 225 0 225 0 0 1020 0 1020 -620 0 -620 0 0 -125z"/>
<path d="M320 3350 l0 -210 400 0 400 0 0 210 0 210 -400 0 -400 0 0 -210z"/>
<path d="M1790 3014 l0 -536 119 -119 119 -119 641 0 641 0 0 655 0 655 -760
0 -760 0 0 -536z"/>
<path d="M3340 2610 l0 -940 305 0 305 0 0 940 0 940 -305 0 -305 0 0 -940z"/>
<path d="M3980 2610 l0 -940 325 0 325 0 0 940 0 940 -325 0 -325 0 0 -940z"/>
<path d="M4920 3230 l0 -100 -130 0 -130 0 0 -475 0 -475 225 0 225 0 0 -255
0 -255 200 0 200 0 0 830 0 830 -295 0 -295 0 0 -100z"/>
<path d="M5540 2500 l0 -830 210 0 210 0 0 255 0 255 115 0 115 0 0 575 0 575
-325 0 -325 0 0 -830z"/>
<path d="M40 2900 l0 -210 540 0 540 0 0 210 0 210 -540 0 -540 0 0 -210z"/>
<path d="M40 2450 l0 -210 425 0 c423 0 425 0 443 21 9 12 61 66 115 120 l97
98 0 91 0 90 -540 0 -540 0 0 -210z"/>
<path d="M40 2000 l0 -210 415 0 415 0 0 210 0 210 -415 0 -415 0 0 -210z"/>
<path d="M2050 1994 l0 -216 55 -54 54 -54 126 0 125 0 0 270 0 270 -180 0
-180 0 0 -216z"/>
<path d="M2440 1940 l0 -270 195 0 195 0 0 270 0 270 -195 0 -195 0 0 -270z"/>
<path d="M2860 1940 l0 -270 225 0 225 0 0 270 0 270 -225 0 -225 0 0 -270z"/>
<path d="M4660 1915 l0 -235 210 0 210 0 0 235 0 235 -210 0 -210 0 0 -235z"/>
<path d="M5990 1910 l0 -240 210 0 210 0 0 240 0 240 -210 0 -210 0 0 -240z"/>
<path d="M40 1470 l0 -290 260 0 260 0 0 80 0 80 155 0 155 0 0 210 0 210
-415 0 -415 0 0 -290z"/>
<path d="M2063 1395 l-53 -53 0 -87 0 -87 55 -54 55 -54 515 0 515 0 55 54 55
53 0 87 0 86 -54 55 -53 55 -519 0 -519 -1 -52 -54z"/>
<path d="M590 1100 l0 -210 140 0 140 0 0 210 0 210 -140 0 -140 0 0 -210z"/>
<path d="M40 1020 l0 -130 260 0 260 0 0 130 0 130 -260 0 -260 0 0 -130z"/>
<path d="M40 365 l0 -325 35 0 35 0 0 160 0 160 125 0 125 0 0 165 0 165 -160
0 -160 0 0 -325z"/>
<path d="M390 510 l0 -180 -125 0 -125 0 0 -145 0 -145 235 0 235 0 0 325 0
325 -110 0 -110 0 0 -180z"/>
<path d="M640 565 l0 -125 775 0 775 0 0 125 0 125 -775 0 -775 0 0 -125z"/>
<path d="M2220 365 l0 -325 400 0 400 0 0 185 0 185 -90 0 -90 0 0 140 0 140
-310 0 -310 0 0 -325z"/>
<path d="M2870 565 l0 -125 130 0 130 0 0 125 0 125 -130 0 -130 0 0 -125z"/>
<path d="M3340 405 l0 -285 155 0 155 0 0 285 0 285 -155 0 -155 0 0 -285z"/>
<path d="M3680 405 l0 -285 240 0 240 0 0 285 0 285 -240 0 -240 0 0 -285z"/>
<path d="M4190 405 l0 -285 220 0 220 0 0 285 0 285 -220 0 -220 0 0 -285z"/>
<path d="M4660 365 l0 -325 195 0 195 0 0 325 0 325 -195 0 -195 0 0 -325z"/>
<path d="M5080 365 l0 -325 220 0 220 0 0 325 0 325 -220 0 -220 0 0 -325z"/>
<path d="M5550 300 l0 -260 205 0 205 0 0 260 0 260 -205 0 -205 0 0 -260z"/>
<path d="M5990 300 l0 -260 215 0 215 0 0 210 0 210 85 0 85 0 0 50 0 50 -300
0 -300 0 0 -260z"/>
<path d="M6780 530 l0 -30 70 0 c63 0 70 -2 70 -20 0 -19 7 -20 95 -20 l95 0
0 50 0 50 -165 0 -165 0 0 -30z"/>
<path d="M640 225 l0 -185 190 0 190 0 0 185 0 185 -190 0 -190 0 0 -185z"/>
<path d="M1050 225 l0 -185 160 0 160 0 0 185 0 185 -160 0 -160 0 0 -185z"/>
<path d="M1400 225 l0 -185 215 0 215 0 0 185 0 185 -215 0 -215 0 0 -185z"/>
<path d="M1860 225 l0 -185 165 0 165 0 0 185 0 185 -165 0 -165 0 0 -185z"/>
</g>
</svg>
