<?xml version="1.0" standalone="no"?>
<!DOCTYPE svg PUBLIC "-//W3C//DTD SVG 20010904//EN"
 "http://www.w3.org/TR/2001/REC-SVG-20010904/DTD/svg10.dtd">
<svg version="1.0" xmlns="http://www.w3.org/2000/svg"
 width="960.000000pt" height="645.000000pt" viewBox="0 0 960.000000 645.000000"
 preserveAspectRatio="xMidYMid meet">
<metadata>
Created by potrace 1.13, written by Peter Selinger 2001-2015
</metadata>
<g transform="translate(0.000000,645.000000) scale(0.100000,-0.100000)"
fill="#000000" stroke="none">
<path d="M810 5755 l0 -655 -385 0 -385 0 0 -605 0 -605 385 0 385 0 0 -685 0
-685 -385 0 -385 0 0 -1105 0 -1105 1200 0 1200 0 0 465 0 465 915 0 915 0 0
-465 0 -465 710 0 710 0 0 410 0 410 820 0 820 0 0 65 0 65 230 0 230 0 0
-380 0 -380 510 0 510 0 0 220 0 220 375 0 375 0 0 2195 0 2195 -435 0 -435 0
0 200 0 200 -575 0 -575 0 0 160 0 160 -264 0 -264 0 -81 88 -81 87 0 93 0 92
-3020 0 -3020 0 0 -655z"/>
</g>
</svg>
