<?xml version="1.0" standalone="no"?>
<!DOCTYPE svg PUBLIC "-//W3C//DTD SVG 20010904//EN"
 "http://www.w3.org/TR/2001/REC-SVG-20010904/DTD/svg10.dtd">
<svg version="1.0" xmlns="http://www.w3.org/2000/svg"
 width="900.000000pt" height="573.000000pt" viewBox="0 0 900.000000 573.000000"
 preserveAspectRatio="xMidYMid meet">
<metadata>
Created by potrace 1.12, written by Peter Selinger 2001-2015
</metadata>
<g transform="translate(0.000000,573.000000) scale(0.100000,-0.100000)"
fill="#000000" stroke="none">
<path d="M450 5250 l0 -440 785 0 785 0 0 440 0 440 -785 0 -785 0 0 -440z"/>
<path d="M2050 5250 l0 -440 175 0 175 0 0 440 0 440 -175 0 -175 0 0 -440z"/>
<path d="M2430 5250 l0 -440 945 0 945 0 0 440 0 440 -945 0 -945 0 0 -440z"/>
<path d="M4350 5250 l0 -440 365 0 365 0 0 440 0 440 -365 0 -365 0 0 -440z"/>
<path d="M5110 5250 l0 -440 355 0 355 0 0 440 0 440 -355 0 -355 0 0 -440z"/>
<path d="M7930 5190 l0 -500 -635 0 -635 0 0 -1000 0 -1000 375 0 375 0 0
-465 0 -465 782 0 781 0 -6 722 c-4 397 -7 1281 -7 1965 l0 1243 -515 0 -515
0 0 -500z"/>
<path d="M450 4480 l0 -300 535 0 535 0 0 300 0 300 -535 0 -535 0 0 -300z"/>
<path d="M450 3725 l0 -425 535 0 535 0 0 425 0 425 -535 0 -535 0 0 -425z"/>
<path d="M2060 3660 l0 -490 225 0 225 0 0 490 0 490 -225 0 -225 0 0 -490z"/>
<path d="M2540 3660 l0 -490 125 0 125 0 0 490 0 490 -125 0 -125 0 0 -490z"/>
<path d="M2820 3660 l0 -490 365 0 365 0 0 490 0 490 -365 0 -365 0 0 -490z"/>
<path d="M3580 3150 l0 -1000 750 0 750 0 0 1000 0 1000 -750 0 -750 0 0
-1000z"/>
<path d="M5110 3150 l0 -1000 540 0 540 0 0 1000 0 1000 -540 0 -540 0 0
-1000z"/>
<path d="M450 2830 l0 -440 535 0 535 0 0 440 0 440 -535 0 -535 0 0 -440z"/>
<path d="M2060 2645 l0 -495 365 0 365 0 0 495 0 495 -365 0 -365 0 0 -495z"/>
<path d="M2820 2645 l0 -495 365 0 365 0 0 495 0 495 -365 0 -365 0 0 -495z"/>
<path d="M40 1540 l0 -730 190 0 190 0 0 730 0 730 -190 0 -190 0 0 -730z"/>
<path d="M630 2015 l0 -115 285 0 285 0 0 115 0 115 -285 0 -285 0 0 -115z"/>
<path d="M2050 1645 l0 -95 175 0 175 0 0 95 0 95 -175 0 -175 0 0 -95z"/>
<path d="M2710 1645 l0 -95 220 0 220 0 0 95 0 95 -220 0 -220 0 0 -95z"/>
<path d="M3580 1275 l0 -455 360 0 360 0 0 455 0 455 -360 0 -360 0 0 -455z"/>
<path d="M4330 1275 l0 -455 370 0 370 0 0 455 0 455 -370 0 -370 0 0 -455z"/>
<path d="M5100 1275 l0 -455 375 0 375 0 0 455 0 455 -375 0 -375 0 0 -455z"/>
<path d="M5880 1275 l0 -455 375 0 375 0 0 455 0 455 -375 0 -375 0 0 -455z"/>
<path d="M6660 1275 l0 -455 1150 0 1150 0 0 455 0 455 -1150 0 -1150 0 0
-455z"/>
<path d="M450 1380 l0 -150 390 0 390 0 0 150 0 150 -390 0 -390 0 0 -150z"/>
<path d="M453 938 c4 -231 7 -272 26 -333 35 -117 78 -204 131 -267 19 -24 27
-23 64 10 41 34 80 66 296 241 96 78 194 157 218 177 l42 36 0 199 0 199 -391
0 -391 0 5 -262z"/>
<path d="M1209 754 c-24 -20 -53 -43 -64 -52 -11 -10 -94 -78 -185 -152 -91
-74 -190 -157 -221 -185 -30 -27 -64 -55 -75 -61 -18 -10 -17 -13 13 -40 59
-55 222 -164 245 -164 8 0 18 -4 23 -9 6 -5 50 -19 98 -31 168 -43 377 -23
533 51 237 113 433 387 446 624 l3 50 -386 3 -387 2 -43 -36z"/>
</g>
</svg>
