<svg width="250px" height="200px" viewBox="0 0 1000 800" version="1.1" xmlns="http://www.w3.org/2000/svg">
<g id="#bdd236fe">
<path fill="#bdd236" opacity="1.00" d=" M 403.82 54.57 C 405.90 61.76 407.90 68.97 409.96 76.17 C 417.16 78.23 424.38 80.20 431.57 82.30 C 424.37 84.34 417.17 86.36 409.98 88.40 C 407.89 95.61 405.89 102.84 403.82 110.05 C 401.81 102.83 399.78 95.61 397.73 88.40 C 390.52 86.37 383.31 84.33 376.09 82.30 C 383.27 80.29 390.40 78.14 397.61 76.28 C 399.86 69.10 401.72 61.80 403.82 54.57 Z" />
<path fill="#bdd236" opacity="1.00" d=" M 577.74 90.89 C 579.76 83.70 581.77 76.51 583.82 69.33 C 585.88 76.52 587.89 83.72 589.94 90.91 C 597.13 92.98 604.34 94.95 611.52 97.04 C 604.34 99.09 597.15 101.13 589.96 103.15 C 587.87 110.34 585.89 117.57 583.81 124.77 C 581.78 117.57 579.75 110.38 577.74 103.19 C 570.56 101.12 563.36 99.13 556.19 97.05 C 563.35 94.93 570.57 92.98 577.74 90.89 Z" />
<path fill="#bdd236" opacity="1.00" d=" M 353.93 171.06 C 355.97 163.88 357.95 156.67 360.03 149.49 C 362.09 156.67 364.11 163.86 366.14 171.04 C 373.34 173.12 380.57 175.13 387.78 177.19 C 380.58 179.23 373.38 181.29 366.17 183.30 C 363.94 190.25 362.59 197.53 359.86 204.28 C 357.82 197.30 355.94 190.27 353.90 183.29 C 346.68 181.27 339.47 179.21 332.25 177.19 C 339.47 175.14 346.71 173.13 353.93 171.06 Z" />
<path fill="#bdd236" opacity="1.00" d=" M 634.58 159.02 C 635.83 166.70 638.66 174.08 640.56 181.64 C 647.78 183.66 654.99 185.73 662.21 187.75 C 655.02 189.81 647.82 191.85 640.62 193.85 C 638.50 201.05 636.47 208.29 634.48 215.53 C 632.31 208.30 630.49 200.98 628.23 193.78 C 621.03 191.89 613.89 189.79 606.73 187.75 C 613.93 185.75 621.10 183.65 628.30 181.68 C 630.44 174.14 632.71 166.63 634.58 159.02 Z" />
<path fill="#bdd236" opacity="1.00" d=" M 227.57 188.44 C 229.63 181.24 231.65 174.03 233.70 166.83 C 235.75 174.02 237.75 181.23 239.79 188.43 C 246.99 190.51 254.21 192.48 261.41 194.56 C 254.21 196.62 247.00 198.64 239.80 200.69 C 237.81 208.21 235.28 215.61 233.71 223.23 C 232.10 215.63 229.56 208.26 227.63 200.74 C 220.19 198.70 212.85 196.24 205.31 194.63 C 212.78 192.76 220.14 190.48 227.57 188.44 Z" />
<path fill="#bdd236" opacity="1.00" d=" M 536.87 170.30 C 539.57 179.83 542.22 189.37 544.94 198.90 C 554.37 201.51 563.77 204.22 573.19 206.87 C 563.87 209.92 554.33 212.28 544.92 215.05 C 542.22 224.57 539.57 234.09 536.87 243.61 C 534.17 234.10 531.47 224.59 528.80 215.08 C 519.32 212.32 509.79 209.73 500.32 206.96 C 509.79 204.19 519.32 201.58 528.80 198.84 C 531.48 189.32 534.18 179.81 536.87 170.30 Z" />
<path fill="#bdd236" opacity="1.00" d=" M 713.38 218.61 C 715.37 225.89 717.47 233.14 719.52 240.40 C 726.74 242.41 733.95 244.51 741.19 246.48 C 733.99 248.60 726.75 250.57 719.53 252.63 C 717.47 259.83 715.43 267.03 713.42 274.24 C 711.31 267.06 709.35 259.83 707.29 252.64 C 700.09 250.61 692.88 248.57 685.69 246.52 C 692.89 244.45 700.09 242.43 707.30 240.39 C 709.32 233.13 711.44 225.89 713.38 218.61 Z" />
<path fill="#bdd236" opacity="1.00" d=" M 300.88 261.61 C 304.14 250.30 307.24 238.95 310.49 227.63 C 313.72 238.95 316.87 250.30 320.13 261.61 C 331.46 264.81 342.80 267.96 354.10 271.23 C 342.76 274.39 331.43 277.62 320.10 280.83 C 316.87 292.16 313.71 303.51 310.44 314.84 C 307.34 303.48 304.08 292.17 300.92 280.83 C 289.58 277.61 278.24 274.40 266.90 271.22 C 278.22 268.00 289.54 264.78 300.88 261.61 Z" />
<path fill="#bdd236" opacity="1.00" d=" M 424.63 228.28 C 426.72 235.47 428.71 242.69 430.77 249.90 C 437.97 251.95 445.18 253.97 452.39 256.03 C 445.19 258.08 438.00 260.13 430.79 262.15 C 428.72 269.37 426.69 276.60 424.65 283.83 C 422.66 276.61 420.57 269.41 418.59 262.19 C 411.39 260.09 404.15 258.10 396.94 256.03 C 404.15 253.96 411.39 251.98 418.59 249.87 C 420.57 242.66 422.66 235.49 424.63 228.28 Z" />
<path fill="#bdd236" opacity="1.00" d=" M 616.89 235.41 C 620.11 246.72 623.29 258.06 626.52 269.37 C 637.81 272.58 649.12 275.73 660.40 279.00 C 649.11 282.24 637.81 285.41 626.52 288.62 C 623.29 299.93 620.12 311.26 616.89 322.58 C 613.69 311.26 610.52 299.95 607.33 288.64 C 596.04 285.40 584.71 282.26 573.43 278.99 C 584.71 275.72 596.03 272.59 607.32 269.37 C 610.52 258.05 613.69 246.72 616.89 235.41 Z" />
<path fill="#bdd236" opacity="1.00" d=" M 175.93 296.91 C 177.98 289.75 179.92 282.56 182.03 275.41 C 184.12 282.57 186.10 289.75 188.15 296.92 C 195.31 298.98 202.51 300.91 209.65 303.05 C 202.50 305.14 195.31 307.13 188.15 309.17 C 186.10 316.35 184.11 323.54 182.03 330.70 C 179.93 323.54 177.98 316.33 175.92 309.16 C 168.71 307.15 161.51 305.10 154.31 303.04 C 161.51 300.99 168.73 298.98 175.93 296.91 Z" />
<path fill="#bdd236" opacity="1.00" d=" M 787.76 298.19 C 790.45 307.72 793.14 317.26 795.86 326.79 C 805.38 329.46 814.90 332.17 824.41 334.87 C 814.89 337.60 805.35 340.26 795.84 342.99 C 793.13 352.49 790.51 362.00 787.74 371.48 C 785.08 361.98 782.38 352.49 779.73 342.99 C 770.21 340.24 760.66 337.60 751.14 334.86 C 760.66 332.15 770.20 329.50 779.72 326.77 C 782.40 317.24 785.08 307.71 787.76 298.19 Z" />
<path fill="#bdd236" opacity="1.00" d=" M 699.91 320.34 C 702.06 327.49 703.97 334.70 706.07 341.86 C 713.26 343.90 720.46 345.91 727.65 347.96 C 720.46 350.05 713.24 352.04 706.05 354.11 C 703.99 361.28 702.02 368.49 699.92 375.66 C 697.87 368.48 695.86 361.30 693.85 354.12 C 686.69 352.04 679.49 350.10 672.35 347.97 C 679.49 345.88 686.67 343.89 693.83 341.85 C 695.87 334.68 697.85 327.50 699.91 320.34 Z" />
<path fill="#bdd236" opacity="1.00" d=" M 245.24 358.99 C 247.36 351.78 249.28 344.51 251.41 337.31 C 253.35 344.52 255.48 351.69 257.46 358.90 C 264.66 361.02 271.90 362.98 279.11 365.08 C 271.90 367.15 264.67 369.14 257.47 371.24 C 255.46 378.44 253.40 385.63 251.37 392.83 C 249.32 385.61 247.33 378.38 245.26 371.17 C 238.05 369.15 230.85 367.14 223.66 365.07 C 230.84 363.02 238.04 360.98 245.24 358.99 Z" />
<path fill="#bdd236" opacity="1.00" d=" M 149.95 381.77 C 152.03 388.97 153.95 396.23 156.11 403.42 C 163.31 405.40 170.50 407.44 177.68 409.53 C 170.48 411.45 163.34 413.64 156.13 415.54 C 153.93 422.71 152.07 429.98 149.95 437.17 C 147.85 429.99 145.90 422.77 143.79 415.59 C 136.60 413.56 129.41 411.57 122.25 409.47 C 129.43 407.43 136.61 405.40 143.80 403.39 C 145.89 396.20 147.87 388.97 149.95 381.77 Z" />
<path fill="#bdd236" opacity="1.00" d=" M 763.39 406.79 C 765.99 416.30 768.76 425.77 771.35 435.29 C 781.23 438.11 791.08 441.06 801.04 443.61 C 791.02 445.44 781.31 449.01 771.41 451.55 C 768.89 461.47 765.28 471.22 763.53 481.27 C 761.06 471.29 757.99 461.48 755.29 451.57 C 745.78 448.82 736.24 446.18 726.72 443.46 C 736.23 440.72 745.77 438.08 755.28 435.34 C 757.99 425.82 760.64 416.29 763.39 406.79 Z" />
<path fill="#bdd236" opacity="1.00" d=" M 647.57 430.64 C 649.61 437.85 651.61 445.07 653.67 452.28 C 660.86 454.29 668.06 456.30 675.23 458.40 C 668.04 460.44 660.84 462.47 653.65 464.52 C 651.61 471.74 649.60 478.96 647.54 486.17 C 645.56 478.94 643.47 471.73 641.44 464.51 C 634.12 462.48 626.84 460.27 619.47 458.41 C 626.82 456.49 634.10 454.29 641.42 452.27 C 643.50 445.07 645.50 437.85 647.57 430.64 Z" />
<path fill="#bdd236" opacity="1.00" d=" M 318.87 432.13 C 321.61 441.62 324.21 451.16 326.94 460.66 C 336.45 463.35 345.96 466.02 355.46 468.75 C 345.95 471.47 336.43 474.13 326.92 476.84 C 324.23 486.36 321.58 495.88 318.88 505.39 C 316.18 495.88 313.48 486.37 310.81 476.86 C 301.28 474.13 291.74 471.45 282.21 468.75 C 291.73 466.04 301.25 463.34 310.78 460.66 C 313.50 451.15 316.15 441.63 318.87 432.13 Z" />
<path fill="#bdd236" opacity="1.00" d=" M 203.74 466.69 C 205.77 473.85 207.85 481.01 209.80 488.20 C 216.98 490.39 224.25 492.28 231.45 494.42 C 224.25 496.48 217.03 498.47 209.84 500.57 C 207.83 507.78 205.78 514.97 203.73 522.17 C 201.72 514.95 199.69 507.73 197.64 500.52 C 190.43 498.48 183.21 496.48 176.02 494.37 C 183.27 492.36 190.51 490.35 197.71 488.22 C 199.65 481.02 201.73 473.86 203.74 466.69 Z" />
<path fill="#bdd236" opacity="1.00" d=" M 702.76 501.95 C 704.82 509.10 706.89 516.25 708.82 523.44 C 716.00 525.68 723.29 527.58 730.51 529.68 C 723.33 531.79 716.09 533.72 708.90 535.83 C 706.85 543.02 704.86 550.22 702.77 557.39 C 700.77 550.22 698.68 543.07 696.76 535.88 C 689.56 533.71 682.29 531.78 675.08 529.67 C 682.28 527.64 689.48 525.58 696.69 523.56 C 698.72 516.36 700.76 509.16 702.76 501.95 Z" />
<path fill="#bdd236" opacity="1.00" d=" M 270.10 571.95 C 272.80 562.43 275.49 552.91 278.19 543.39 C 280.86 552.91 283.55 562.42 286.22 571.95 C 295.74 574.69 305.30 577.31 314.82 580.06 C 305.28 582.75 295.74 585.44 286.22 588.17 C 283.55 597.68 280.87 607.18 278.19 616.69 C 275.45 607.18 272.82 597.64 270.08 588.13 C 260.56 585.44 251.04 582.78 241.54 580.06 C 251.06 577.33 260.59 574.67 270.10 571.95 Z" />
<path fill="#bdd236" opacity="1.00" d=" M 577.58 570.32 C 579.66 577.51 581.63 584.73 583.72 591.91 C 590.90 593.95 598.09 595.92 605.26 598.02 C 598.06 600.15 590.80 602.04 583.63 604.23 C 581.65 611.47 579.59 618.69 577.50 625.89 C 575.68 618.61 573.46 611.43 571.51 604.18 C 564.31 602.09 557.08 600.10 549.87 598.02 C 557.07 595.93 564.32 593.98 571.51 591.86 C 573.51 584.67 575.53 577.49 577.58 570.32 Z" />
<path fill="#bdd236" opacity="1.00" d=" M 423.61 631.42 C 426.87 620.12 429.98 608.77 433.27 597.48 C 436.43 608.78 439.63 620.08 442.80 631.38 C 454.11 634.63 465.45 637.78 476.76 641.02 C 465.45 644.27 454.11 647.42 442.80 650.67 C 439.61 661.97 436.46 673.28 433.25 684.58 C 430.04 673.29 426.81 662.00 423.68 650.70 C 412.37 647.38 400.99 644.30 389.66 641.03 C 400.97 637.79 412.29 634.62 423.61 631.42 Z" />
<path fill="#bdd236" opacity="1.00" d=" M 649.20 667.95 C 651.23 660.74 653.25 653.53 655.29 646.32 C 657.31 653.52 659.38 660.71 661.39 667.92 C 668.58 670.02 675.82 672.00 683.03 674.09 C 675.82 676.15 668.59 678.16 661.39 680.24 C 659.38 687.44 657.33 694.62 655.29 701.82 C 653.23 694.61 651.25 687.39 649.18 680.19 C 641.97 678.16 634.76 676.14 627.56 674.08 C 634.77 672.05 641.99 670.01 649.20 667.95 Z" />
<path fill="#bdd236" opacity="1.00" d=" M 326.15 703.22 C 328.18 696.02 330.19 688.82 332.28 681.64 C 334.27 688.83 336.34 696.00 338.31 703.21 C 345.52 705.30 352.77 707.29 359.99 709.37 C 352.78 711.40 345.58 713.47 338.36 715.47 C 336.31 722.68 334.29 729.90 332.26 737.12 C 330.23 729.93 328.15 722.76 326.19 715.55 C 318.99 713.40 311.73 711.47 304.51 709.37 C 311.71 707.27 318.95 705.32 326.15 703.22 Z" />
<path fill="#bdd236" opacity="1.00" d=" M 487.98 710.12 C 490.03 702.92 492.02 695.71 494.08 688.52 C 496.13 695.70 498.17 702.89 500.19 710.09 C 507.38 712.17 514.61 714.16 521.81 716.25 C 514.62 718.30 507.42 720.31 500.23 722.34 C 498.16 729.54 496.12 736.76 494.10 743.98 C 492.01 736.78 490.06 729.54 487.96 722.34 C 480.76 720.33 473.56 718.27 466.36 716.23 C 473.56 714.20 480.76 712.13 487.98 710.12 Z" />
</g>
</svg>
