<svg width="250px" height="200px" viewBox="0 0 1000 800" version="1.1" xmlns="http://www.w3.org/2000/svg">
<g id="#e63a21ff">
<path fill="#e63a21" opacity="1.00" d=" M 403.83 54.56 C 405.89 61.76 407.90 68.97 409.96 76.17 C 417.17 78.22 424.39 80.22 431.60 82.30 C 424.39 84.33 417.17 86.36 409.97 88.41 C 407.89 95.61 405.89 102.83 403.83 110.04 C 401.79 102.82 399.78 95.61 397.73 88.40 C 390.52 86.36 383.30 84.35 376.10 82.29 C 383.31 80.24 390.53 78.20 397.75 76.16 C 399.77 68.96 401.80 61.76 403.83 54.56 Z" />
<path fill="#e63a21" opacity="1.00" d=" M 583.81 69.31 C 585.88 76.50 587.88 83.71 589.94 90.91 C 597.12 92.99 604.33 94.94 611.50 97.04 C 604.32 99.11 597.13 101.12 589.95 103.16 C 587.89 110.36 585.88 117.58 583.81 124.77 C 581.78 117.58 579.75 110.38 577.74 103.18 C 570.55 101.12 563.35 99.12 556.17 97.05 C 563.34 94.94 570.55 92.98 577.74 90.90 C 579.76 83.70 581.79 76.50 583.81 69.31 Z" />
<path fill="#e63a21" opacity="1.00" d=" M 771.75 122.23 C 774.48 131.74 777.13 141.27 779.86 150.78 C 789.37 153.47 798.89 156.17 808.41 158.87 C 798.90 161.60 789.36 164.25 779.85 166.97 C 777.14 176.48 774.47 186.00 771.76 195.51 C 769.07 186.01 766.40 176.50 763.73 166.99 C 754.21 164.25 744.67 161.60 735.16 158.86 C 744.67 156.14 754.21 153.50 763.73 150.77 C 766.39 141.25 769.08 131.74 771.75 122.23 Z" />
<path fill="#e63a21" opacity="1.00" d=" M 486.46 135.95 C 488.43 143.19 490.54 150.40 492.56 157.64 C 499.77 159.67 506.98 161.71 514.18 163.76 C 507.00 165.79 499.84 167.86 492.64 169.83 C 490.46 177.02 488.53 184.29 486.44 191.51 C 484.40 184.40 482.50 177.25 480.38 170.17 C 473.42 167.53 465.89 166.02 458.73 163.76 C 465.93 161.73 473.12 159.67 480.33 157.66 C 482.41 150.43 484.41 143.18 486.46 135.95 Z" />
<path fill="#e63a21" opacity="1.00" d=" M 644.87 146.33 C 647.58 155.84 650.22 165.37 652.92 174.88 C 662.44 177.55 671.94 180.24 681.45 182.96 C 671.94 185.69 662.42 188.34 652.91 191.06 C 650.22 200.57 647.57 210.09 644.87 219.59 C 642.16 210.09 639.48 200.58 636.79 191.07 C 627.28 188.33 617.74 185.69 608.23 182.96 C 617.74 180.23 627.28 177.58 636.80 174.85 C 639.48 165.34 642.17 155.83 644.87 146.33 Z" />
<path fill="#e63a21" opacity="1.00" d=" M 353.93 171.06 C 355.98 163.87 357.98 156.66 360.02 149.46 C 362.08 156.65 364.10 163.85 366.14 171.05 C 373.34 173.12 380.56 175.13 387.77 177.19 C 380.57 179.23 373.37 181.29 366.17 183.30 C 364.09 190.49 362.10 197.71 360.02 204.90 C 357.95 197.71 355.99 190.49 353.92 183.30 C 346.71 181.26 339.50 179.23 332.29 177.19 C 339.50 175.11 346.73 173.14 353.93 171.06 Z" />
<path fill="#e63a21" opacity="1.00" d=" M 280.89 203.43 C 284.13 214.73 287.28 226.06 290.52 237.37 C 301.84 240.58 313.16 243.77 324.48 247.00 C 313.15 250.20 301.83 253.41 290.51 256.63 C 287.29 267.94 284.11 279.26 280.89 290.57 C 277.69 279.26 274.52 267.94 271.33 256.63 C 260.03 253.40 248.70 250.25 237.41 246.99 C 248.70 243.73 260.02 240.59 271.32 237.37 C 274.52 226.06 277.68 214.74 280.89 203.43 Z" />
<path fill="#e63a21" opacity="1.00" d=" M 707.30 240.39 C 709.34 233.18 711.34 225.97 713.40 218.76 C 715.43 225.98 717.47 233.19 719.52 240.39 C 726.73 242.44 733.96 244.44 741.16 246.54 C 733.95 248.55 726.74 250.60 719.53 252.63 C 717.42 260.14 715.18 267.61 713.23 275.17 C 711.97 267.52 709.19 260.16 707.29 252.63 C 700.08 250.61 692.87 248.57 685.67 246.51 C 692.88 244.47 700.09 242.42 707.30 240.39 Z" />
<path fill="#e63a21" opacity="1.00" d=" M 821.76 218.47 C 823.50 225.86 825.81 233.10 827.79 240.43 C 835.00 242.50 842.23 244.50 849.44 246.55 C 842.23 248.61 835.01 250.63 827.80 252.70 C 825.74 259.89 823.76 267.10 821.69 274.29 C 819.61 267.07 817.67 259.81 815.51 252.63 C 808.25 250.71 801.08 248.51 793.83 246.58 C 801.09 244.57 808.32 242.48 815.57 240.44 C 817.64 233.12 819.76 225.81 821.76 218.47 Z" />
<path fill="#e63a21" opacity="1.00" d=" M 424.64 228.31 C 426.71 235.49 428.72 242.70 430.77 249.90 C 437.96 251.96 445.17 253.96 452.36 256.03 C 445.17 258.09 437.98 260.12 430.79 262.15 C 428.71 269.35 426.72 276.57 424.65 283.76 C 422.63 276.57 420.58 269.39 418.59 262.19 C 411.38 260.09 404.15 258.09 396.94 256.03 C 404.15 253.96 411.38 251.98 418.59 249.88 C 420.58 242.68 422.62 235.50 424.64 228.31 Z" />
<path fill="#e63a21" opacity="1.00" d=" M 558.14 255.23 C 560.18 248.03 562.20 240.82 564.26 233.63 C 566.31 240.84 568.29 248.07 570.38 255.27 C 577.60 257.25 584.79 259.35 592.01 261.37 C 584.79 263.40 577.58 265.47 570.35 267.48 C 568.30 274.68 566.30 281.90 564.26 289.11 C 562.21 281.91 560.17 274.71 558.14 267.50 C 550.93 265.42 543.70 263.43 536.49 261.37 C 543.70 259.29 550.93 257.30 558.14 255.23 Z" />
<path fill="#e63a21" opacity="1.00" d=" M 175.93 296.91 C 177.98 289.75 179.93 282.55 182.03 275.40 C 184.11 282.55 186.10 289.74 188.14 296.92 C 195.33 298.98 202.54 300.94 209.72 303.05 C 202.53 305.12 195.33 307.12 188.14 309.18 C 186.10 316.37 184.08 323.57 182.03 330.76 C 179.96 323.57 177.98 316.35 175.92 309.16 C 168.71 307.15 161.51 305.10 154.31 303.04 C 161.52 300.99 168.73 298.98 175.93 296.91 Z" />
<path fill="#e63a21" opacity="1.00" d=" M 699.92 320.25 C 702.00 327.44 703.99 334.66 706.06 341.85 C 713.26 343.90 720.46 345.91 727.66 347.96 C 720.46 350.04 713.25 352.04 706.05 354.10 C 703.99 361.29 701.99 368.50 699.92 375.69 C 697.88 368.50 695.87 361.30 693.84 354.11 C 686.82 352.09 679.78 350.16 672.78 348.10 C 679.60 345.51 686.85 344.01 693.84 341.84 C 695.87 334.64 697.89 327.44 699.92 320.25 Z" />
<path fill="#e63a21" opacity="1.00" d=" M 101.68 356.26 C 103.68 349.06 105.71 341.86 107.75 334.68 C 109.79 341.87 111.82 349.07 113.86 356.26 C 121.05 358.34 128.27 360.34 135.47 362.41 C 128.27 364.48 121.04 366.46 113.85 368.57 C 111.82 375.77 109.78 382.97 107.74 390.16 C 105.71 382.95 103.69 375.73 101.65 368.53 C 94.41 366.50 87.20 364.40 79.96 362.42 C 87.20 360.37 94.45 358.35 101.68 356.26 Z" />
<path fill="#e63a21" opacity="1.00" d=" M 245.27 358.96 C 247.33 351.76 249.32 344.54 251.38 337.33 C 253.40 344.52 255.46 351.70 257.46 358.90 C 264.66 361.02 271.91 362.99 279.12 365.08 C 271.91 367.14 264.68 369.15 257.48 371.23 C 255.45 378.43 253.41 385.63 251.36 392.83 C 249.34 385.61 247.32 378.39 245.27 371.19 C 238.07 369.14 230.85 367.15 223.66 365.08 C 230.85 363.00 238.07 361.00 245.27 358.96 Z" />
<path fill="#e63a21" opacity="1.00" d=" M 783.28 383.35 C 785.98 373.83 788.64 364.31 791.38 354.80 C 794.03 364.31 796.74 373.80 799.38 383.32 C 808.89 386.08 818.45 388.70 827.98 391.47 C 818.45 394.14 808.93 396.85 799.41 399.55 C 796.72 409.08 794.03 418.60 791.38 428.14 C 788.67 418.62 785.97 409.09 783.29 399.56 C 773.77 396.82 764.23 394.17 754.70 391.47 C 764.22 388.73 773.76 386.07 783.28 383.35 Z" />
<path fill="#e63a21" opacity="1.00" d=" M 871.52 427.85 C 873.52 420.66 875.51 413.46 877.61 406.29 C 879.54 413.46 881.72 420.56 883.58 427.75 C 890.75 430.06 898.08 431.87 905.30 434.02 C 898.09 436.12 890.83 438.05 883.65 440.22 C 881.66 447.41 879.62 454.58 877.56 461.75 C 875.55 454.55 873.50 447.37 871.51 440.18 C 864.31 438.09 857.08 436.09 849.88 434.02 C 857.09 431.94 864.33 429.97 871.52 427.85 Z" />
<path fill="#e63a21" opacity="1.00" d=" M 284.88 449.60 C 288.14 438.29 291.25 426.94 294.48 415.62 C 297.70 426.94 300.87 438.28 304.12 449.59 C 315.44 452.80 326.77 455.98 338.10 459.21 C 326.77 462.43 315.43 465.60 304.10 468.82 C 300.87 480.14 297.71 491.48 294.47 502.79 C 291.29 491.47 288.11 480.14 284.91 468.82 C 273.58 465.60 262.23 462.42 250.90 459.20 C 262.23 456.02 273.55 452.77 284.88 449.60 Z" />
<path fill="#e63a21" opacity="1.00" d=" M 754.78 461.95 C 756.80 469.12 758.89 476.28 760.84 483.47 C 768.03 485.67 775.31 487.59 782.54 489.69 C 775.33 491.76 768.10 493.73 760.90 495.82 C 758.86 503.02 756.84 510.22 754.78 517.42 C 752.72 510.31 750.85 503.14 748.71 496.06 C 741.73 493.49 734.24 491.90 727.07 489.68 C 734.28 487.64 741.48 485.59 748.69 483.56 C 750.73 476.36 752.74 469.15 754.78 461.95 Z" />
<path fill="#e63a21" opacity="1.00" d=" M 246.87 528.12 C 249.61 537.63 252.20 547.17 254.96 556.67 C 264.48 559.34 273.99 562.05 283.50 564.75 C 273.97 567.44 264.45 570.13 254.93 572.84 C 252.22 582.35 249.58 591.87 246.88 601.38 C 244.18 591.88 241.48 582.38 238.82 572.87 C 229.30 570.11 219.75 567.47 210.23 564.74 C 219.75 562.05 229.25 559.32 238.77 556.67 C 241.50 547.16 244.15 537.63 246.87 528.12 Z" />
<path fill="#e63a21" opacity="1.00" d=" M 153.95 561.78 C 156.05 568.98 157.93 576.25 160.13 583.43 C 167.32 585.38 174.48 587.46 181.65 589.50 C 174.48 591.48 167.36 593.63 160.17 595.51 C 157.91 602.69 156.07 609.99 153.95 617.21 C 151.86 610.00 149.91 602.76 147.77 595.58 C 140.57 593.59 133.39 591.51 126.20 589.49 C 133.39 587.43 140.60 585.42 147.81 583.38 C 149.89 576.19 151.87 568.97 153.95 561.78 Z" />
<path fill="#e63a21" opacity="1.00" d=" M 701.21 591.95 C 703.24 584.75 705.24 577.55 707.30 570.36 C 709.33 577.54 711.38 584.73 713.39 591.92 C 720.59 594.02 727.82 596.00 735.03 598.09 C 727.82 600.14 720.60 602.16 713.40 604.23 C 711.37 611.43 709.33 618.63 707.29 625.82 C 705.25 618.62 703.24 611.40 701.19 604.20 C 693.99 602.14 686.77 600.15 679.57 598.08 C 686.78 596.04 694.00 594.01 701.21 591.95 Z" />
<path fill="#e63a21" opacity="1.00" d=" M 346.11 611.94 C 348.80 602.43 351.48 592.92 354.19 583.41 C 356.88 592.92 359.54 602.44 362.23 611.96 C 371.74 614.70 381.28 617.30 390.79 620.06 C 381.27 622.76 371.74 625.44 362.22 628.16 C 359.55 637.68 356.87 647.20 354.18 656.72 C 351.48 647.19 348.81 637.66 346.08 628.14 C 336.57 625.43 327.05 622.79 317.55 620.06 C 327.06 617.33 336.59 614.67 346.11 611.94 Z" />
<path fill="#e63a21" opacity="1.00" d=" M 559.62 647.42 C 562.86 636.10 566.01 624.76 569.26 613.45 C 572.44 624.76 575.62 636.07 578.81 647.39 C 590.12 650.63 601.46 653.79 612.77 657.04 C 601.45 660.25 590.12 663.42 578.81 666.66 C 575.61 677.98 572.45 689.30 569.25 700.61 C 566.05 689.30 562.82 678.00 559.66 666.68 C 548.34 663.40 536.98 660.29 525.67 657.03 C 536.97 653.78 548.30 650.63 559.62 647.42 Z" />
<path fill="#e63a21" opacity="1.00" d=" M 205.43 676.27 C 207.51 669.06 209.50 661.84 211.58 654.64 C 213.59 661.85 215.62 669.07 217.67 676.27 C 224.87 678.29 232.07 680.33 239.27 682.39 C 232.06 684.44 224.85 686.46 217.65 688.53 C 215.62 695.73 213.60 702.94 211.56 710.14 C 209.53 702.93 207.48 695.72 205.44 688.51 C 198.21 686.46 190.97 684.42 183.74 682.39 C 190.97 680.38 198.19 678.30 205.43 676.27 Z" />
<path fill="#e63a21" opacity="1.00" d=" M 487.98 710.12 C 490.03 702.92 492.02 695.71 494.08 688.52 C 496.13 695.70 498.16 702.90 500.19 710.09 C 507.39 712.17 514.62 714.17 521.83 716.24 C 514.63 718.29 507.43 720.31 500.22 722.34 C 498.15 729.54 496.14 736.76 494.09 743.97 C 492.02 736.77 490.04 729.55 487.98 722.35 C 480.77 720.32 473.57 718.28 466.37 716.23 C 473.57 714.19 480.77 712.13 487.98 710.12 Z" />
</g>
</svg>
