<svg width="250px" height="200px" viewBox="0 0 1000 800" version="1.1" xmlns="http://www.w3.org/2000/svg">
<g id="#2886aaff">
<path fill="#2886aa" opacity="1.00" d=" M 824.37 65.31 C 826.60 58.33 828.26 51.18 830.45 44.19 C 832.56 51.32 834.54 58.50 836.56 65.66 C 843.68 67.64 850.82 69.60 857.90 71.75 C 850.83 73.95 843.67 75.83 836.57 77.88 C 834.52 85.04 832.55 92.22 830.45 99.36 C 828.31 92.23 826.40 85.03 824.35 77.87 C 817.17 75.83 809.97 73.88 802.82 71.76 C 809.94 69.46 817.42 68.08 824.37 65.31 Z" />
<path fill="#2886aa" opacity="1.00" d=" M 403.83 62.72 C 405.95 69.85 407.91 77.02 409.95 84.18 C 417.11 86.21 424.30 88.15 431.43 90.30 C 424.30 92.39 417.14 94.36 410.00 96.39 C 407.88 103.58 405.91 110.82 403.84 118.03 C 401.78 110.82 399.78 103.58 397.71 96.37 C 390.57 94.38 383.42 92.43 376.32 90.30 C 383.39 87.87 390.91 86.66 397.79 83.78 C 399.97 76.81 401.68 69.70 403.83 62.72 Z" />
<path fill="#2886aa" opacity="1.00" d=" M 583.83 77.51 C 585.95 84.61 587.90 91.77 589.93 98.90 C 597.05 101.00 604.25 102.88 611.37 105.01 C 604.39 107.25 597.22 108.88 590.27 111.17 C 587.49 118.06 586.18 125.49 583.83 132.54 C 581.66 125.47 579.76 118.31 577.75 111.19 C 570.62 109.12 563.44 107.21 556.34 105.02 C 563.44 102.89 570.61 100.97 577.73 98.91 C 579.78 91.78 581.67 84.61 583.83 77.51 Z" />
<path fill="#2886aa" opacity="1.00" d=" M 771.75 130.41 C 774.78 139.78 776.73 149.54 780.17 158.76 C 789.46 161.69 798.93 164.06 808.27 166.86 C 798.84 169.68 789.33 172.25 779.86 174.94 C 777.13 184.40 774.57 193.91 771.74 203.33 C 769.00 193.90 766.39 184.43 763.73 174.97 C 754.30 172.25 744.80 169.72 735.41 166.86 C 744.80 164.04 754.28 161.51 763.71 158.79 C 766.41 149.34 768.98 139.84 771.75 130.41 Z" />
<path fill="#2886aa" opacity="1.00" d=" M 644.86 154.53 C 647.91 163.89 649.78 173.68 653.28 182.86 C 662.53 185.82 672.02 188.07 681.30 190.99 C 671.85 193.73 662.37 196.36 652.91 199.05 C 650.23 208.51 647.66 217.99 644.86 227.41 C 642.09 217.99 639.48 208.51 636.79 199.06 C 627.36 196.34 617.89 193.78 608.49 190.99 C 617.87 188.09 627.36 185.59 636.79 182.86 C 639.48 173.42 642.08 163.95 644.86 154.53 Z" />
<path fill="#2886aa" opacity="1.00" d=" M 353.97 179.05 C 355.96 171.89 357.94 164.73 360.00 157.58 C 362.21 164.59 363.86 171.77 366.17 178.74 C 373.07 181.51 380.50 182.83 387.57 185.19 C 380.47 187.34 373.31 189.27 366.17 191.30 C 364.08 198.43 362.19 205.62 360.00 212.72 C 357.89 205.61 355.98 198.44 353.93 191.31 C 346.79 189.25 339.60 187.33 332.49 185.20 C 339.61 183.02 346.81 181.13 353.97 179.05 Z" />
<path fill="#2886aa" opacity="1.00" d=" M 890.09 195.00 C 892.42 188.07 893.96 180.89 896.26 173.95 C 898.71 180.95 899.84 188.43 902.70 195.24 C 909.64 197.52 916.79 199.14 923.75 201.37 C 916.64 203.52 909.48 205.46 902.34 207.47 C 900.33 214.61 898.39 221.76 896.26 228.86 C 894.10 221.77 892.18 214.61 890.14 207.49 C 882.96 205.43 875.76 203.48 868.60 201.37 C 875.71 199.08 883.10 197.62 890.09 195.00 Z" />
<path fill="#2886aa" opacity="1.00" d=" M 713.39 226.94 C 715.52 234.08 717.46 241.27 719.53 248.43 C 726.68 250.41 733.84 252.38 740.94 254.52 C 733.84 256.66 726.68 258.61 719.54 260.59 C 717.47 267.75 715.52 274.94 713.39 282.08 C 711.26 274.96 709.33 267.79 707.32 260.65 C 700.18 258.61 693.01 256.67 685.91 254.52 C 693.01 252.34 700.19 250.43 707.33 248.38 C 709.33 241.23 711.27 234.06 713.39 226.94 Z" />
<path fill="#2886aa" opacity="1.00" d=" M 815.57 248.46 C 817.64 241.32 819.55 234.14 821.71 227.02 C 823.82 234.14 825.77 241.31 827.79 248.46 C 834.97 250.47 842.16 252.46 849.32 254.55 C 842.16 256.68 834.95 258.61 827.78 260.72 C 825.75 267.83 823.85 274.97 821.70 282.05 C 819.35 275.02 817.98 267.67 815.36 260.75 C 808.37 258.41 801.16 256.80 794.14 254.55 C 801.26 252.45 808.41 250.47 815.57 248.46 Z" />
<path fill="#2886aa" opacity="1.00" d=" M 300.87 269.62 C 304.14 258.34 307.19 247.01 310.49 235.74 C 313.76 247.02 316.87 258.34 320.13 269.62 C 331.45 272.79 342.77 275.99 354.08 279.20 C 342.75 282.44 331.41 285.61 320.08 288.82 C 316.88 300.10 313.77 311.41 310.48 322.66 C 307.22 311.40 304.10 300.10 300.92 288.82 C 289.59 285.60 278.25 282.43 266.92 279.20 C 278.24 276.03 289.54 272.76 300.87 269.62 Z" />
<path fill="#2886aa" opacity="1.00" d=" M 424.64 236.49 C 426.80 243.60 428.73 250.77 430.77 257.91 C 437.93 259.94 445.10 261.94 452.26 264.00 C 445.52 266.13 438.64 267.77 431.90 269.90 C 430.46 270.13 430.40 271.86 429.96 272.94 C 428.19 279.14 426.56 285.39 424.64 291.55 C 422.54 284.46 420.56 277.33 418.63 270.20 C 411.52 268.08 404.33 266.27 397.28 264.00 C 404.35 261.82 411.52 259.98 418.61 257.87 C 420.56 250.73 422.54 243.59 424.64 236.49 Z" />
<path fill="#2886aa" opacity="1.00" d=" M 607.34 277.37 C 610.53 266.19 613.51 254.94 616.88 243.80 C 620.31 254.93 623.27 266.20 626.51 277.38 C 637.78 280.57 649.08 283.68 660.31 287.00 C 649.07 290.27 637.80 293.42 626.53 296.59 C 623.27 307.84 620.22 319.16 616.88 330.39 C 613.61 319.16 610.51 307.88 607.34 296.63 C 596.09 293.41 584.80 290.32 573.59 287.00 C 584.79 283.64 596.09 280.59 607.34 277.37 Z" />
<path fill="#2886aa" opacity="1.00" d=" M 182.01 283.55 C 184.19 290.64 186.10 297.80 188.12 304.92 C 195.24 306.96 202.40 308.86 209.49 311.02 C 202.42 313.24 195.25 315.12 188.14 317.17 C 186.10 324.29 184.20 331.45 182.02 338.52 C 179.87 331.43 177.97 324.27 175.93 317.15 C 168.75 315.16 161.58 313.16 154.45 311.02 C 161.59 308.94 168.77 306.98 175.92 304.91 C 177.98 297.80 179.87 290.64 182.01 283.55 Z" />
<path fill="#2886aa" opacity="1.00" d=" M 699.92 328.51 C 702.13 335.58 703.98 342.76 706.07 349.87 C 713.22 351.91 720.40 353.84 727.51 355.99 C 720.38 358.09 713.21 360.05 706.07 362.10 C 703.97 369.23 702.08 376.43 699.92 383.54 C 697.82 376.42 695.85 369.25 693.86 362.10 C 686.71 360.06 679.54 358.11 672.42 355.98 C 679.53 353.85 686.70 351.89 693.84 349.85 C 695.85 342.73 697.78 335.59 699.92 328.51 Z" />
<path fill="#2886aa" opacity="1.00" d=" M 107.74 342.99 C 109.92 349.68 111.53 356.55 113.61 363.27 C 113.88 364.72 115.78 364.60 116.85 365.15 C 123.02 366.91 129.22 368.56 135.36 370.42 C 128.21 372.51 121.03 374.50 113.86 376.52 C 111.81 383.65 109.92 390.82 107.74 397.90 C 105.62 390.81 103.65 383.68 101.69 376.55 C 94.53 374.48 87.34 372.54 80.20 370.40 C 87.26 367.98 94.89 366.86 101.67 363.84 C 103.95 356.97 105.52 349.88 107.74 342.99 Z" />
<path fill="#2886aa" opacity="1.00" d=" M 244.97 366.92 C 247.74 360.03 249.03 352.58 251.37 345.52 C 253.48 352.61 255.48 359.74 257.43 366.89 C 264.64 369.00 271.88 371.00 279.11 373.07 C 271.90 375.17 264.65 377.12 257.45 379.26 C 255.47 386.38 253.49 393.51 251.37 400.60 C 249.19 393.66 247.53 386.57 245.35 379.64 C 238.47 376.64 230.86 375.48 223.74 373.08 C 230.78 370.89 237.99 369.24 244.97 366.92 Z" />
<path fill="#2886aa" opacity="1.00" d=" M 791.37 362.97 C 794.15 372.41 796.70 381.92 799.42 391.39 C 808.90 394.04 818.38 396.67 827.82 399.46 C 818.37 402.22 808.89 404.86 799.42 407.54 C 796.70 416.98 794.15 426.48 791.38 435.92 C 788.55 426.49 785.99 416.99 783.28 407.54 C 773.83 404.82 764.34 402.27 754.92 399.47 C 764.34 396.63 773.84 394.08 783.29 391.35 C 785.98 381.88 788.57 372.40 791.37 362.97 Z" />
<path fill="#2886aa" opacity="1.00" d=" M 877.58 414.46 C 879.72 421.42 881.44 428.50 883.63 435.44 C 890.41 438.47 897.98 439.52 905.01 442.00 C 897.99 444.50 890.49 445.62 883.65 448.55 C 881.43 455.50 879.74 462.61 877.58 469.59 C 875.48 462.48 873.49 455.33 871.53 448.18 C 864.44 446.09 857.27 444.26 850.24 442.01 C 857.29 439.81 864.44 437.96 871.53 435.86 C 873.50 428.71 875.47 421.57 877.58 414.46 Z" />
<path fill="#2886aa" opacity="1.00" d=" M 754.79 469.95 C 756.82 477.15 758.87 484.34 760.89 491.55 C 768.04 493.61 775.23 495.56 782.37 497.69 C 775.29 500.02 767.88 501.38 760.95 504.07 C 758.61 511.05 757.00 518.25 754.77 525.27 C 752.75 518.51 751.01 511.68 748.98 504.94 C 748.76 503.58 747.12 503.50 746.12 503.06 C 739.86 501.24 733.53 499.65 727.33 497.66 C 734.43 495.54 741.57 493.58 748.70 491.57 C 750.72 484.36 752.75 477.15 754.79 469.95 Z" />
<path fill="#2886aa" opacity="1.00" d=" M 246.85 536.39 C 249.99 545.70 251.77 555.50 255.27 564.66 C 264.56 567.56 274.02 569.92 283.35 572.74 C 273.89 575.52 264.38 578.12 254.90 580.85 C 252.23 590.32 249.65 599.82 246.86 609.26 C 244.19 600.20 241.79 591.05 239.08 582.00 C 238.86 580.57 237.18 580.48 236.11 580.05 C 227.54 577.62 218.94 575.28 210.40 572.74 C 219.83 569.98 229.28 567.31 238.75 564.70 C 241.53 555.28 244.02 545.79 246.85 536.39 Z" />
<path fill="#2886aa" opacity="1.00" d=" M 153.95 569.82 C 156.28 576.96 157.54 584.52 160.47 591.43 C 167.44 593.62 174.56 595.34 181.55 597.50 C 174.52 599.64 167.37 601.36 160.38 603.61 C 157.59 610.45 156.40 617.86 153.95 624.84 C 151.42 617.86 150.38 610.33 147.39 603.56 C 140.42 601.35 133.31 599.63 126.32 597.49 C 133.38 595.08 141.03 593.95 147.78 590.95 C 150.19 584.02 151.76 576.82 153.95 569.82 Z" />
<path fill="#2886aa" opacity="1.00" d=" M 346.10 619.96 C 348.80 610.51 351.38 601.03 354.17 591.60 C 356.97 601.02 359.54 610.50 362.23 619.95 C 371.64 622.71 381.15 625.17 390.53 628.07 C 381.13 630.88 371.65 633.44 362.22 636.15 C 359.53 645.59 356.99 655.08 354.17 664.49 C 351.38 655.07 348.80 645.58 346.09 636.14 C 336.62 633.43 327.12 630.84 317.67 628.06 C 327.13 625.28 336.63 622.66 346.10 619.96 Z" />
<path fill="#2886aa" opacity="1.00" d=" M 559.62 655.43 C 562.87 644.17 565.91 632.86 569.27 621.63 C 572.51 632.86 575.63 644.13 578.79 655.39 C 590.02 658.62 601.31 661.67 612.51 665.02 C 601.32 668.39 590.03 671.39 578.81 674.67 C 575.60 685.91 572.53 697.20 569.27 708.44 C 566.20 698.15 563.38 687.79 560.46 677.46 C 559.94 676.40 559.98 674.57 558.55 674.35 C 547.71 671.14 536.75 668.36 525.96 665.01 C 537.13 661.67 548.40 658.62 559.62 655.43 Z" />
<path fill="#2886aa" opacity="1.00" d=" M 649.21 675.97 C 651.24 668.82 653.15 661.65 655.30 654.54 C 657.40 661.64 659.38 668.78 661.38 675.91 C 668.57 678.03 675.81 679.99 683.01 682.09 C 675.79 684.15 668.56 686.16 661.36 688.26 C 659.42 695.39 657.37 702.50 655.32 709.61 C 652.88 702.57 651.70 695.08 648.85 688.22 C 641.89 685.90 634.70 684.28 627.69 682.09 C 634.85 679.99 642.03 678.00 649.21 675.97 Z" />
<path fill="#2886aa" opacity="1.00" d=" M 211.55 662.73 C 213.67 669.89 215.60 677.11 217.66 684.28 C 224.82 686.29 231.99 688.25 239.10 690.38 C 231.97 692.50 224.80 694.47 217.65 696.51 C 215.62 703.65 213.70 710.83 211.55 717.94 C 209.45 710.82 207.48 703.66 205.45 696.52 C 198.31 694.46 191.13 692.52 183.99 690.41 C 191.11 688.23 198.30 686.31 205.45 684.27 C 207.47 677.08 209.48 669.90 211.55 662.73 Z" />
<path fill="#2886aa" opacity="1.00" d=" M 488.00 718.12 C 490.02 710.96 491.97 703.79 494.08 696.66 C 496.28 703.66 497.92 710.84 500.23 717.82 C 507.15 720.53 514.56 721.89 521.63 724.25 C 514.53 726.36 507.38 728.33 500.25 730.31 C 498.14 737.52 496.14 744.75 494.09 751.97 C 492.02 744.77 490.05 737.54 487.96 730.35 C 480.83 728.31 473.67 726.35 466.55 724.25 C 473.66 722.08 480.84 720.15 488.00 718.12 Z" />
</g>
</svg>
