<svg width="250px" height="200px" viewBox="0 0 1000 800" version="1.1" xmlns="http://www.w3.org/2000/svg">
<g id="#f6ac2dfe">
<path fill="#f6ac2d" opacity="1.00" d=" M 836.32 65.66 C 838.36 58.31 840.64 51.03 842.40 43.61 C 844.33 50.98 846.52 58.29 848.56 65.64 C 855.77 67.66 862.98 69.72 870.19 71.75 C 863.02 73.77 855.87 75.89 848.67 77.80 C 846.46 84.95 844.54 92.19 842.50 99.40 C 840.21 92.25 838.52 84.92 836.23 77.78 C 829.03 75.89 821.88 73.78 814.72 71.76 C 821.92 69.73 829.11 67.66 836.32 65.66 Z" />
<path fill="#f6ac2d" opacity="1.00" d=" M 415.83 62.56 C 417.89 69.76 419.90 76.97 421.96 84.17 C 429.16 86.22 436.38 88.22 443.58 90.29 C 436.38 92.34 429.17 94.36 421.97 96.40 C 419.89 103.61 417.90 110.84 415.82 118.04 C 413.80 110.83 411.78 103.61 409.73 96.40 C 402.52 94.37 395.30 92.34 388.10 90.30 C 395.32 88.23 402.55 86.21 409.77 84.14 C 411.76 76.94 413.80 69.75 415.83 62.56 Z" />
<path fill="#f6ac2d" opacity="1.00" d=" M 595.81 77.31 C 597.88 84.50 599.88 91.72 601.95 98.92 C 609.09 101.00 616.30 102.87 623.41 105.06 C 616.27 107.13 609.11 109.13 601.95 111.16 C 599.88 118.36 597.88 125.58 595.81 132.78 C 593.79 125.58 591.75 118.38 589.74 111.18 C 582.67 109.14 575.56 107.21 568.51 105.12 C 575.47 102.70 582.69 101.04 589.74 98.89 C 591.75 91.69 593.79 84.50 595.81 77.31 Z" />
<path fill="#f6ac2d" opacity="1.00" d=" M 203.93 156.91 C 205.99 149.77 207.89 142.59 210.03 135.47 C 212.14 142.60 214.10 149.77 216.14 156.92 C 223.13 159.10 230.41 160.53 237.21 163.19 C 230.20 165.22 223.16 167.17 216.15 169.18 C 214.11 176.23 212.22 183.32 210.09 190.34 C 207.68 183.40 206.04 176.20 203.92 169.16 C 196.75 167.14 189.57 165.14 182.42 163.05 C 189.57 160.92 196.77 158.99 203.93 156.91 Z" />
<path fill="#f6ac2d" opacity="1.00" d=" M 365.94 179.06 C 368.01 171.96 369.81 164.78 372.05 157.73 C 374.17 164.81 376.11 171.94 378.13 179.04 C 385.33 181.12 392.56 183.12 399.77 185.19 C 392.57 187.23 385.38 189.29 378.17 191.30 C 376.08 198.48 374.11 205.69 372.02 212.87 C 369.94 205.69 367.99 198.48 365.92 191.30 C 358.71 189.27 351.50 187.23 344.29 185.20 C 351.49 183.11 358.73 181.14 365.94 179.06 Z" />
<path fill="#f6ac2d" opacity="1.00" d=" M 480.87 162.33 C 483.58 171.84 486.22 181.37 488.93 190.89 C 498.42 193.55 507.91 196.22 517.39 198.95 C 507.91 201.73 498.39 204.33 488.90 207.07 C 486.23 216.58 483.57 226.09 480.87 235.59 C 478.16 226.09 475.48 216.58 472.79 207.07 C 463.33 204.32 453.81 201.76 444.36 198.95 C 453.82 196.18 463.33 193.59 472.80 190.84 C 475.48 181.33 478.17 171.83 480.87 162.33 Z" />
<path fill="#f6ac2d" opacity="1.00" d=" M 603.32 225.37 C 606.52 214.06 609.68 202.74 612.89 191.43 C 616.12 202.73 619.29 214.06 622.52 225.37 C 633.75 228.61 645.05 231.61 656.24 235.02 C 645.02 238.30 633.75 241.41 622.51 244.62 C 619.29 255.93 616.13 267.25 612.89 278.55 C 609.68 267.25 606.52 255.94 603.33 244.63 C 592.18 241.31 580.84 238.55 569.80 234.90 C 580.95 231.63 592.15 228.56 603.32 225.37 Z" />
<path fill="#f6ac2d" opacity="1.00" d=" M 827.57 248.44 C 829.63 241.24 831.65 234.03 833.70 226.83 C 835.75 234.02 837.75 241.23 839.79 248.42 C 846.99 250.51 854.23 252.49 861.44 254.56 C 854.22 256.60 847.00 258.64 839.79 260.70 C 837.75 267.89 835.76 275.10 833.69 282.29 C 831.67 275.10 829.60 267.92 827.61 260.72 C 820.41 258.61 813.16 256.70 805.99 254.51 C 813.20 252.56 820.37 250.45 827.57 248.44 Z" />
<path fill="#f6ac2d" opacity="1.00" d=" M 725.38 226.77 C 727.45 233.97 729.46 241.19 731.52 248.40 C 738.73 250.41 745.93 252.50 753.16 254.48 C 745.97 256.62 738.73 258.57 731.53 260.63 C 729.41 267.99 727.37 275.36 725.24 282.72 C 723.73 275.25 721.22 268.02 719.30 260.64 C 712.09 258.62 704.89 256.56 697.68 254.53 C 704.87 252.44 712.09 250.43 719.30 248.38 C 721.33 241.18 723.37 233.97 725.38 226.77 Z" />
<path fill="#f6ac2d" opacity="1.00" d=" M 322.47 235.62 C 325.72 246.93 328.86 258.29 332.12 269.60 C 343.45 272.80 354.78 275.98 366.11 279.21 C 354.77 282.42 343.43 285.61 332.10 288.83 C 328.75 299.93 326.12 311.30 322.35 322.25 C 319.15 311.12 316.07 299.96 312.91 288.83 C 301.58 285.60 290.23 282.41 278.89 279.21 C 290.23 276.02 301.55 272.77 312.89 269.60 C 316.12 258.28 319.27 246.94 322.47 235.62 Z" />
<path fill="#f6ac2d" opacity="1.00" d=" M 430.59 257.88 C 432.59 250.68 434.61 243.48 436.66 236.30 C 438.69 243.50 440.73 250.70 442.78 257.90 C 449.89 259.99 457.08 261.82 464.14 264.07 C 457.04 266.17 449.90 268.13 442.79 270.15 C 440.71 277.35 438.71 284.57 436.65 291.77 C 434.63 284.58 432.57 277.39 430.59 270.19 C 423.39 268.09 416.16 266.10 408.95 264.03 C 416.16 261.95 423.39 259.98 430.59 257.88 Z" />
<path fill="#f6ac2d" opacity="1.00" d=" M 131.75 282.23 C 134.47 291.74 137.14 301.26 139.85 310.78 C 149.36 313.48 158.88 316.16 168.39 318.87 C 158.89 321.61 149.36 324.25 139.85 326.97 C 137.14 336.48 134.48 346.00 131.75 355.51 C 129.07 346.00 126.39 336.49 123.73 326.98 C 114.21 324.25 104.67 321.60 95.16 318.86 C 104.67 316.14 114.21 313.50 123.73 310.77 C 126.39 301.25 129.08 291.74 131.75 282.23 Z" />
<path fill="#f6ac2d" opacity="1.00" d=" M 711.91 328.37 C 714.08 335.50 715.97 342.70 718.06 349.86 C 725.10 351.99 732.30 353.60 739.23 356.05 C 732.20 358.16 725.11 360.06 718.05 362.10 C 715.98 369.25 714.06 376.45 711.91 383.58 C 709.84 376.43 707.87 369.27 705.84 362.11 C 698.85 359.94 691.61 358.44 684.77 355.86 C 691.77 353.78 698.82 351.86 705.84 349.84 C 707.86 342.68 709.84 335.52 711.91 328.37 Z" />
<path fill="#f6ac2d" opacity="1.00" d=" M 257.07 366.94 C 259.56 359.94 261.17 352.50 263.39 345.35 C 265.40 352.53 267.47 359.71 269.47 366.90 C 276.66 369.02 283.90 370.99 291.11 373.08 C 283.90 375.15 276.67 377.15 269.47 379.24 C 267.46 386.44 265.40 393.62 263.38 400.82 C 261.32 393.61 259.32 386.39 257.27 379.18 C 250.07 377.15 242.86 375.15 235.68 373.08 C 242.78 370.96 249.99 369.13 257.07 366.94 Z" />
<path fill="#f6ac2d" opacity="1.00" d=" M 795.29 391.34 C 797.97 381.81 800.68 372.30 803.36 362.77 C 806.03 372.29 808.74 381.79 811.37 391.31 C 820.88 394.11 830.47 396.65 839.97 399.51 C 830.42 402.10 820.93 404.88 811.41 407.55 C 808.71 417.09 806.03 426.65 803.35 436.20 C 800.74 426.63 797.95 417.11 795.29 407.56 C 785.77 404.81 776.23 402.18 766.71 399.45 C 776.23 396.74 785.77 394.07 795.29 391.34 Z" />
<path fill="#f6ac2d" opacity="1.00" d=" M 886.14 455.22 C 888.18 448.02 890.20 440.82 892.26 433.63 C 894.32 440.75 896.18 447.93 898.34 455.02 C 905.35 457.53 912.81 459.17 919.99 461.36 C 912.78 463.40 905.58 465.47 898.36 467.47 C 896.30 474.68 894.30 481.90 892.26 489.11 C 890.22 481.92 888.16 474.74 886.17 467.53 C 878.96 465.42 871.71 463.45 864.49 461.37 C 871.70 459.28 878.94 457.32 886.14 455.22 Z" />
<path fill="#f6ac2d" opacity="1.00" d=" M 215.74 450.68 C 217.80 457.87 219.82 465.06 221.86 472.26 C 229.05 474.34 236.27 476.34 243.47 478.40 C 236.26 480.50 229.01 482.44 221.81 484.60 C 219.85 491.80 217.76 498.98 215.74 506.17 C 213.71 498.95 211.69 491.74 209.64 484.53 C 202.43 482.49 195.22 480.44 188.00 478.40 C 195.23 476.36 202.47 474.35 209.68 472.25 C 211.67 465.05 213.72 457.87 215.74 450.68 Z" />
<path fill="#f6ac2d" opacity="1.00" d=" M 766.78 469.94 C 768.79 477.10 770.90 484.24 772.81 491.44 C 780.00 493.68 787.30 495.58 794.54 497.68 C 787.33 499.77 780.09 501.73 772.89 503.83 C 770.86 511.03 768.84 518.23 766.78 525.41 C 764.66 518.18 762.83 510.86 760.55 503.68 C 753.34 501.84 746.23 499.67 739.07 497.68 C 746.28 495.64 753.49 493.59 760.70 491.56 C 762.73 484.35 764.75 477.15 766.78 469.94 Z" />
<path fill="#f6ac2d" opacity="1.00" d=" M 258.87 536.13 C 261.61 545.62 264.21 555.16 266.94 564.66 C 276.46 567.34 285.98 570.04 295.50 572.74 C 285.97 575.45 276.44 578.13 266.92 580.84 C 264.23 590.35 261.58 599.87 258.88 609.37 C 256.17 599.87 253.49 590.36 250.80 580.85 C 241.29 578.12 231.75 575.47 222.24 572.74 C 231.75 570.04 241.25 567.32 250.77 564.67 C 253.50 555.17 256.15 545.64 258.87 536.13 Z" />
<path fill="#f6ac2d" opacity="1.00" d=" M 649.25 553.46 C 652.45 564.76 655.62 576.07 658.80 587.38 C 670.04 590.66 681.37 593.66 692.58 597.04 C 681.35 600.34 670.05 603.42 658.80 606.67 C 655.62 617.98 652.44 629.29 649.26 640.60 C 646.03 629.30 642.83 617.99 639.66 606.68 C 628.38 603.39 617.04 600.34 605.77 597.03 C 617.03 593.74 628.33 590.61 639.62 587.41 C 642.85 576.10 646.01 564.77 649.25 553.46 Z" />
<path fill="#f6ac2d" opacity="1.00" d=" M 165.95 569.77 C 168.03 576.97 169.96 584.22 172.10 591.41 C 179.29 593.40 186.48 595.43 193.65 597.51 C 186.46 599.50 179.30 601.61 172.11 603.57 C 169.95 610.74 168.06 617.98 165.95 625.17 C 163.85 617.99 161.90 610.77 159.80 603.60 C 152.67 601.51 145.45 599.72 138.40 597.40 C 145.54 595.43 152.66 593.38 159.80 591.39 C 161.90 584.20 163.87 576.97 165.95 569.77 Z" />
<path fill="#f6ac2d" opacity="1.00" d=" M 497.21 611.95 C 499.24 604.75 501.23 597.54 503.30 590.35 C 505.32 597.54 507.38 604.73 509.39 611.92 C 516.59 614.02 523.82 616.00 531.03 618.09 C 523.82 620.14 516.60 622.16 509.40 624.23 C 507.37 631.43 505.33 638.62 503.29 645.81 C 501.23 638.61 499.24 631.39 497.19 624.20 C 489.99 622.15 482.78 620.17 475.60 618.08 C 482.80 616.02 490.01 614.01 497.21 611.95 Z" />
<path fill="#f6ac2d" opacity="1.00" d=" M 366.18 591.41 C 368.88 600.92 371.55 610.44 374.23 619.96 C 383.70 622.71 393.24 625.23 402.69 628.08 C 393.21 630.79 383.71 633.45 374.22 636.16 C 371.55 645.68 368.87 655.19 366.19 664.71 C 363.47 655.18 360.81 645.64 358.08 636.13 C 348.59 633.44 339.08 630.81 329.61 628.06 C 339.09 625.29 348.61 622.67 358.10 619.95 C 360.80 610.44 363.48 600.92 366.18 591.41 Z" />
<path fill="#f6ac2d" opacity="1.00" d=" M 807.52 639.86 C 809.52 632.65 811.52 625.45 813.61 618.27 C 815.53 625.45 817.73 632.55 819.58 639.75 C 826.74 642.06 834.07 643.86 841.29 646.02 C 834.09 648.12 826.83 650.06 819.65 652.22 C 817.69 659.30 815.68 666.37 813.65 673.43 C 811.30 666.44 809.57 659.25 807.51 652.18 C 800.31 650.09 793.10 648.10 785.90 646.03 C 793.10 643.93 800.33 641.97 807.52 639.86 Z" />
<path fill="#f6ac2d" opacity="1.00" d=" M 223.57 662.65 C 225.61 669.85 227.61 677.07 229.67 684.28 C 236.88 686.28 244.07 688.34 251.27 690.38 C 244.07 692.45 236.85 694.45 229.65 696.53 C 227.63 703.72 225.59 710.92 223.58 718.12 C 221.50 710.93 219.49 703.71 217.44 696.51 C 210.24 694.45 203.02 692.46 195.82 690.40 C 203.01 688.33 210.22 686.30 217.42 684.27 C 219.50 677.07 221.50 669.85 223.57 662.65 Z" />
<path fill="#f6ac2d" opacity="1.00" d=" M 499.98 718.12 C 502.04 710.93 504.01 703.72 506.08 696.53 C 508.14 703.71 510.17 710.90 512.19 718.09 C 519.40 720.17 526.63 722.18 533.85 724.25 C 526.64 726.28 519.43 728.31 512.22 730.34 C 510.15 737.54 508.14 744.76 506.09 751.97 C 504.02 744.77 502.05 737.54 499.97 730.35 C 492.77 728.33 485.58 726.27 478.39 724.24 C 485.58 722.17 492.77 720.14 499.98 718.12 Z" />
</g>
</svg>
