<?xml version="1.0" standalone="no"?>
<!DOCTYPE svg PUBLIC "-//W3C//DTD SVG 20010904//EN"
 "http://www.w3.org/TR/2001/REC-SVG-20010904/DTD/svg10.dtd">
<svg version="1.0" xmlns="http://www.w3.org/2000/svg"
 width="960.000000pt" height="634.000000pt" viewBox="0 0 960.000000 634.000000"
 preserveAspectRatio="xMidYMid meet">
<metadata>
Created by potrace 1.12, written by Peter Selinger 2001-2015
</metadata>
<g transform="translate(0.000000,634.000000) scale(0.100000,-0.100000)"
fill="#000000" stroke="none">
<path d="M480 5900 l0 -400 410 0 410 0 0 400 0 400 -410 0 -410 0 0 -400z"/>
<path d="M1330 5885 l0 -415 -425 0 -425 0 0 -390 0 -390 855 0 855 0 0 -955
0 -955 655 0 655 0 0 1665 0 1665 555 0 555 0 0 95 0 95 -1640 0 -1640 0 0
-415z"/>
<path d="M4640 6130 l0 -170 545 0 545 0 0 -1590 0 -1590 440 0 440 0 0 550 0
550 1475 0 1475 0 0 535 0 535 -440 0 -440 0 0 275 0 275 -495 0 -495 0 0 400
0 400 -1525 0 -1525 0 0 -170z"/>
<path d="M7720 5915 l0 -385 480 0 480 0 0 385 0 385 -480 0 -480 0 0 -385z"/>
<path d="M8710 5640 l0 -660 425 0 425 0 0 660 0 660 -425 0 -425 0 0 -660z"/>
<path d="M3530 4430 l0 -1650 540 0 540 0 0 1650 0 1650 -540 0 -540 0 0
-1650z"/>
<path d="M4640 4355 l0 -1575 530 0 530 0 0 1575 0 1575 -530 0 -530 0 0
-1575z"/>
<path d="M480 3720 l0 -940 225 0 225 0 0 940 0 940 -225 0 -225 0 0 -940z"/>
<path d="M960 4475 l0 -185 230 0 230 0 0 185 0 185 -230 0 -230 0 0 -185z"/>
<path d="M1450 3720 l0 -940 355 0 355 0 0 940 0 940 -355 0 -355 0 0 -940z"/>
<path d="M960 4085 l0 -175 230 0 230 0 0 175 0 175 -230 0 -230 0 0 -175z"/>
<path d="M960 3330 l0 -550 230 0 230 0 0 550 0 550 -230 0 -230 0 0 -550z"/>
<path d="M6640 3315 l0 -535 215 0 215 0 0 535 0 535 -215 0 -215 0 0 -535z"/>
<path d="M7100 3315 l0 -535 385 0 385 0 0 535 0 535 -385 0 -385 0 0 -535z"/>
<path d="M7900 3315 l0 -535 185 0 185 0 0 535 0 535 -185 0 -185 0 0 -535z"/>
<path d="M8300 3315 l0 -535 215 0 215 0 0 535 0 535 -215 0 -215 0 0 -535z"/>
<path d="M8760 3185 l0 -665 400 0 400 0 0 665 0 665 -400 0 -400 0 0 -665z"/>
<path d="M40 1875 l0 -775 205 0 205 0 0 775 0 775 -205 0 -205 0 0 -775z"/>
<path d="M680 2370 l0 -170 150 0 150 0 0 170 0 170 -150 0 -150 0 0 -170z"/>
<path d="M3820 2355 l0 -135 360 0 360 0 0 135 0 135 -360 0 -360 0 0 -135z"/>
<path d="M4780 2355 l0 -135 215 0 215 0 0 135 0 135 -215 0 -215 0 0 -135z"/>
<path d="M5670 2355 l0 -135 300 0 300 0 0 135 0 135 -300 0 -300 0 0 -135z"/>
<path d="M8760 1795 l0 -695 400 0 400 0 0 695 0 695 -400 0 -400 0 0 -695z"/>
<path d="M2190 1985 l0 -95 185 0 185 0 0 95 0 95 -185 0 -185 0 0 -95z"/>
<path d="M2590 1985 l0 -95 390 0 390 0 0 95 0 95 -390 0 -390 0 0 -95z"/>
<path d="M3400 1985 l0 -95 195 0 195 0 0 95 0 95 -195 0 -195 0 0 -95z"/>
<path d="M4390 1590 l0 -490 510 0 510 0 0 490 0 490 -510 0 -510 0 0 -490z"/>
<path d="M5440 1590 l0 -490 200 0 200 0 0 490 0 490 -200 0 -200 0 0 -490z"/>
<path d="M5870 1590 l0 -490 185 0 185 0 0 490 0 490 -185 0 -185 0 0 -490z"/>
<path d="M6270 1590 l0 -490 190 0 190 0 0 490 0 490 -190 0 -190 0 0 -490z"/>
<path d="M6680 1590 l0 -490 195 0 195 0 0 490 0 490 -195 0 -195 0 0 -490z"/>
<path d="M7100 1590 l0 -490 385 0 385 0 0 490 0 490 -385 0 -385 0 0 -490z"/>
<path d="M7900 1590 l0 -490 415 0 415 0 0 490 0 490 -415 0 -415 0 0 -490z"/>
<path d="M480 1436 c0 -464 3 -496 64 -646 50 -125 156 -264 255 -338 20 -15
38 -29 41 -32 9 -9 44 -29 110 -64 80 -42 200 -76 291 -83 l69 -6 0 797 0 796
-415 0 -415 0 0 -424z"/>
<path d="M1340 1480 l0 -380 410 0 410 0 0 380 0 380 -410 0 -410 0 0 -380z"/>
<path d="M3820 1225 l0 -125 270 0 270 0 0 125 0 125 -270 0 -270 0 0 -125z"/>
<path d="M1362 1072 l-23 -4 3 -396 3 -397 45 0 c153 -2 416 121 525 244 16
19 47 53 67 75 75 81 167 295 171 397 2 33 0 65 -4 71 -6 9 -110 12 -386 12
-208 1 -388 0 -401 -2z"/>
</g>
</svg>
